<?xml version="1.0" encoding="UTF-8"?>
<!DOCTYPE svg PUBLIC "-//W3C//DTD SVG 1.0//EN" "http://www.w3.org/TR/2001/REC-SVG-20010904/DTD/svg10.dtd">
<!-- Creator: CorelDRAW 2021 (64-Bit) -->
<svg xmlns="http://www.w3.org/2000/svg" xml:space="preserve" width="70px" height="70px" version="1.0" shape-rendering="geometricPrecision" text-rendering="geometricPrecision" image-rendering="optimizeQuality" fill-rule="evenodd" clip-rule="evenodd"
viewBox="0 0 70 70"
 xmlns:xlink="http://www.w3.org/1999/xlink"
 xmlns:xodm="http://www.corel.com/coreldraw/odm/2003">
 <defs>
   <linearGradient id="id0" gradientUnits="userSpaceOnUse" x1="4.54" y1="17.51" x2="65.17" y2="52.51">
    <stop offset="0" stop-opacity="1" stop-color="#1A6BB0"/>
    <stop offset="0.45098" stop-opacity="1" stop-color="#1A6BB0"/>
    <stop offset="1" stop-opacity="1" stop-color="#342F8B"/>
   </linearGradient>
 </defs>
 <g id="Слой_x0020_1">
  <metadata id="CorelCorpID_0Corel-Layer"/>
  <path fill="url(#id0)" d="M-0.14 35.01c0,19.33 15.67,35 35,35 19.33,0 35,-15.67 35,-35 0,-19.33 -15.67,-35 -35,-35 -19.33,0 -35,15.67 -35,35z"/>
  <path fill="white" fill-rule="nonzero" d="M38.86 60.89l0 -23.61 7.93 0 1.19 -9.2 -9.12 0 0 -5.87c0,-2.67 0.74,-4.48 4.56,-4.48l4.88 -0.01 0 -8.23c-0.85,-0.11 -3.74,-0.36 -7.1,-0.36 -7.03,0 -11.84,4.29 -11.84,12.16l0 6.79 -7.94 0 0 9.2 7.94 0 0 23.61 9.5 0z"/>
 </g>
</svg>
