<?xml version="1.0" encoding="UTF-8"?>
<!DOCTYPE svg PUBLIC "-//W3C//DTD SVG 1.0//EN" "http://www.w3.org/TR/2001/REC-SVG-20010904/DTD/svg10.dtd">
<!-- Creator: CorelDRAW 2021 (64-Bit) -->
<svg xmlns="http://www.w3.org/2000/svg" xml:space="preserve" width="70px" height="70px" version="1.0" shape-rendering="geometricPrecision" text-rendering="geometricPrecision" image-rendering="optimizeQuality" fill-rule="evenodd" clip-rule="evenodd"
viewBox="0 0 70 70"
 xmlns:xlink="http://www.w3.org/1999/xlink"
 xmlns:xodm="http://www.corel.com/coreldraw/odm/2003">
 <defs>
    <linearGradient id="id0" gradientUnits="userSpaceOnUse" x1="2.21" y1="22.37" x2="67.5" y2="47.65">
     <stop offset="0" stop-opacity="1" stop-color="#BC89D5"/>
     <stop offset="0.388235" stop-opacity="1" stop-color="#9863B4"/>
     <stop offset="1" stop-opacity="1" stop-color="#733C92"/>
    </linearGradient>
 </defs>
 <g id="Слой_x0020_1">
  <metadata id="CorelCorpID_0Corel-Layer"/>
  <g id="_2682293714576">
   <path fill="url(#id0)" d="M-0.14 35.01c0,19.33 15.67,35 35,35 19.33,0 35,-15.67 35,-35 0,-19.33 -15.67,-35 -35,-35 -19.33,0 -35,15.67 -35,35z"/>
   <path fill="white" d="M24.96 49.31c-1.23,-0.55 -2.12,-0.75 -3.24,-1.45 -0.79,-0.5 -1.1,-0.72 -1.69,-1.29 -0.11,-0.11 -0.18,-0.15 -0.29,-0.26 -0.63,-0.61 -1.02,-1.08 -1.54,-1.93 -3.34,-5.46 -2.78,-17.32 -0.53,-21.62 0.27,-0.51 1.06,-1.78 1.44,-2.1l0.59 -0.58c2.75,-2.38 7.13,-2.95 10.82,-3.16 4.99,-0.28 12.44,-0.29 16.57,1.79 2.2,1.11 3.63,2.46 4.73,4.63 2.09,4.13 2.44,11.81 1.73,16.44 -0.57,3.77 -2.05,6.8 -5.33,8.66 -3.75,2.13 -9.89,2.24 -14.21,2.02 -2.27,-0.12 -1.46,-0.39 -3.19,1.47l-2.36 2.28c-0.39,0.39 -0.79,0.71 -1.12,1.16 -0.3,0.41 -1.93,2.07 -2.36,2.29l-0.02 -8.35zm-13.2 -17.79c0.16,0.42 0.05,3.22 0.08,3.97 0.24,5.46 1.59,11.15 5.9,14.62 1.14,0.92 2.43,1.69 3.84,2.29 0.44,0.18 1.15,0.4 1.52,0.61l0.03 9.16c0.43,-0.24 7.61,-7.68 7.82,-7.77 1.42,-0.01 3.05,0.2 4.55,0.22 4.16,0.03 8.81,-0.35 12.64,-1.71 4.98,-1.78 7.5,-5.18 8.96,-10.09 1.35,-6.23 1.24,-15.09 -1.42,-20.91 -2.52,-5.52 -7.5,-8.18 -15,-8.96 -6.09,-0.63 -16.3,-0.34 -21.16,2.32 -1.95,1.07 -3.57,2.38 -4.75,4.28 -1.7,2.74 -2.46,5.91 -2.76,9.18l-0.22 2.72c0,-0.01 -0.02,0.05 -0.03,0.07z"/>
   <path fill="white" d="M20.43 27.21c0.4,2.46 2.23,5.36 3.81,7.33l3.82 4.1c0.29,0.34 0.48,0.43 0.84,0.78 0.5,0.5 2.94,2.41 3.48,2.82 2,1.52 5.34,3.56 7.91,2.66 0.46,-0.17 1.24,-0.64 1.52,-0.93 0.47,-0.5 0.58,-0.49 1.02,-1.34 0.78,-1.51 0.47,-2.48 -0.43,-3.45 -0.19,-0.2 -0.55,-0.6 -0.78,-0.77 -1.68,-1.24 -4.62,-3.63 -6.1,-0.88 -0.2,0.37 -0.35,0.78 -0.68,0.89 -0.68,0.22 -1.94,-0.35 -2.45,-0.64 -1.26,-0.71 -1.71,-1.22 -2.71,-2.09 -1.02,-0.87 -3.21,-3.39 -2.53,-5.11 0.14,-0.36 0.49,-0.67 0.77,-0.87 0.33,-0.24 0.59,-0.44 0.89,-0.66 1.52,-1.07 0.16,-3.06 -0.69,-4.18 -0.48,-0.63 -1.24,-1.57 -1.81,-2.1 -0.11,-0.11 -0.28,-0.23 -0.46,-0.36 -1.84,-1.37 -6.11,0.52 -5.42,4.8z"/>
   <path fill="white" d="M45.06 32.48c0.05,0.82 1.31,1.15 1.41,-0.23 0.2,-2.63 -0.59,-5.42 -2.06,-7.47l-1.45 -1.66c-0.18,-0.15 -0.24,-0.2 -0.43,-0.38 -0.16,-0.14 -0.26,-0.19 -0.46,-0.36 -0.72,-0.6 -2.09,-1.31 -3.04,-1.62 -0.71,-0.24 -5.17,-1.5 -4.65,0.31 0.15,0.51 0.63,0.46 1.16,0.47 1.33,0.02 2.67,0.33 3.84,0.86 1.61,0.73 2.47,1.51 3.55,2.75 0.84,0.96 1.68,2.68 1.99,4.31 0.31,1.68 0.07,1.89 0.14,3.02z"/>
   <path fill="white" d="M35.18 23.81c0.15,0.67 0.95,0.49 1.62,0.57 1.73,0.21 3.29,1.12 4.26,2.42 2.01,2.72 0.75,4.59 1.51,5.15 0.26,0.2 1.08,0.36 1.14,-0.74 0.16,-2.72 -0.99,-5.25 -3.13,-6.81 -1.8,-1.31 -5.76,-2.27 -5.4,-0.59z"/>
   <path fill="white" d="M36.02 26.62c0.16,0.69 1.2,0.47 1.82,0.73 2.03,0.84 1.57,2.89 1.8,3.31 0.13,0.24 0.49,0.44 0.89,0.3 0.31,-0.12 0.41,-0.44 0.43,-0.85 0.15,-3.56 -3.58,-4.73 -4.55,-4.31 -0.24,0.11 -0.49,0.43 -0.39,0.82z"/>
  </g>
 </g>
</svg>
