<?xml version="1.0" encoding="UTF-8"?>
<!DOCTYPE svg PUBLIC "-//W3C//DTD SVG 1.0//EN" "http://www.w3.org/TR/2001/REC-SVG-20010904/DTD/svg10.dtd">
<!-- Creator: CorelDRAW 2021 (64-Bit) -->
<svg xmlns="http://www.w3.org/2000/svg" xml:space="preserve" width="70px" height="70px" version="1.0" shape-rendering="geometricPrecision" text-rendering="geometricPrecision" image-rendering="optimizeQuality" fill-rule="evenodd" clip-rule="evenodd"
viewBox="0 0 70 70"
 xmlns:xlink="http://www.w3.org/1999/xlink"
 xmlns:xodm="http://www.corel.com/coreldraw/odm/2003">
 <defs>
   <radialGradient id="id0" gradientUnits="userSpaceOnUse" gradientTransform="matrix(3 -0 -0 3 -19 -118)" cx="9.63" cy="58.97" r="35" fx="9.63" fy="58.97">
    <stop offset="0" stop-opacity="1" stop-color="#FEB348"/>
    <stop offset="0.4" stop-opacity="1" stop-color="#E81E57"/>
    <stop offset="0.639216" stop-opacity="1" stop-color="#B22BBA"/>
    <stop offset="1" stop-opacity="1" stop-color="#9632C5"/>
    <stop offset="1" stop-opacity="1" stop-color="#7A39CF"/>
   </radialGradient>
 </defs>
 <g id="Слой_x0020_1">
  <metadata id="CorelCorpID_0Corel-Layer"/>
  <path fill="url(#id0)" d="M34.83 0.17c19.33,0 35,15.67 35,35 0,19.33 -15.67,35 -35,35 -19.33,0 -35,-15.67 -35,-35 0,-19.33 15.67,-35 35,-35z"/>
  <path fill="#F1F2F2" d="M38.83 41.92c-0.41,0.33 -1.53,0.75 -2.21,0.9 -4.18,0.96 -8.27,-1.59 -9.36,-5.65 -0.23,-0.86 -0.31,-1.88 -0.21,-2.82 0.06,-0.52 0.38,-2.12 0.65,-2.33 0.32,-1.07 1.46,-2.28 2.05,-2.8l1.4 -0.96c5.27,-2.97 12.35,1.41 11.48,7.96 -0.31,2.3 -1.91,4.79 -3.8,5.7zm-12.49 -17.39l-0.08 0.1c0,0.01 -0.02,0.02 -0.03,0.03l-0.81 0.73c-1.04,0.98 -2.37,2.99 -2.43,3.04 -0.05,0.34 -1.08,1.96 -1.45,4 -0.03,0.21 -0.06,0.5 -0.2,0.65 0.08,0.2 -0.08,1.62 -0.08,2.02 -0.01,3.26 1.05,4.98 1.08,5.49 0.16,0.19 0.79,1.59 1.52,2.56 1.72,2.28 4.08,4.14 6.87,4.97l0.4 0.18c0.34,-0.01 0.84,0.17 1.21,0.23 0.46,0.08 0.87,0.14 1.31,0.18 0.93,0.1 2.06,-0.08 2.83,0 0.3,-0.2 1.39,-0.27 1.81,-0.38 2.46,-0.67 4.3,-2.01 4.49,-2.05 0.15,-0.22 1.72,-1.35 2.77,-2.72 0.23,-0.29 0.54,-0.81 0.77,-1.04 0.21,-0.47 0.51,-0.85 0.77,-1.41 0.24,-0.53 0.45,-1.02 0.63,-1.53 0.4,-1.15 0.64,-2.39 0.71,-3.7 0.29,-8.3 -6.21,-14.67 -14.48,-14.27 -1.53,0.05 -2.98,0.48 -4.25,0.99 -0.91,0.35 -1.78,0.86 -2.59,1.4 -0.28,0.2 -0.47,0.39 -0.77,0.53zm-10.33 -3.75c0.11,-1.14 0.5,-1.99 1.03,-2.65 0.3,-0.38 1.36,-1.43 2.15,-1.49 0.61,-0.55 6.05,-0.33 7.33,-0.33l22.91 0c1.65,0.4 2.37,0.78 3.18,1.74 0.8,0.96 1.11,1.99 1.11,3.61 0,3.96 0.12,28.06 -0.11,28.53 -0.28,1.81 -2.08,3.64 -4.06,3.79l-0.12 0.01c-0.36,0.15 -14.86,0.06 -16.61,0.06 -2.77,-0.01 -5.55,-0.01 -8.33,-0.01 -3.1,0 -5.1,0.39 -7.01,-1.35 -1.81,-1.64 -1.49,-3.9 -1.49,-6.81 -0.01,-2.8 -0.01,-5.6 -0.01,-8.4 0,-1.2 -0.06,-15.91 0.03,-16.7zm0.47 -9.3c-1.3,0.68 -2.16,1.19 -3.11,2.14 -0.43,0.43 -0.84,0.93 -1.21,1.44 -0.25,0.34 -0.81,1.45 -0.99,1.62 -0.04,0.3 -0.48,1.38 -0.6,1.82 -0.18,0.62 -0.28,1.45 -0.31,2.15 -0.09,2.52 0,5.19 0,7.73 0,2.62 0,5.23 0.01,7.84l-0.01 11.69c0,0.65 -0.03,1.33 0.01,1.97 0.02,0.5 0.22,1.37 0.19,1.75 0.13,0.15 0.44,1.38 0.82,2.15 0.14,0.28 1.06,1.82 1.07,1.84 0.42,0.29 1.69,2.3 4.43,3.36l0.38 0.22c0.33,-0.02 1.17,0.3 1.6,0.39 1.55,0.29 4.28,0.18 5.94,0.18 2.73,-0.01 5.46,-0.01 8.19,-0.01 5.43,0 10.95,0.11 16.37,0.01 2.29,-0.06 4.57,-0.92 6.27,-2.32 0.27,-0.23 0.43,-0.43 0.69,-0.56 0.41,-0.72 2.97,-2.59 3.22,-7.06l0.01 -29.22c-0.23,-5.4 -4.62,-9.8 -10.04,-10.03 -5.59,-0.13 -11.33,-0.01 -16.94,-0.01 -2.82,0 -5.64,0 -8.47,0 -3,0 -4.96,-0.2 -7.52,0.91z"/>
 </g>
</svg>
