<?xml version="1.0" encoding="UTF-8"?>
<!DOCTYPE svg PUBLIC "-//W3C//DTD SVG 1.0//EN" "http://www.w3.org/TR/2001/REC-SVG-20010904/DTD/svg10.dtd">
<!-- Creator: CorelDRAW 2021 (64-Bit) -->
<svg xmlns="http://www.w3.org/2000/svg" xml:space="preserve" width="70px" height="70px" version="1.0" shape-rendering="geometricPrecision" text-rendering="geometricPrecision" image-rendering="optimizeQuality" fill-rule="evenodd" clip-rule="evenodd"
viewBox="0 0 70 70"
 xmlns:xlink="http://www.w3.org/1999/xlink"
 xmlns:xodm="http://www.corel.com/coreldraw/odm/2003">
 <defs>
    <linearGradient id="id0" gradientUnits="userSpaceOnUse" x1="1.33" y1="24.94" x2="68.38" y2="45.08">
     <stop offset="0" stop-opacity="1" stop-color="#B8E9F8"/>
     <stop offset="0.478431" stop-opacity="1" stop-color="#5CC0E2"/>
     <stop offset="1" stop-opacity="1" stop-color="#0097CC"/>
    </linearGradient>
 </defs>
 <g id="Слой_x0020_1">
  <metadata id="CorelCorpID_0Corel-Layer"/>
  <g id="_2682612573552">
   <path fill="url(#id0)" d="M-0.14 35.01c0,19.33 15.67,35 35,35 19.33,0 35,-15.67 35,-35 0,-19.33 -15.67,-35 -35,-35 -19.33,0 -35,15.67 -35,35z"/>
   <g>
    <path fill="#F1FAFE" d="M14.09 33.42c-1.19,0.88 -1.02,1.77 0.33,2.3 0.61,0.24 2.45,0.78 3.21,1.02l6.47 2c0.18,-0.06 5.55,-3.48 5.73,-3.59l5.71 -3.61c3.31,-2.12 6.68,-4.18 9.99,-6.3 0.32,-0.21 1.3,-0.78 1.67,-0.28 0.05,0.34 -0.25,0.51 -0.4,0.67l-1.12 1.01c-0.13,0.13 -0.18,0.16 -0.3,0.26 -0.1,0.09 -0.16,0.17 -0.26,0.25 -0.67,0.56 -1.61,1.49 -2.25,2.03 -0.12,0.1 -0.16,0.14 -0.29,0.26 -0.09,0.09 -0.18,0.14 -0.28,0.24l-1.67 1.53c-0.63,0.53 -1.42,1.31 -1.98,1.78 -0.64,0.52 -1.62,1.51 -2.25,2.02 -0.62,0.51 -1.6,1.5 -2.25,2.03 -0.11,0.09 -0.15,0.14 -0.26,0.25 -0.11,0.1 -0.2,0.16 -0.3,0.26l-3.91 3.53c-0.09,0.08 -0.26,0.14 -0.24,0.29 0.17,0.07 0.54,0.39 0.73,0.52 0.24,0.18 0.47,0.34 0.72,0.53 1.05,0.83 2.49,1.81 3.6,2.67l0.75 0.55 8.17 6.04c0.9,0.69 2.07,1.7 3.31,1.29 1.16,-0.38 1.38,-2.06 1.59,-3.13 0.26,-1.3 0.55,-2.63 0.83,-3.92 0.29,-1.31 0.57,-2.62 0.84,-3.92 0.13,-0.66 0.28,-1.3 0.41,-1.95 0.13,-0.64 0.26,-1.34 0.41,-1.95 0.1,-0.66 0.3,-1.41 0.44,-2.06l1.28 -6.06c0.58,-2.68 1.15,-5.38 1.71,-8.05 0.15,-0.73 0.31,-1.46 0.04,-2.19 -0.21,-0.56 -0.63,-1.02 -1.29,-1.15 -0.73,-0.14 -1.37,0.21 -1.95,0.43 -0.59,0.23 -1.16,0.45 -1.75,0.68 -2.37,0.9 -4.69,1.83 -7.05,2.72 -2.36,0.89 -4.7,1.84 -7.07,2.73 -5.85,2.19 -11.8,4.58 -17.66,6.81 -0.59,0.22 -1.17,0.45 -1.75,0.68 -0.3,0.11 -0.58,0.22 -0.87,0.35 -0.41,0.18 -0.49,0.27 -0.79,0.43z"/>
    <path fill="#C2DBEC" d="M24.1 38.74c0.65,2 1.29,4.28 1.92,6.34 0.33,1.05 0.63,2.11 0.97,3.16 0.16,0.53 0.33,1.05 0.48,1.58 0.07,0.24 0.16,0.58 0.27,0.76 0.13,0.21 0.38,0.39 0.72,0.35l0.3 -0.02c0.16,-1.57 0.22,-3.22 0.32,-4.79l0.24 -3.58c0.01,-0.15 0.03,-1.06 0.12,-1.17 -0.02,-0.15 0.15,-0.21 0.24,-0.29l3.91 -3.53c0.1,-0.1 0.19,-0.16 0.3,-0.26 0.11,-0.11 0.15,-0.16 0.26,-0.25 0.65,-0.53 1.63,-1.52 2.25,-2.03 0.63,-0.51 1.61,-1.5 2.25,-2.02 0.56,-0.47 1.35,-1.25 1.98,-1.78l1.67 -1.53c0.1,-0.1 0.19,-0.15 0.28,-0.24 0.13,-0.12 0.17,-0.16 0.29,-0.26 0.64,-0.54 1.58,-1.47 2.25,-2.03 0.1,-0.08 0.16,-0.16 0.26,-0.25 0.12,-0.1 0.17,-0.13 0.3,-0.26l1.12 -1.01c0.15,-0.16 0.45,-0.33 0.4,-0.67 -0.37,-0.5 -1.35,0.07 -1.67,0.28 -3.31,2.12 -6.68,4.18 -9.99,6.3l-5.71 3.61c-0.18,0.11 -5.55,3.53 -5.73,3.59z"/>
    <path fill="#9BCBDF" d="M28.46 50.93c0.23,0.16 1.02,-0.05 1.25,-0.16 0.35,-0.18 0.97,-0.73 1.23,-1.02 0.33,-0.36 0.81,-0.8 1.18,-1.14 0.13,-0.13 0.23,-0.26 0.36,-0.38 0.28,-0.26 0.99,-0.91 1.16,-1.12 0.29,-0.35 1.15,-1.05 1.35,-1.3 0.11,-0.13 0.09,-0.16 0.25,-0.17l-0.75 -0.55c-1.11,-0.86 -2.55,-1.84 -3.6,-2.67 -0.25,-0.19 -0.48,-0.35 -0.72,-0.53 -0.19,-0.13 -0.56,-0.45 -0.73,-0.52 -0.09,0.11 -0.11,1.02 -0.12,1.17l-0.24 3.58c-0.1,1.57 -0.16,3.22 -0.32,4.79l-0.3 0.02z"/>
   </g>
  </g>
 </g>
</svg>
