<?xml version="1.0" encoding="UTF-8"?>
<!DOCTYPE svg PUBLIC "-//W3C//DTD SVG 1.0//EN" "http://www.w3.org/TR/2001/REC-SVG-20010904/DTD/svg10.dtd">
<!-- Creator: CorelDRAW 2021 (64-Bit) -->
<svg xmlns="http://www.w3.org/2000/svg" xml:space="preserve" width="70px" height="70px" version="1.0" shape-rendering="geometricPrecision" text-rendering="geometricPrecision" image-rendering="optimizeQuality" fill-rule="evenodd" clip-rule="evenodd"
viewBox="0 0 70 70"
 xmlns:xlink="http://www.w3.org/1999/xlink"
 xmlns:xodm="http://www.corel.com/coreldraw/odm/2003">
 <defs>
    <linearGradient id="id0" gradientUnits="userSpaceOnUse" x1="4.54" y1="17.51" x2="65.17" y2="52.51">
     <stop offset="0" stop-opacity="1" stop-color="#95C691"/>
     <stop offset="0.25098" stop-opacity="1" stop-color="#95C691"/>
     <stop offset="1" stop-opacity="1" stop-color="#008233"/>
    </linearGradient>
 </defs>
 <g id="Слой_x0020_1">
  <metadata id="CorelCorpID_0Corel-Layer"/>
  <g id="_2682612558240">
   <path fill="url(#id0)" d="M-0.14 35.01c0,19.33 15.67,35 35,35 19.33,0 35,-15.67 35,-35 0,-19.33 -15.67,-35 -35,-35 -19.33,0 -35,15.67 -35,35z"/>
   <path fill="white" d="M45.15 38.28c0.54,0.27 0.91,0.41 1.04,0.63 0.14,0.23 0.14,1.33 -0.32,2.6 -0.45,1.28 -2.63,2.44 -3.68,2.6 -0.94,0.14 -2.13,0.2 -3.44,-0.22 -0.79,-0.25 -1.81,-0.59 -3.11,-1.15 -5.48,-2.36 -9.06,-7.88 -9.33,-8.24 -0.27,-0.37 -2.23,-2.96 -2.23,-5.65 0,-2.69 1.41,-4.01 1.91,-4.55 0.5,-0.55 1.09,-0.69 1.46,-0.69 0.36,0 0.73,0.01 1.04,0.02 0.34,0.02 0.79,-0.13 1.23,0.94 0.46,1.09 1.55,3.78 1.69,4.05 0.13,0.28 0.22,0.6 0.04,0.96 -0.18,0.36 -0.27,0.59 -0.54,0.91 -0.28,0.32 -0.58,0.71 -0.82,0.96 -0.28,0.27 -0.56,0.56 -0.24,1.11 0.31,0.55 1.41,2.34 3.03,3.78 2.09,1.86 3.85,2.44 4.39,2.71 0.55,0.27 0.87,0.23 1.19,-0.14 0.32,-0.36 1.36,-1.59 1.73,-2.13 0.36,-0.55 0.72,-0.46 1.23,-0.28 0.5,0.18 3.18,1.5 3.73,1.78zm-9.97 13.6l0 0c-3.26,0 -6.46,-0.88 -9.25,-2.53l-0.66 -0.4 -6.88 1.81 1.84 -6.71 -0.43 -0.68c-1.82,-2.89 -2.78,-6.23 -2.78,-9.67 0,-10.01 8.15,-18.15 18.17,-18.15 4.85,0 9.41,1.89 12.84,5.32 3.43,3.43 5.32,8 5.32,12.85 -0.01,10.01 -8.15,18.16 -18.17,18.16zm15.46 -33.62c-4.12,-4.13 -9.61,-6.4 -15.46,-6.4 -12.04,0 -21.85,9.8 -21.85,21.84 0,3.85 1,7.61 2.92,10.92l-3.1 11.33 11.58 -3.04c3.19,1.74 6.79,2.65 10.44,2.66l0.01 0c12.05,0 21.85,-9.8 21.86,-21.85 0,-5.84 -2.27,-11.33 -6.4,-15.46z"/>
  </g>
 </g>
</svg>
