<?xml version="1.0" standalone="no"?>
<!DOCTYPE svg PUBLIC "-//W3C//DTD SVG 1.1//EN" "http://www.w3.org/Graphics/SVG/1.1/DTD/svg11.dtd" >
<svg>
<metadata>
Created by FontForge 20090914 at Wed Apr 14 10:18:03 2021
 By www-data
Copyright &#194;&#169; 2019, ParaType Ltd. All rights reserved.
</metadata>
<defs>
<font id="GolosText-Black" horiz-adv-x="600" >
  <font-face 
    font-family="Golos Text Black"
    font-weight="900"
    font-stretch="normal"
    units-per-em="1000"
    panose-1="2 11 9 3 2 2 2 2 2 4"
    ascent="774"
    descent="-226"
    x-height="529.997"
    cap-height="700"
    bbox="-1065 -215 1230 960"
    underline-thickness="50"
    underline-position="-50"
    unicode-range="U+000D-U+FEFF"
  />
<missing-glyph horiz-adv-x="500" 
d="M50 0v516h400v-516h-400zM100 50h300v416h-300v-416z" />
    <glyph glyph-name=".notdef" horiz-adv-x="500" 
d="M50 0v516h400v-516h-400zM100 50h300v416h-300v-416z" />
    <glyph glyph-name="uni0000" horiz-adv-x="0" 
 />
    <glyph glyph-name="uni0000" horiz-adv-x="0" 
 />
    <glyph glyph-name="uni000D" unicode="&#xd;" horiz-adv-x="200" 
 />
    <glyph glyph-name="space" unicode=" " horiz-adv-x="200" 
 />
    <glyph glyph-name="exclam" unicode="!" horiz-adv-x="340" 
d="M60 700h220v-450h-220v450zM170 -15c-16.667 0 -32.334 3.16699 -47.001 9.5s-27.334 14.833 -38.001 25.5s-19.167 23.334 -25.5 38.001s-9.5 30.334 -9.5 47.001c0 17.333 3.16699 33.333 9.5 48s14.833 27.334 25.5 38.001s23.334 19 38.001 25s30.334 9 47.001 9
s32.334 -3 47.001 -9s27.334 -14.333 38.001 -25s19.167 -23.334 25.5 -38.001s9.5 -30.667 9.5 -48c0 -16.667 -3.16699 -32.334 -9.5 -47.001s-14.833 -27.334 -25.5 -38.001s-23.334 -19.167 -38.001 -25.5s-30.334 -9.5 -47.001 -9.5z" />
    <glyph glyph-name="quotedbl" unicode="&#x22;" horiz-adv-x="520" 
d="M40 700h180v-300h-180v300zM280 700h180v-300h-180v300z" />
    <glyph glyph-name="numbersign" unicode="#" horiz-adv-x="680" 
d="M77 145h-62v160h91l17 90h-69v160h99l27 145h180l-27 -145h90l27 145h180l-27 -145h62v-160h-92l-17 -90h70v-160h-99l-27 -145h-180l27 145h-90l-27 -145h-180zM376 305l17 90h-90l-17 -90h90z" />
    <glyph glyph-name="dollar" unicode="$" horiz-adv-x="670" 
d="M233 -7c-67.333 10.667 -119.333 33.5 -156 68.5s-59 84.5 -67 148.5h264c2 -14 7.33301 -24.333 16 -31s23.667 -10 45 -10c23.333 0 39.333 2.5 48 7.5s13 12.833 13 23.5c0 6 -1.66699 11 -5 15s-9.83301 8 -19.5 12s-23.334 8.16699 -41.001 12.5
s-41.167 9.5 -70.5 15.5c-33.333 6.66699 -64 15.5 -92 26.5s-52.333 25.5 -73 43.5s-36.667 40.167 -48 66.5s-17 57.5 -17 93.5c0 62 18.333 111.333 55 148s86 61 148 73v94h204v-94c62.667 -12.667 111 -36.834 145 -72.501s55 -80.167 63 -133.5h-264
c-1.33301 9.33301 -5.5 16.833 -12.5 22.5s-18.167 8.5 -33.5 8.5c-27.333 0 -41 -10.333 -41 -31c0 -6 1.83301 -11.333 5.5 -16s9.83398 -8.83398 18.501 -12.501s20.5 -7.16699 35.5 -10.5s33.833 -7 56.5 -11c29.333 -5.33301 58.833 -12.5 88.5 -21.5
s56.5 -21.833 80.5 -38.5s43.5 -38.167 58.5 -64.5s22.5 -59.5 22.5 -99.5c0 -67.333 -20 -120.166 -60 -158.499s-94.333 -63.166 -163 -74.499v-113h-204v113z" />
    <glyph glyph-name="percent" unicode="%" horiz-adv-x="850" 
d="M565 700h200l-480 -700h-200zM195 365c-59.333 0 -105 15.333 -137 46s-48 72 -48 124v10c0 52 16 93.333 48 124s77.667 46 137 46s105 -15.333 137 -46s48 -72 48 -124v-10c0 -52 -16 -93.333 -48 -124s-77.667 -46 -137 -46zM195 495c7.33301 0 13.333 2.83301 18 8.5
s7 16.167 7 31.5v10c0 15.333 -2.33301 25.833 -7 31.5s-10.667 8.5 -18 8.5s-13.333 -2.83301 -18 -8.5s-7 -16.167 -7 -31.5v-10c0 -15.333 2.33301 -25.833 7 -31.5s10.667 -8.5 18 -8.5zM655 -14c-59.333 0 -105 15.333 -137 46s-48 72 -48 124v10
c0 52 16 93.333 48 124s77.667 46 137 46s105 -15.333 137 -46s48 -72 48 -124v-10c0 -52 -16 -93.333 -48 -124s-77.667 -46 -137 -46zM655 116c7.33301 0 13.333 2.83301 18 8.5s7 16.167 7 31.5v10c0 15.333 -2.33301 25.833 -7 31.5s-10.667 8.5 -18 8.5
s-13.333 -2.83301 -18 -8.5s-7 -16.167 -7 -31.5v-10c0 -15.333 2.33301 -25.833 7 -31.5s10.667 -8.5 18 -8.5z" />
    <glyph glyph-name="ampersand" unicode="&#x26;" horiz-adv-x="722" 
d="M295 -15c-51.333 0 -94.5029 5.33398 -129.503 16.001s-63.333 25.167 -85 43.5s-37.167 40 -46.5 65s-14 51.833 -14 80.5c0 18 2 34.833 6 50.5s10.667 31.334 20 47.001s21.833 31.667 37.5 48s35.5 33.833 59.5 52.5c-14 16 -25.5 30.667 -34.5 44s-16 26 -21 38
s-8.33301 24 -10 36s-2.5 25 -2.5 39c0 24 4.5 46.5 13.5 67.5s22.333 39 40 54s39.667 26.833 66 35.5s56.5 13 90.5 13c68.667 0 120.834 -14.667 156.501 -44s53.5 -69.666 53.5 -120.999c0 -16.667 -1.33301 -32.334 -4 -47.001s-7.66699 -29.334 -15 -44.001
s-17.666 -30 -30.999 -46s-31 -33.667 -53 -53l44 -49c2 14 3 28.667 3 44h216c0 -43.333 -5.16699 -83 -15.5 -119s-25.166 -69 -44.499 -99l125 -137h-214l-29 30c-28 -14.667 -57.5 -25.834 -88.5 -33.501s-62.167 -11.5 -93.5 -11.5zM294.997 163.001
c17.333 0 34 3 50 9l-77 82c-10.667 -11.333 -17 -20.833 -19 -28.5s-3 -16.167 -3 -25.5c0 -7.33301 3.66699 -15.333 11 -24s20 -13 38 -13zM260.997 535.001c0 -7.33301 0.830078 -14.168 2.49707 -20.501s6.83398 -15.5 15.501 -27.5c14 12 22.5 21.333 25.5 28
s4.5 13.334 4.5 20.001c0 6 -2.16699 11.167 -6.5 15.5s-10.166 6.5 -17.499 6.5s-13.166 -2.16699 -17.499 -6.5s-6.5 -9.5 -6.5 -15.5z" />
    <glyph glyph-name="quotesingle" unicode="'" horiz-adv-x="280" 
d="M40 700h180v-300h-180v300z" />
    <glyph glyph-name="parenleft" unicode="(" horiz-adv-x="380" 
d="M40 260c0 72.667 7.83203 136.334 23.499 191.001s33.167 100.667 52.5 138c22 43.333 47.333 80.333 76 111h208c-32.667 -30.667 -61.667 -67.667 -87 -111c-22 -37.333 -42 -83.333 -60 -138s-27 -118.334 -27 -191.001v-20c0 -72.667 9 -136.334 27 -191.001
s38 -100.667 60 -138c25.333 -43.333 54.333 -80.333 87 -111h-209c-28.667 30.667 -54 67.667 -76 111c-19.333 37.333 -36.666 83.333 -51.999 138s-23 118.334 -23 191.001v20z" />
    <glyph glyph-name="parenright" unicode=")" horiz-adv-x="380" 
d="M340.005 240.031c0 -72.6572 -7.83105 -136.316 -23.4961 -190.977c-15.665 -54.6592 -33.1631 -100.653 -52.4941 -137.982c-21.9971 -43.3281 -47.3271 -80.3232 -75.9902 -110.986h-207.975c32.6631 30.6631 61.6592 67.6582 86.9893 110.986
c21.9971 37.3291 41.9951 83.3232 59.9932 137.982c17.9971 54.6602 26.9961 118.319 26.9961 190.977v19.998c0 72.6572 -8.99902 136.316 -26.9961 190.977c-17.998 54.6602 -37.9961 100.654 -59.9932 137.983c-25.3301 43.3281 -54.3262 80.3232 -86.9893 110.986
h208.975c28.6631 -30.6631 53.9932 -67.6582 75.9902 -110.986c19.3311 -37.3291 36.6621 -83.3232 51.9932 -137.983s22.9971 -118.319 22.9971 -190.977v-19.998z" />
    <glyph glyph-name="asterisk" unicode="*" horiz-adv-x="450" 
d="M180 445l-78 -66l-67 116l101 30l-101 30l67 116l78 -66l-14 95h118l-14 -95l79 66l66 -116l-101 -30l101 -30l-67 -116l-78 66l14 -95h-118z" />
    <glyph glyph-name="plus" unicode="+" 
d="M185 254h-160v212h160v169h230v-169h160v-212h-160v-169h-230v169z" />
    <glyph glyph-name="comma" unicode="," horiz-adv-x="340" 
d="M65 0v200h210v-200l-140 -175h-110z" />
    <glyph glyph-name="hyphen" unicode="-" horiz-adv-x="380" 
d="M20 386h340v-212h-340v212z" />
    <glyph glyph-name="period" unicode="." horiz-adv-x="340" 
d="M170 -15c-16.667 0 -32.334 3.16699 -47.001 9.5s-27.334 14.833 -38.001 25.5s-19.167 23.334 -25.5 38.001s-9.5 30.334 -9.5 47.001c0 17.333 3.16699 33.333 9.5 48s14.833 27.334 25.5 38.001s23.334 19 38.001 25s30.334 9 47.001 9s32.334 -3 47.001 -9
s27.334 -14.333 38.001 -25s19.167 -23.334 25.5 -38.001s9.5 -30.667 9.5 -48c0 -16.667 -3.16699 -32.334 -9.5 -47.001s-14.833 -27.334 -25.5 -38.001s-23.334 -19.167 -38.001 -25.5s-30.334 -9.5 -47.001 -9.5z" />
    <glyph glyph-name="slash" unicode="/" horiz-adv-x="500" 
d="M320 700h180l-320 -900h-180z" />
    <glyph glyph-name="zero" unicode="0" horiz-adv-x="670" 
d="M335 -15c-40.667 0 -79.334 6 -116.001 18s-69 32.167 -97 60.5s-50.333 65.833 -67 112.5s-25 104.667 -25 174v20c0 64.667 8.33301 119 25 163s39 79.5 67 106.5s60.333 46.333 97 58s75.334 17.5 116.001 17.5s79.334 -5.83301 116.001 -17.5s69 -31 97 -58
s50.333 -62.5 67 -106.5s25 -98.333 25 -163v-20c0 -69.333 -8.33301 -127.333 -25 -174s-39 -84.167 -67 -112.5s-60.333 -48.5 -97 -60.5s-75.334 -18 -116.001 -18zM335 197c7.33301 0 13.5 2 18.5 6s9.16699 11.667 12.5 23s5.83301 26.833 7.5 46.5s2.5 45.5 2.5 77.5
v20c0 26.667 -0.833008 48.667 -2.5 66s-4.16699 31 -7.5 41s-7.5 16.833 -12.5 20.5s-11.167 5.5 -18.5 5.5s-13.5 -1.83301 -18.5 -5.5s-9.16699 -10.5 -12.5 -20.5s-5.83301 -23.667 -7.5 -41s-2.5 -39.333 -2.5 -66v-20c0 -32 0.833008 -57.833 2.5 -77.5
s4.16699 -35.167 7.5 -46.5s7.5 -19 12.5 -23s11.167 -6 18.5 -6z" />
    <glyph glyph-name="one" unicode="1" horiz-adv-x="540" 
d="M30 212h133v233l-133 -95v239l156 111h241v-488h103v-212h-500v212z" />
    <glyph glyph-name="two" unicode="2" horiz-adv-x="630" 
d="M15 150l209 170.001c28 22.667 50.5 41.834 67.5 57.501s29.833 28.667 38.5 39s14.334 19.166 17.001 26.499s4 14.666 4 21.999c0 25.333 -12 38 -36 38c-15.333 0 -26.833 -5.16699 -34.5 -15.5s-11.5 -31.166 -11.5 -62.499h-244c0 96.667 23.5 169.167 70.5 217.5
s120.167 72.5 219.5 72.5c49.333 0 91.666 -5.5 126.999 -16.5s64.333 -26.5 87 -46.5s39.334 -43.833 50.001 -71.5s16 -57.834 16 -90.501c0 -24 -3.83301 -46.333 -11.5 -67s-19 -41 -34 -61s-33.833 -40.167 -56.5 -60.5s-49.334 -41.833 -80.001 -64.5l-33 -25h225
v-212h-590v150z" />
    <glyph glyph-name="three" unicode="3" horiz-adv-x="650" 
d="M320 -15c-54 0 -100.001 7.33496 -138.001 22.002s-69 35.167 -93 61.5s-41.5 57.5 -52.5 93.5s-16.5 75.333 -16.5 118h224c0 -14.667 1.16699 -28.167 3.5 -40.5s6.33301 -23 12 -32s13.334 -16 23.001 -21s22.167 -7.5 37.5 -7.5c16 0 29.333 3.83301 40 11.5
s16 19.5 16 35.5c0 17.333 -5 29.666 -15 36.999s-25.333 11 -46 11h-40v162h40c11.333 0 21 3.5 29 10.5s12 17.5 12 31.5s-3.66699 24.667 -11 32s-17.333 11 -30 11c-20 0 -35.167 -7.33301 -45.5 -22s-15.5 -41 -15.5 -79h-224c0 98.667 23.5 172.5 70.5 221.5
s120.167 73.5 219.5 73.5c96 0 168.333 -17.833 217 -53.5s73 -86.5 73 -152.5c0 -36 -9.66699 -67 -29 -93s-46 -44.667 -80 -56c43.333 -10 74 -28.333 92 -55s27 -58.334 27 -95.001s-6.83301 -69 -20.5 -97s-33.5 -51.5 -59.5 -70.5s-57.5 -33.333 -94.5 -43
s-78.833 -14.5 -125.5 -14.5z" />
    <glyph glyph-name="four" unicode="4" horiz-adv-x="645" 
d="M290 99h-280v182l270 419h274v-389h66v-212h-66v-99h-264v99zM290 311v136l-88 -136h88z" />
    <glyph glyph-name="five" unicode="5" horiz-adv-x="650" 
d="M336 -15c-58 0 -106.166 6.66602 -144.499 19.999s-69.166 31.333 -92.499 54s-39.833 49.167 -49.5 79.5s-14.5 62.5 -14.5 96.5h244c0.666992 -20.667 4.66699 -35.5 12 -44.5s17.666 -13.5 30.999 -13.5c14 0 24 5 30 15s9 27 9 51c0 22.667 -4 38.334 -12 47.001
s-18.333 13 -31 13c-22.667 0 -37.334 -9.33301 -44.001 -28h-224v425h536v-212h-312v-61c11.333 9.33301 27.5 18 48.5 26s47.5 12 79.5 12s61.667 -3.5 89 -10.5s51 -19 71 -36s35.5 -39.5 46.5 -67.5s16.5 -62.667 16.5 -104c0 -40 -6.33301 -76.167 -19 -108.5
s-31.167 -59.833 -55.5 -82.5s-54.5 -40.167 -90.5 -52.5s-77.333 -18.5 -124 -18.5z" />
    <glyph glyph-name="six" unicode="6" horiz-adv-x="665" 
d="M347 -15c-52 0 -97.667 6.5 -137 19.5s-72.333 33.333 -99 61s-46.834 63.334 -60.501 107.001s-20.5 96.167 -20.5 157.5v20c0 64.667 7.33301 120.167 22 166.5s35.834 84.166 63.501 113.499s61.667 50.833 102 64.5s86.166 20.5 137.499 20.5
c39.333 0 75.166 -3.5 107.499 -10.5s60 -19.167 83 -36.5s41.333 -40.5 55 -69.5s21.834 -65.167 24.501 -108.5h-224c-3.33301 10 -8.5 18 -15.5 24s-18.833 9 -35.5 9c-10 0 -19 -1.66699 -27 -5s-14.5 -9 -19.5 -17s-8.83301 -19 -11.5 -33s-4 -31.667 -4 -53
c12.667 15.333 30.834 27.5 54.501 36.5s54.167 13.5 91.5 13.5c34.667 0 65 -5.83301 91 -17.5s47.5 -27.5 64.5 -47.5s29.667 -43.333 38 -70s12.5 -55 12.5 -85v-10c0 -77.333 -25.333 -138.333 -76 -183s-123 -67 -217 -67zM335 177c15.333 0 26 5.66699 32 17
s9 25 9 41v10c0 16 -3 29.667 -9 41s-16.667 17 -32 17s-26 -5.66699 -32 -17s-9 -25 -9 -41v-10c0 -16 3 -29.667 9 -41s16.667 -17 32 -17z" />
    <glyph glyph-name="seven" unicode="7" horiz-adv-x="550" 
d="M260 488h-250v212h520v-182l-170 -518h-280z" />
    <glyph glyph-name="eight" unicode="8" horiz-adv-x="670" 
d="M335 -15c-44 0 -84.832 4.5 -122.499 13.5s-70.5 22.667 -98.5 41s-49.833 41.166 -65.5 68.499s-23.5 59.333 -23.5 96c0 18.667 2.66699 36.5 8 53.5s13.333 32.667 24 47s24 26.666 40 36.999s34.667 18.166 56 23.499c-34 11.333 -60.5 29.833 -79.5 55.5
s-28.5 56.5 -28.5 92.5c0 32 6.66699 60.5 20 85.5s32.5 46.167 57.5 63.5s55.333 30.5 91 39.5s76.167 13.5 121.5 13.5s85.833 -4.5 121.5 -13.5s66 -22.167 91 -39.5s44.167 -38.5 57.5 -63.5s20 -53.5 20 -85.5c0 -36 -9.66699 -66.833 -29 -92.5s-46 -44.167 -80 -55.5
c21.333 -5.33301 40.166 -13.166 56.499 -23.499s29.833 -22.666 40.5 -36.999s18.667 -30 24 -47s8 -34.833 8 -53.5c0 -36.667 -7.83301 -68.667 -23.5 -96s-37.5 -50.166 -65.5 -68.499s-60.833 -32 -98.5 -41s-78.5 -13.5 -122.5 -13.5zM335.001 179
c19.333 0 35.5 4 48.5 12s19.5 21.333 19.5 40s-6.5 32.334 -19.5 41.001s-29.167 13 -48.5 13s-35.5 -4.33301 -48.5 -13s-19.5 -22.334 -19.5 -41.001s6.5 -32 19.5 -40s29.167 -12 48.5 -12zM335.001 435c13.333 0 24.667 3.83301 34 11.5s14 18.5 14 32.5
s-4.5 24.5 -13.5 31.5s-20.5 10.5 -34.5 10.5s-25.5 -3.5 -34.5 -10.5s-13.5 -17.5 -13.5 -31.5s4.5 -24.833 13.5 -32.5s20.5 -11.5 34.5 -11.5z" />
    <glyph glyph-name="nine" unicode="9" horiz-adv-x="665" 
d="M315 -15c-40.667 0 -77.4971 3.50098 -110.497 10.501s-61.167 19.167 -84.5 36.5s-41.833 40.5 -55.5 69.5s-21.834 65.167 -24.501 108.5h224c3.33301 -10 8.66602 -18 15.999 -24s20.666 -9 39.999 -9c8.66699 0 16.667 1.66699 24 5s13.333 9 18 17
s8.33398 19 11.001 33s4 31.667 4 53c-12.667 -15.333 -30.834 -27.5 -54.501 -36.5s-54.167 -13.5 -91.5 -13.5c-35.333 0 -65.833 5.83301 -91.5 17.5s-47 27.5 -64 47.5s-29.667 43.333 -38 70s-12.5 55 -12.5 85v10c0 77.333 25.333 138.333 76 183s123 67 217 67
c52 0 97.667 -6.5 137 -19.5s72.333 -33.333 99 -61s46.834 -63.334 60.501 -107.001s20.5 -96.167 20.5 -157.5v-20c0 -65.333 -7.16699 -121 -21.5 -167s-35.333 -83.667 -63 -113s-61.334 -50.833 -101.001 -64.5s-84.5 -20.5 -134.5 -20.5zM330.003 397.001
c15.333 0 26 5.5 32 16.5s9 24.833 9 41.5v10c0 16 -3 29.667 -9 41s-16.667 17 -32 17s-26 -5.66699 -32 -17s-9 -25 -9 -41v-10c0 -16 3 -29.667 9 -41s16.667 -17 32 -17z" />
    <glyph glyph-name="colon" unicode=":" horiz-adv-x="340" 
d="M170 -15c-16.667 0 -32.334 3.16699 -47.001 9.5s-27.334 14.833 -38.001 25.5s-19.167 23.334 -25.5 38.001s-9.5 30.334 -9.5 47.001c0 17.333 3.16699 33.333 9.5 48s14.833 27.334 25.5 38.001s23.334 19 38.001 25s30.334 9 47.001 9s32.334 -3 47.001 -9
s27.334 -14.333 38.001 -25s19.167 -23.334 25.5 -38.001s9.5 -30.667 9.5 -48c0 -16.667 -3.16699 -32.334 -9.5 -47.001s-14.833 -27.334 -25.5 -38.001s-23.334 -19.167 -38.001 -25.5s-30.334 -9.5 -47.001 -9.5zM170 305c-16.667 0 -32.334 3.16699 -47.001 9.5
s-27.334 14.833 -38.001 25.5s-19.167 23.334 -25.5 38.001s-9.5 30.334 -9.5 47.001c0 17.333 3.16699 33.333 9.5 48s14.833 27.334 25.5 38.001s23.334 19 38.001 25s30.334 9 47.001 9s32.334 -3 47.001 -9s27.334 -14.333 38.001 -25s19.167 -23.334 25.5 -38.001
s9.5 -30.667 9.5 -48c0 -16.667 -3.16699 -32.334 -9.5 -47.001s-14.833 -27.334 -25.5 -38.001s-23.334 -19.167 -38.001 -25.5s-30.334 -9.5 -47.001 -9.5z" />
    <glyph glyph-name="semicolon" unicode=";" horiz-adv-x="340" 
d="M65 0v200h210v-200l-140 -175h-110zM170 305c-16.667 0 -32.334 3.16699 -47.001 9.5s-27.334 14.833 -38.001 25.5s-19.167 23.334 -25.5 38.001s-9.5 30.334 -9.5 47.001c0 17.333 3.16699 33.333 9.5 48s14.833 27.334 25.5 38.001s23.334 19 38.001 25
s30.334 9 47.001 9s32.334 -3 47.001 -9s27.334 -14.333 38.001 -25s19.167 -23.334 25.5 -38.001s9.5 -30.667 9.5 -48c0 -16.667 -3.16699 -32.334 -9.5 -47.001s-14.833 -27.334 -25.5 -38.001s-23.334 -19.167 -38.001 -25.5s-30.334 -9.5 -47.001 -9.5z" />
    <glyph glyph-name="less" unicode="&#x3c;" 
d="M25 272v176l550 227v-220l-255 -92l255 -93v-225z" />
    <glyph glyph-name="equal" unicode="=" 
d="M25 326h550v-212h-550v212zM25 606h550v-212h-550v212z" />
    <glyph glyph-name="greater" unicode="&#x3e;" 
d="M575 448v-176l-550 -227v220l255 92l-255 93v225z" />
    <glyph glyph-name="question" unicode="?" horiz-adv-x="560" 
d="M170 300c0 15.333 2.99609 29.833 8.99609 43.5s13.833 26.334 23.5 38.001s20.167 22.334 31.5 32.001s22.333 18.5 33 26.5c13.333 9.33301 24.5 18.666 33.5 27.999s13.5 20 13.5 32c0 24.667 -11.333 37 -34 37s-34 -14 -34 -42h-226
c0 30.667 5.83301 59.5 17.5 86.5s28.667 50.333 51 70s49.5 35.167 81.5 46.5s68.667 17 110 17c43.333 0 81.333 -5 114 -15s59.834 -23.833 81.501 -41.5s37.834 -38.334 48.501 -62.001s16 -49.167 16 -76.5c0 -22 -2.5 -41.833 -7.5 -59.5s-11.667 -33.5 -20 -47.5
s-17.666 -26.5 -27.999 -37.5s-20.833 -20.5 -31.5 -28.5c-17.333 -14 -32.166 -27.167 -44.499 -39.5s-18.5 -26.5 -18.5 -42.5v-15h-220v50zM279.996 -15c-16.667 0 -32.334 3.16699 -47.001 9.5s-27.334 14.833 -38.001 25.5s-19.167 23.334 -25.5 38.001
s-9.5 30.334 -9.5 47.001c0 17.333 3.16699 33.333 9.5 48s14.833 27.334 25.5 38.001s23.334 19 38.001 25s30.334 9 47.001 9s32.334 -3 47.001 -9s27.334 -14.333 38.001 -25s19.167 -23.334 25.5 -38.001s9.5 -30.667 9.5 -48c0 -16.667 -3.16699 -32.334 -9.5 -47.001
s-14.833 -27.334 -25.5 -38.001s-23.334 -19.167 -38.001 -25.5s-30.334 -9.5 -47.001 -9.5z" />
    <glyph glyph-name="at" unicode="@" horiz-adv-x="960" 
d="M511 -215c-70.667 0 -136 9.66797 -196 29.001s-111.833 48.666 -155.5 87.999s-77.834 89.166 -102.501 149.499s-37 131.166 -37 212.499c0 74.667 12.833 140.334 38.5 197.001s59.667 103.667 102 141s91.333 65.5 147 84.5s113.5 28.5 173.5 28.5
c70 0 133.167 -8 189.5 -24s104.5 -41.333 144.5 -76s70.833 -78.834 92.5 -132.501s32.5 -117.834 32.5 -192.501c0 -52.667 -6.66699 -97.5 -20 -134.5s-31.5 -67.333 -54.5 -91s-49.667 -41 -80 -52s-62.5 -16.5 -96.5 -16.5c-33.333 0 -61.166 4.66699 -83.499 14
s-39.833 28.333 -52.5 57c-11.333 -25.333 -28.333 -43.833 -51 -55.5s-49 -17.5 -79 -17.5c-60.667 0 -107.834 19.333 -141.501 58s-50.5 97.334 -50.5 176.001v60c0 78.667 15.167 135.667 45.5 171s72.166 53 125.499 53c18.667 0 34 -1.33301 46 -4
s22.167 -6.16699 30.5 -10.5s15 -9.66602 20 -15.999s9.83301 -13.5 14.5 -21.5v44h186v-273c0 -22.667 2.16699 -39.334 6.5 -50.001s14.833 -16 31.5 -16c7.33301 0 14.166 1.66699 20.499 5s12 9.5 17 18.5s8.83301 21.667 11.5 38s4 37.5 4 63.5
c0 56 -7 102.833 -21 140.5s-34.333 67.834 -61 90.501s-59.167 38.834 -97.5 48.501s-81.5 14.5 -129.5 14.5c-42 0 -81.667 -5.5 -119 -16.5s-70.166 -29 -98.499 -54s-50.666 -58 -66.999 -99s-24.5 -91.167 -24.5 -150.5c0 -62 8.83301 -115 26.5 -159
s41.834 -80 72.501 -108s66.5 -48.5 107.5 -61.5s85.167 -19.5 132.5 -19.5c44 0 84.667 5.83301 122 17.5s70.333 26.5 99 44.5v-141c-30 -15.333 -62.667 -27.833 -98 -37.5s-76.333 -14.5 -123 -14.5zM467 164.001c12.667 0 21.501 4.83301 26.501 14.5
s7.5 27.167 7.5 52.5v44c0 14.667 -0.5 26.5 -1.5 35.5s-3 15.833 -6 20.5s-6.83301 7.66699 -11.5 9s-10.334 2 -17.001 2c-14.667 0 -24.167 -4.5 -28.5 -13.5s-6.5 -26.833 -6.5 -53.5v-44c0 -24.667 2.5 -42 7.5 -52s14.833 -15 29.5 -15z" />
    <glyph glyph-name="A" unicode="A" horiz-adv-x="764" 
d="M453 94h-182l-25 -94h-244l248 700h264l248 -700h-284zM322 286h79l-39 174z" />
    <glyph glyph-name="B" unicode="B" horiz-adv-x="730" 
d="M40 700l405 -0.000976562c79.333 0 138.333 -15 177 -45s58 -77.333 58 -142c0 -36 -8.83301 -66.833 -26.5 -92.5s-42.167 -44.167 -73.5 -55.5c86.667 -20 130 -75.667 130 -167c0 -65.333 -20.667 -114.666 -62 -147.999s-109.333 -50 -204 -50h-404v700zM364 171.999
c31.333 0 52.833 4 64.5 12s17.5 22 17.5 42c0 19.333 -6 33 -18 41s-34 12 -66 12h-58v-107h60zM351 430.999c22.667 0 39.166 3.83398 49.499 11.501s15.5 20.167 15.5 37.5s-5.16699 29.666 -15.5 36.999s-26.166 11 -47.499 11h-49v-97h47z" />
    <glyph glyph-name="C" unicode="C" horiz-adv-x="725" 
d="M375 -15c-50 0 -96.6699 6.49902 -140.003 19.499s-80.833 33.833 -112.5 62.5s-56.667 65.834 -75 111.501s-27.5 101.167 -27.5 166.5v20c0 62 9.33301 115 28 159s44.167 80.167 76.5 108.5s70 49.166 113 62.499s88.833 20 137.5 20
c44 0 85.833 -5.16699 125.5 -15.5s74.834 -27.333 105.501 -51s55.334 -54.167 74.001 -91.5s28.667 -83 30 -137h-260c-3.33301 32 -12.333 53.5 -27 64.5s-30.667 16.5 -48 16.5c-11.333 0 -22 -2.33301 -32 -7s-19 -12.334 -27 -23.001s-14.333 -24.667 -19 -42
s-7 -38.666 -7 -63.999v-20c0 -50.667 7.83301 -87.667 23.5 -111s36.167 -35 61.5 -35c18 0 34.167 5.33301 48.5 16s23.166 32.334 26.499 65.001h260c-1.33301 -55.333 -11.166 -101.833 -29.499 -139.5s-42.666 -68 -72.999 -91s-65.5 -39.5 -105.5 -49.5
s-82.333 -15 -127 -15z" />
    <glyph glyph-name="D" unicode="D" horiz-adv-x="720" 
d="M40 700h315c52.667 0 100.167 -7.16699 142.5 -21.5s78.5 -35.5 108.5 -63.5s53.167 -63 69.5 -105s24.5 -90.333 24.5 -145v-20c0 -56 -8.33301 -105.5 -25 -148.5s-40.5 -79 -71.5 -108s-68.333 -51 -112 -66s-92.5 -22.5 -146.5 -22.5h-305v700zM345 212
c12.667 0 24.167 2.00098 34.5 6.00098s19.333 11 27 21s13.5 23.667 17.5 41s6 39 6 65v20c0 47.333 -7 79.666 -21 96.999s-35.333 26 -64 26h-41v-276h41z" />
    <glyph glyph-name="E" unicode="E" horiz-adv-x="615" 
d="M40 700h550v-192h-286v-72h256v-162h-256v-82h286v-192h-550v700z" />
    <glyph glyph-name="F" unicode="F" horiz-adv-x="580" 
d="M40 700h525v-192h-261v-101h231v-182h-231v-225h-264v700z" />
    <glyph glyph-name="G" unicode="G" horiz-adv-x="770" 
d="M395 -15c-52.667 0 -101.337 7.1709 -146.004 21.5039s-83.167 36.333 -115.5 66s-57.666 67 -75.999 112s-27.5 98.5 -27.5 160.5v20c0 62 9.33301 115 28 159s44.167 80.167 76.5 108.5s70.5 49.166 114.5 62.499s91 20 141 20c40 0 78.667 -5 116 -15
s71.166 -25.667 101.499 -47s56 -48.833 77 -82.5s34.5 -73.834 40.5 -120.501h-270c-11.333 34 -34.666 51 -69.999 51c-28 0 -49.167 -10.167 -63.5 -30.5s-21.5 -55.5 -21.5 -105.5v-20c0 -50.667 8.83301 -87.667 26.5 -111s43.834 -35 78.501 -35
c24 0 42 4.16699 54 12.5s21.667 19.166 29 32.499h-73v142h325v-61c0 -60 -9.66699 -111.5 -29 -154.5s-45.166 -78.333 -77.499 -106s-69.166 -47.834 -110.499 -60.501s-84 -19 -128 -19z" />
    <glyph glyph-name="H" unicode="H" horiz-adv-x="760" 
d="M40 700h264v-239h152v239h264v-700h-264v249h-152v-249h-264v700z" />
    <glyph glyph-name="I" unicode="I" horiz-adv-x="354" 
d="M45 700h264v-700h-264v700z" />
    <glyph glyph-name="J" unicode="J" horiz-adv-x="610" 
d="M285 -15c-42 0 -80.1689 5.83105 -114.502 17.498s-63.666 29.5 -87.999 53.5s-43.333 54.5 -57 91.5s-20.5 81.167 -20.5 132.5h224c0 -29.333 3.16699 -50.166 9.5 -62.499s16.833 -18.5 31.5 -18.5c18 0 29.333 5.5 34 16.5s7 29.167 7 54.5v430h264v-430
c0 -55.333 -7.33301 -101.166 -22 -137.499s-35 -65.5 -61 -87.5s-56.667 -37.5 -92 -46.5s-73.666 -13.5 -114.999 -13.5z" />
    <glyph glyph-name="K" unicode="K" horiz-adv-x="755" 
d="M40 700h264v-210l150 210h286l-225 -297l235 -403h-296l-117 221l-33 -40v-181h-264v700z" />
    <glyph glyph-name="L" unicode="L" horiz-adv-x="580" 
d="M40 700h264v-488h256v-212h-520v700z" />
    <glyph glyph-name="M" unicode="M" horiz-adv-x="910" 
d="M40 700h265l153 -295l153 295h259v-700h-264v280l-81 -155h-140l-81 155v-280h-264v700z" />
    <glyph glyph-name="N" unicode="N" horiz-adv-x="760" 
d="M40 700h214l222 -290v290h244v-700h-214l-222 290v-290h-244v700z" />
    <glyph glyph-name="O" unicode="O" horiz-adv-x="760" 
d="M380 -15c-49.333 0 -95.833 7.00098 -139.5 21.001s-81.834 35.5 -114.501 64.5s-58.5 66.167 -77.5 111.5s-28.5 99.666 -28.5 162.999v20c0 60 9.5 111.833 28.5 155.5s44.833 80 77.5 109s70.834 50.5 114.501 64.5s90.167 21 139.5 21s95.833 -7 139.5 -21
s81.834 -35.5 114.501 -64.5s58.5 -65.333 77.5 -109s28.5 -95.5 28.5 -155.5v-20c0 -62 -9.5 -115.667 -28.5 -161s-44.833 -82.833 -77.5 -112.5s-70.834 -51.5 -114.501 -65.5s-90.167 -21 -139.5 -21zM380 199.001c28 0 50 11.167 66 33.5s24 59.833 24 112.5v20
c0 48 -8 82.667 -24 104s-38 32 -66 32s-50 -10.667 -66 -32s-24 -56 -24 -104v-20c0 -52.667 8 -90.167 24 -112.5s38 -33.5 66 -33.5z" />
    <glyph glyph-name="P" unicode="P" horiz-adv-x="685" 
d="M40 700l325 0.000976562c107.333 0 185 -21.833 233 -65.5s72 -106.167 72 -187.5c0 -76.667 -24 -136.334 -72 -179.001s-125.667 -64 -233 -64h-61v-204h-264v700zM334 386.001c27.333 0 46.168 6 56.501 18s15.5 26.333 15.5 43s-5.33301 31 -16 43
s-29.334 18 -56.001 18h-30v-122h30z" />
    <glyph glyph-name="Q" unicode="Q" horiz-adv-x="760" 
d="M380 -15c-49.333 0 -95.834 7.00098 -139.501 21.001s-81.834 35.5 -114.501 64.5s-58.5 66.167 -77.5 111.5s-28.5 99.666 -28.5 162.999v20c0 60 9.5 111.833 28.5 155.5s44.833 80 77.5 109s70.834 50.5 114.501 64.5s90.167 21 139.5 21s95.833 -7 139.5 -21
s81.834 -35.5 114.501 -64.5s58.5 -65.333 77.5 -109s28.5 -95.5 28.5 -155.5v-20c0 -44.667 -5 -84.5 -15 -119.5s-23.667 -66.5 -41 -94.5l51 -51l-110 -110l-57 56c-56 -27.333 -118.667 -41 -188 -41zM379.999 199.001c6.66699 0 11.667 0.333008 15 1l-60 60l110 110
l25 -25v10v10c0 48 -8 82.667 -24 104s-38 32 -66 32s-50 -10.667 -66 -32s-24 -56 -24 -104v-20c0 -52.667 8 -90.167 24 -112.5s38 -33.5 66 -33.5z" />
    <glyph glyph-name="R" unicode="R" horiz-adv-x="705" 
d="M40 700h315c56 0 103.833 -5.5 143.5 -16.5s72.167 -27.333 97.5 -49s44 -48.167 56 -79.5s18 -67.333 18 -108c0 -44 -9.5 -83 -28.5 -117s-48.5 -61.667 -88.5 -83l137 -247h-282l-99 206h-5v-206h-264v700zM334 386c24 0 40.999 6 50.999 18s15 26.333 15 43
s-5.16699 31 -15.5 43s-27.166 18 -50.499 18h-30v-122h30z" />
    <glyph glyph-name="S" unicode="S" horiz-adv-x="670" 
d="M335 -15c-100 0 -176.667 17.833 -230 53.5s-85 92.834 -95 171.501h264c2 -14 7.33301 -24.333 16 -31s23.667 -10 45 -10c23.333 0 39.333 2.5 48 7.5s13 12.833 13 23.5c0 6 -1.66699 11 -5 15s-9.83301 8 -19.5 12s-23.334 8.16699 -41.001 12.5
s-41.167 9.5 -70.5 15.5c-33.333 6.66699 -64 15.5 -92 26.5s-52.333 25.5 -73 43.5s-36.667 40.167 -48 66.5s-17 57.5 -17 93.5c0 38.667 7.33301 72.5 22 101.5s35.5 53 62.5 72s59.167 33.167 96.5 42.5s78.666 14 123.999 14c95.333 0 168.333 -19.333 219 -58
s81 -91 91 -157h-264c-1.33301 9.33301 -5.5 16.833 -12.5 22.5s-18.167 8.5 -33.5 8.5c-27.333 0 -41 -10.333 -41 -31c0 -6 1.83301 -11.333 5.5 -16s9.83398 -8.83398 18.501 -12.501s20.5 -7.16699 35.5 -10.5s33.833 -7 56.5 -11
c29.333 -5.33301 58.833 -12.5 88.5 -21.5s56.5 -21.833 80.5 -38.5s43.5 -38.167 58.5 -64.5s22.5 -59.5 22.5 -99.5c0 -41.333 -7.66699 -77.166 -23 -107.499s-37.166 -55.333 -65.499 -75s-62.5 -34.334 -102.5 -44.001s-84.667 -14.5 -134 -14.5z" />
    <glyph glyph-name="T" unicode="T" horiz-adv-x="670" 
d="M203 488h-183v212h630v-212h-183v-488h-264v488z" />
    <glyph glyph-name="U" unicode="U" horiz-adv-x="740" 
d="M370 -15c-50 0 -95.5 5.83301 -136.5 17.5s-76.333 29.5 -106 53.5s-52.5 54.5 -68.5 91.5s-24 81.167 -24 132.5v420h264v-390c0 -17.333 0.666992 -33 2 -47s4.5 -25.667 9.5 -35s12.167 -16.5 21.5 -21.5s22 -7.5 38 -7.5s28.667 2.5 38 7.5s16.5 12.167 21.5 21.5
s8.16699 21 9.5 35s2 29.667 2 47v390h264v-420c0 -51.333 -8 -95.5 -24 -132.5s-38.833 -67.5 -68.5 -91.5s-65 -41.833 -106 -53.5s-86.5 -17.5 -136.5 -17.5z" />
    <glyph glyph-name="V" unicode="V" horiz-adv-x="774" 
d="M2 700h280l120 -390l120 390h250l-243 -700h-264z" />
    <glyph glyph-name="W" unicode="W" horiz-adv-x="1084" 
d="M2 700h274l74 -360l75 360h254l82 -360l87 360h234l-190 -700h-264l-93 380l-79 -380h-264z" />
    <glyph glyph-name="X" unicode="X" horiz-adv-x="790" 
d="M214 362l-199 338h294l88 -164l88 164h290l-198 -335l208 -365h-296l-96 191l-96 -191h-292z" />
    <glyph glyph-name="Y" unicode="Y" horiz-adv-x="744" 
d="M250 245l-248 455h302l87 -185l79 185h272l-228 -455v-245h-264v245z" />
    <glyph glyph-name="Z" unicode="Z" horiz-adv-x="650" 
d="M20 182l270 306h-260v212h590v-182l-270 -306h280v-212h-610v182z" />
    <glyph glyph-name="bracketleft" unicode="[" horiz-adv-x="380" 
d="M80 700h280v-136h-100v-628h100v-136h-280v900z" />
    <glyph glyph-name="backslash" unicode="\" horiz-adv-x="500" 
d="M0 700h180l320 -900h-180z" />
    <glyph glyph-name="bracketright" unicode="]" horiz-adv-x="380" 
d="M300.01 -199.914h-279.966v135.982h99.9873v627.924h-99.9873v135.983h279.966v-899.89z" />
    <glyph glyph-name="asciicircum" unicode="^" 
d="M190 700h220l170 -260h-220l-65 110l-65 -110h-210z" />
    <glyph glyph-name="underscore" unicode="_" horiz-adv-x="500" 
d="M0 -32h500v-136h-500v136z" />
    <glyph glyph-name="grave" unicode="`" horiz-adv-x="360" 
d="M20 740h210l110 -160h-150z" />
    <glyph glyph-name="a" unicode="a" horiz-adv-x="580" 
d="M190 -15c-28.667 0 -54.1641 4.33301 -76.4971 13s-41.166 20.667 -56.499 36s-27 33.333 -35 54s-12 43 -12 67c0 52.667 16.333 94.334 49 125.001s84.667 46 156 46h115v14c0 17.333 -3.66699 29.5 -11 36.5s-17 10.5 -29 10.5
c-12.667 0 -21.834 -1.83301 -27.501 -5.5s-9.83398 -9.16699 -12.501 -16.5h-210c1.33301 26 7.33301 50 18 72s26.5 41 47.5 57s47.167 28.5 78.5 37.5s68.333 13.5 111 13.5c37.333 0 71.666 -4 102.999 -12s58.166 -20.833 80.499 -38.5s39.833 -40.834 52.5 -69.501
s19 -63.667 19 -105v-185c0 -28 0.833008 -52.5 2.5 -73.5s4.16699 -41.5 7.5 -61.5h-210c-2.66699 7.33301 -5 15.333 -7 24s-3 20.667 -3 36c-6 -10 -13 -19.5 -21 -28.5s-17.833 -17 -29.5 -24s-25.5 -12.5 -41.5 -16.5s-35.333 -6 -58 -6zM275.003 143
c36.667 0 55 19 55 57v10h-55c-26 0 -39 -11 -39 -33c0 -22.667 13 -34 39 -34z" />
    <glyph glyph-name="b" unicode="b" horiz-adv-x="625" 
d="M400 -15c-24 0 -44.666 1.83398 -61.999 5.50098s-32.333 8.66699 -45 15s-23.334 14.166 -32.001 23.499s-16 19.666 -22 30.999v-60h-204v700h220v-225c16.667 23.333 37.5 40.833 62.5 52.5s52.5 17.5 82.5 17.5c31.333 0 60 -5.66699 86 -17
s48.167 -28.166 66.5 -50.499s32.5 -50.5 42.5 -84.5s15 -73.333 15 -118v-20c0 -46.667 -5.66699 -87 -17 -121s-26.5 -62 -45.5 -84s-41.167 -38.333 -66.5 -49s-52.333 -16 -81 -16zM322.001 163.001c14 0 27.833 6.83301 41.5 20.5s20.5 37.5 20.5 71.5v20
c0 33.333 -6.33301 57 -19 71s-27 21 -43 21c-17.333 0 -32.833 -6.83301 -46.5 -20.5s-20.5 -35.834 -20.5 -66.501v-30c0 -31.333 7 -53.666 21 -66.999s29.333 -20 46 -20z" />
    <glyph glyph-name="c" unicode="c" horiz-adv-x="590" 
d="M295 -15c-42.667 0 -81.1709 6.66992 -115.504 20.0029s-63.666 32 -87.999 56s-43.166 52.833 -56.499 86.5s-20 71.167 -20 112.5v20c0 38.667 6.66699 74.167 20 106.5s32.166 60.333 56.499 84s53.666 42 87.999 55s72.833 19.5 115.5 19.5
c50.667 0 93.334 -6 128.001 -18s62.834 -28.667 84.501 -50s37.667 -46.333 48 -75s16.833 -59.334 19.5 -92.001h-206c-2.66699 21.333 -9 36.166 -19 44.499s-23.333 12.5 -40 12.5c-22.667 0 -39.834 -7.5 -51.501 -22.5s-17.5 -36.5 -17.5 -64.5v-20
c0 -64.667 23 -97 69 -97c15.333 0 28.333 4.16699 39 12.5s17.334 23.166 20.001 44.499h206c-2.66699 -36.667 -9.66699 -69.5 -21 -98.5s-28.166 -53.667 -50.499 -74s-50.666 -35.833 -84.999 -46.5s-75.5 -16 -123.5 -16z" />
    <glyph glyph-name="d" unicode="d" horiz-adv-x="625" 
d="M225 -15c-28.667 0 -55.668 5.3291 -81.001 15.9961s-47.5 27 -66.5 49s-34.167 50 -45.5 84s-17 74.667 -17 122v19c0 44 5.16699 82.833 15.5 116.5s24.833 61.834 43.5 84.501s40.834 39.834 66.501 51.501s53.834 17.5 84.501 17.5c30 0 57.5 -5.83301 82.5 -17.5
s45.833 -29.167 62.5 -52.5v225h220v-700h-204v60c-6 -11.333 -13.333 -21.666 -22 -30.999s-19.334 -17.166 -32.001 -23.499s-27.667 -11.333 -45 -15s-38 -5.5 -62 -5.5zM302.999 162.996c16.667 0 32 6.66699 46 20s21 35.666 21 66.999v30
c0 30.667 -6.83301 52.834 -20.5 66.501s-29.167 20.5 -46.5 20.5c-16 0 -30.333 -7 -43 -21s-19 -37.667 -19 -71v-20c0 -34 6.83301 -57.833 20.5 -71.5s27.5 -20.5 41.5 -20.5z" />
    <glyph glyph-name="e" unicode="e" 
d="M310 -15c-44 0 -83.999 5.66895 -119.999 17.002s-67 28.166 -93 50.499s-46.167 50.333 -60.5 84s-21.5 73.167 -21.5 118.5v20c0 44.667 6.83301 84 20.5 118s33 62.167 58 84.5s55 39.166 90 50.499s73.833 17 116.5 17c97.333 0 169.166 -23.167 215.499 -69.5
s69.5 -114.833 69.5 -205.5v-60h-347c2.66699 -22.667 9.16699 -39.5 19.5 -50.5s27.833 -16.5 52.5 -16.5c18.667 0 32.334 3.16699 41.001 9.5s15 13.833 19 22.5h210c-10 -65.333 -37.833 -113.333 -83.5 -144s-107.834 -46 -186.501 -46zM305.001 387.002
c-22.667 0 -38.833 -5.83301 -48.5 -17.5s-15.5 -26.167 -17.5 -43.5h128c-2 17.333 -7.66699 31.833 -17 43.5s-24.333 17.5 -45 17.5z" />
    <glyph glyph-name="f" unicode="f" horiz-adv-x="390" 
d="M70 354h-60v176h60v35c0 22 3.5 41.667 10.5 59s19.5 32.166 37.5 44.499s42.167 21.833 72.5 28.5s68.5 10 114.5 10c10 0 22.833 -0.166992 38.5 -0.5s31.167 -1.16602 46.5 -2.49902v-138c-22 2 -37.667 3 -47 3c-21.333 0 -35.5 -2.5 -42.5 -7.5
s-10.5 -12.167 -10.5 -21.5v-10h90v-176h-90v-354h-220v354z" />
    <glyph glyph-name="g" unicode="g" horiz-adv-x="625" 
d="M295 -215c-48.667 0 -89.168 4.83203 -121.501 14.499s-58.5 22.667 -78.5 39s-34.5 35.5 -43.5 57.5s-14.5 45 -16.5 69h220c3.33301 -7.33301 8.33301 -12.833 15 -16.5s18.334 -5.5 35.001 -5.5c19.333 0 35 5.83301 47 17.5s18 31.5 18 59.5v40
c-16.667 -21.333 -37.5 -37.5 -62.5 -48.5s-52.5 -16.5 -82.5 -16.5c-28.667 0 -55.667 5.33301 -81 16s-47.5 27 -66.5 49s-34.167 49.667 -45.5 83s-17 72.666 -17 117.999v19c0 42 5.16699 79.5 15.5 112.5s24.666 60.667 42.999 83s40.5 39.5 66.5 51.5s54.667 18 86 18
c24 0 44.5 -1.83301 61.5 -5.5s31.833 -8.66699 44.5 -15s23.334 -14.166 32.001 -23.499s16 -19.666 22 -30.999v60h204v-485c0 -87.333 -23.167 -152.5 -69.5 -195.5s-121.5 -64.5 -225.5 -64.5zM302.999 172.999c16.667 0 32 6.5 46 19.5s21 34.167 21 63.5v30
c0 28 -6.83301 48.5 -20.5 61.5s-29.167 19.5 -46.5 19.5c-16 0 -30.333 -6.83301 -43 -20.5s-19 -35.834 -19 -66.501v-20c0 -31.333 6.83301 -53.666 20.5 -66.999s27.5 -20 41.5 -20z" />
    <glyph glyph-name="h" unicode="h" horiz-adv-x="605" 
d="M35 700h219.999v-225c12 17.333 29.667 33.333 53 48s54 22 92 22c56.667 0 100 -16 130 -48s45 -79.333 45 -142v-355h-220v310c0 17.333 -3.66699 31.166 -11 41.499s-19.666 15.5 -36.999 15.5s-30.333 -5.16699 -39 -15.5s-13 -24.166 -13 -41.499v-310h-220v700z
" />
    <glyph glyph-name="i" unicode="i" horiz-adv-x="300" 
d="M40 530h220v-530h-220v530zM150 580c-40 0 -70 7.16699 -90 21.5s-30 33.833 -30 58.5s10 44.167 30 58.5s50 21.5 90 21.5s70 -7.16699 90 -21.5s30 -33.833 30 -58.5s-10 -44.167 -30 -58.5s-50 -21.5 -90 -21.5z" />
    <glyph glyph-name="j" unicode="j" horiz-adv-x="300" 
d="M24 -215c-7.33301 0 -15.5 0.167969 -24.5 0.500977s-17.167 1.16602 -24.5 2.49902v178c10 -2 19.667 -3 29 -3c11.333 0 20.166 4 26.499 12s9.5 24.667 9.5 50v505h220v-530c0 -42.667 -5.33301 -77.834 -16 -105.501s-26.167 -49.667 -46.5 -66
s-45.166 -27.666 -74.499 -33.999s-62.333 -9.5 -99 -9.5zM150 580.001c-40 0 -70 7.16699 -90 21.5s-30 33.833 -30 58.5s10 44.167 30 58.5s50 21.5 90 21.5s70 -7.16699 90 -21.5s30 -33.833 30 -58.5s-10 -44.167 -30 -58.5s-50 -21.5 -90 -21.5z" />
    <glyph glyph-name="k" unicode="k" horiz-adv-x="577" 
d="M35 700h220v-310l78 140h242l-143 -226l143 -304h-242l-54 124l-24 -40v-84h-220v700z" />
    <glyph glyph-name="l" unicode="l" horiz-adv-x="350" 
d="M245 -8c-37.333 0 -68.9971 3.33301 -94.9971 10s-47.167 18.167 -63.5 34.5s-28.166 38.666 -35.499 66.999s-11 64.5 -11 108.5v488h220v-442c0 -16 0.666992 -29.667 2 -41s4.16602 -20.5 8.49902 -27.5s10.666 -12 18.999 -15s19.5 -4.5 33.5 -4.5h8.5
c2.33301 0 5.16602 0.333008 8.49902 1v-175c-6.66699 -0.666992 -15 -1.16699 -25 -1.5l-29 -1c-9.33301 -0.333008 -17.833 -0.666016 -25.5 -0.999023s-12.834 -0.5 -15.501 -0.5z" />
    <glyph glyph-name="m" unicode="m" horiz-adv-x="865" 
d="M35 530h203.997v-59c12 20 29.333 37.333 52 52s53.667 22 93 22c36 0 63.667 -5.83301 83 -17.5s35 -29.167 47 -52.5c11.333 18.667 29.333 35 54 49s57.334 21 98.001 21c60 0 103.167 -15.833 129.5 -47.5s39.5 -77.5 39.5 -137.5v-360h-220v315
c0 19.333 -2.66699 32.833 -8 40.5s-14 11.5 -26 11.5c-13.333 0 -22.666 -4 -27.999 -12s-8 -21.333 -8 -40v-315h-220v315c0 19.333 -2.66699 32.833 -8 40.5s-14 11.5 -26 11.5c-13.333 0 -22.666 -4 -27.999 -12s-8 -21.333 -8 -40v-315h-220v530z" />
    <glyph glyph-name="n" unicode="n" horiz-adv-x="605" 
d="M35 530l203.999 -0.000976562v-60c12 20.667 30.833 38.334 56.5 53.001s60.5 22 104.5 22c56.667 0 100 -16 130 -48s45 -79.333 45 -142v-355h-220v310c0 17.333 -3.66699 31.166 -11 41.499s-18.666 15.5 -33.999 15.5c-19.333 0 -33.333 -5.16699 -42 -15.5
s-13 -24.166 -13 -41.499v-310h-220v530z" />
    <glyph glyph-name="o" unicode="o" horiz-adv-x="610" 
d="M305 -15c-40.667 0 -78.667 5.49707 -114 16.4971s-66 27.833 -92 50.5s-46.5 51.334 -61.5 86.001s-22.5 75.334 -22.5 122.001v20c0 43.333 7.5 81.5 22.5 114.5s35.5 60.667 61.5 83s56.667 39.166 92 50.499s73.333 17 114 17s78.667 -5.66699 114 -17
s66 -28.166 92 -50.499s46.5 -50 61.5 -83s22.5 -71.167 22.5 -114.5v-20c0 -45.333 -7.5 -85.166 -22.5 -119.499s-35.5 -63 -61.5 -86s-56.667 -40.333 -92 -52s-73.333 -17.5 -114 -17.5zM305 162.997c20 0 35.667 7.33301 47 22s17 39.667 17 75v20
c0 30.667 -5.66699 52.834 -17 66.501s-27 20.5 -47 20.5s-35.667 -6.83301 -47 -20.5s-17 -35.834 -17 -66.501v-20c0 -35.333 5.66699 -60.333 17 -75s27 -22 47 -22z" />
    <glyph glyph-name="p" unicode="p" horiz-adv-x="625" 
d="M35 530l203.999 0.000976562v-60c6 11.333 13.333 21.666 22 30.999s19.334 17.166 32.001 23.499s27.667 11.333 45 15s38 5.5 62 5.5c31.333 0 60 -5.66699 86 -17s48.167 -28.166 66.5 -50.499s32.5 -50.5 42.5 -84.5s15 -73.333 15 -118v-20
c0 -46.667 -5.66699 -87 -17 -121s-26.5 -62 -45.5 -84s-41.167 -38.333 -66.5 -49s-52.333 -16 -81 -16c-30 0 -57.5 5.83301 -82.5 17.5s-45.833 29.167 -62.5 52.5v-255h-220v730zM321.999 163.001c14 0 27.833 6.83301 41.5 20.5s20.5 37.5 20.5 71.5v20
c0 33.333 -6.33301 57 -19 71s-27.334 21 -44.001 21c-17.333 0 -32.666 -6.83301 -45.999 -20.5s-20 -35.834 -20 -66.501v-30c0 -31.333 7 -53.666 21 -66.999s29.333 -20 46 -20z" />
    <glyph glyph-name="q" unicode="q" horiz-adv-x="625" 
d="M370 55c-16.667 -23.333 -37.501 -40.8369 -62.501 -52.5039s-52.5 -17.5 -82.5 -17.5c-28.667 0 -55.667 5.33301 -81 16s-47.5 27.167 -66.5 49.5s-34.167 50.5 -45.5 84.5s-17 74.333 -17 121v19c0 44 5.16699 82.833 15.5 116.5s24.833 61.834 43.5 84.501
s41 39.834 67 51.501s54.333 17.5 85 17.5c24 0 44.5 -1.83301 61.5 -5.5s31.833 -8.66699 44.5 -15s23.334 -14.166 32.001 -23.499s16 -19.666 22 -30.999v60h204v-730h-220v255zM302.999 162.996c16.667 0 32 6.66699 46 20s21 36 21 68v30
c0 30 -6.83301 51.833 -20.5 65.5s-29.167 20.5 -46.5 20.5c-16 0 -30.333 -7 -43 -21s-19 -37.667 -19 -71v-20c0 -34 6.83301 -57.833 20.5 -71.5s27.5 -20.5 41.5 -20.5z" />
    <glyph glyph-name="r" unicode="r" horiz-adv-x="405" 
d="M35 530l204.001 -0.000976562v-60c6.66699 20.667 19.167 38.334 37.5 53.001s41.166 22 68.499 22c8 0 16.5 -0.5 25.5 -1.5s17.167 -3.16699 24.5 -6.5v-183c-8.66699 4 -19 7.16699 -31 9.5s-23.333 3.5 -34 3.5c-28 0 -47.5 -5 -58.5 -15s-16.5 -24 -16.5 -42v-310
h-220v530z" />
    <glyph glyph-name="s" unicode="s" horiz-adv-x="560" 
d="M280 -15c-49.333 0 -90.501 5.32812 -123.501 15.9951s-59.667 24.834 -80 42.501s-35.5 37.5 -45.5 59.5s-17 44.333 -21 67h220c1.33301 -7.33301 5.16602 -13.666 11.499 -18.999s19.166 -8 38.499 -8c21.333 0 35 1.83301 41 5.5s9 9.5 9 17.5
c0 2.66699 -1.16699 5.33398 -3.5 8.00098s-7 5.16699 -14 7.5s-17.333 5 -31 8s-31.5 6.5 -53.5 10.5c-23.333 4 -47.166 9.16699 -71.499 15.5s-46.166 15.666 -65.499 27.999s-35.166 28.166 -47.499 47.499s-18.5 44 -18.5 74c0 56.667 22.5 100.834 67.5 132.501
s107.5 47.5 187.5 47.5c44.667 0 82.5 -5.5 113.5 -16.5s56.333 -25.167 76 -42.5s34.167 -37.166 43.5 -59.499s15 -44.5 17 -66.5h-220c-1.33301 10.667 -4.83301 17.834 -10.5 21.501s-13.834 5.5 -24.501 5.5c-11.333 0 -19.166 -1.66699 -23.499 -5
s-6.5 -7.33301 -6.5 -12c0 -4 1 -7.5 3 -10.5s5.66699 -5.66699 11 -8s12.833 -4.66602 22.5 -6.99902s22.167 -4.5 37.5 -6.5c22.667 -3.33301 47.334 -8.5 74.001 -15.5s51.667 -17 75 -30s42.833 -29.833 58.5 -50.5s23.5 -46 23.5 -76
c0 -59.333 -23.833 -104.333 -71.5 -135s-113.834 -46 -198.501 -46z" />
    <glyph glyph-name="t" unicode="t" horiz-adv-x="420" 
d="M285 -7c-37.333 0 -69.667 3.66504 -97 10.998s-49.666 19.666 -66.999 36.999s-30.166 40.5 -38.499 69.5s-12.5 65.5 -12.5 109.5v134h-60v176h60v120h220v-120h100v-176h-100v-88c0 -17.333 0.666992 -32.166 2 -44.499s4.16602 -22.166 8.49902 -29.499
s10.666 -12.666 18.999 -15.999s19.5 -5 33.5 -5c15.333 0 31 1 47 3v-170c-18.667 -3.33301 -38.5 -6 -59.5 -8s-39.5 -3 -55.5 -3z" />
    <glyph glyph-name="u" unicode="u" horiz-adv-x="605" 
d="M205 -15c-56.667 0 -99.999 16.001 -129.999 48.001s-45 79.333 -45 142v355h220v-310c0 -17.333 3.66699 -31.166 11 -41.499s19.666 -15.5 36.999 -15.5s30.333 5.16699 39 15.5s13 24.166 13 41.499v310h220v-530h-204v60c-12 -20.667 -30.833 -38.334 -56.5 -53.001
s-60.5 -22 -104.5 -22z" />
    <glyph glyph-name="v" unicode="v" horiz-adv-x="624" 
d="M2 530h235l98 -280l82 280h205l-185 -530h-220z" />
    <glyph glyph-name="w" unicode="w" horiz-adv-x="854" 
d="M2 530h230l57 -260l68 260h160l84 -260l61 260h190l-140 -530h-220l-64 220l-56 -220h-220z" />
    <glyph glyph-name="x" unicode="x" horiz-adv-x="604" 
d="M142 275l-130 255h238l56 -129l53 129h233l-130 -250l140 -280h-238l-66 153l-62 -153h-234z" />
    <glyph glyph-name="y" unicode="y" horiz-adv-x="624" 
d="M152 -215c-10 0 -20 0.99707 -30 2.99707v178c10 -2 20 -3 30 -3c18 0 31 2.5 39 7.5s15 14.833 21 29.5l-210 530h235l94 -280l86 280h205l-190 -530c-13.333 -37.333 -28 -69.666 -44 -96.999s-35 -49.666 -57 -66.999s-47.5 -30.166 -76.5 -38.499
s-63.167 -12.5 -102.5 -12.5z" />
    <glyph glyph-name="z" unicode="z" horiz-adv-x="520" 
d="M20 146l184 208h-174v176h460v-146l-184 -208h194v-176h-480v146z" />
    <glyph glyph-name="braceleft" unicode="{" horiz-adv-x="380" 
d="M270 -200c-60.667 0 -107.5 16.5 -140.5 49.5s-49.5 79.833 -49.5 140.5v142c0 15.333 -4.5 27.5 -13.5 36.5s-21.167 13.5 -36.5 13.5v136c15.333 0 27.5 4.5 36.5 13.5s13.5 21.167 13.5 36.5v142c0 60.667 16.5 107.5 49.5 140.5s79.833 49.5 140.5 49.5h90v-136h-40
c-40 0 -60 -20 -60 -60v-184c0 -20 -4.5 -35.333 -13.5 -46s-21.167 -18.667 -36.5 -24c15.333 -5.33301 27.5 -13.333 36.5 -24s13.5 -26 13.5 -46v-184c0 -40 20 -60 60 -60h40v-136h-90z" />
    <glyph glyph-name="bar" unicode="|" horiz-adv-x="340" 
d="M80 700h180v-900h-180v900z" />
    <glyph glyph-name="braceright" unicode="}" horiz-adv-x="380" 
d="M110.033 699.976c60.6592 0 107.486 -16.4961 140.482 -49.4922s49.4941 -79.8232 49.4941 -140.482v-141.983c0 -15.3311 4.49902 -27.4961 13.498 -36.4951s21.1641 -13.498 36.4951 -13.498v-135.983c-15.3311 0 -27.4961 -4.5 -36.4951 -13.499
s-13.498 -21.1641 -13.498 -36.4951v-141.982c0 -60.6592 -16.498 -107.487 -49.4941 -140.483c-32.9961 -32.9951 -79.8232 -49.4932 -140.482 -49.4932h-89.9893v135.982h39.9951c39.9951 0 59.9922 19.998 59.9922 59.9932v183.978c0 19.9971 4.5 35.3281 13.499 45.9932
s21.1641 18.6641 36.4951 23.9971c-15.3311 5.33301 -27.4961 13.332 -36.4951 23.9971s-13.499 25.9961 -13.499 45.9932v183.979c0 39.9951 -19.9971 59.9922 -59.9922 59.9922h-39.9951v135.983h89.9893z" />
    <glyph glyph-name="asciitilde" unicode="~" 
d="M395 223c-20 0 -38.001 3.16602 -54.001 9.49902s-30.833 13.166 -44.5 20.499l-39 20.5c-12.333 6.33301 -24.833 9.5 -37.5 9.5s-23.5 -3.16699 -32.5 -9.5s-16.167 -13.166 -21.5 -20.499c-6.66699 -8.66699 -12 -18.667 -16 -30l-125 112c8 30 20.333 57 37 81
c6.66699 10 14.667 19.833 24 29.5s19.833 18.334 31.5 26.001s24.834 13.834 39.501 18.501s30.667 7 48 7c20 0 38 -3.16699 54 -9.5s30.833 -13.166 44.5 -20.499l39 -20.5c12.333 -6.33301 24.833 -9.5 37.5 -9.5s23.5 3.16699 32.5 9.5s16.167 13.166 21.5 20.499
c6.66699 8.66699 12 18.667 16 30l125 -112c-9.33301 -30.667 -22 -57.667 -38 -81c-14 -20.667 -32.5 -39.334 -55.5 -56.001s-51.833 -25 -86.5 -25z" />
    <glyph glyph-name="uni00A0" unicode="&#xa0;" horiz-adv-x="200" 
 />
    <glyph glyph-name="exclamdown" unicode="&#xa1;" horiz-adv-x="340" 
d="M60 270h220v-470h-220v470zM170 305c-16.667 0 -32.334 3.16699 -47.001 9.5s-27.334 14.833 -38.001 25.5s-19.167 23.334 -25.5 38.001s-9.5 30.334 -9.5 47.001c0 17.333 3.16699 33.333 9.5 48s14.833 27.334 25.5 38.001s23.334 19 38.001 25s30.334 9 47.001 9
s32.334 -3 47.001 -9s27.334 -14.333 38.001 -25s19.167 -23.334 25.5 -38.001s9.5 -30.667 9.5 -48c0 -16.667 -3.16699 -32.334 -9.5 -47.001s-14.833 -27.334 -25.5 -38.001s-23.334 -19.167 -38.001 -25.5s-30.334 -9.5 -47.001 -9.5z" />
    <glyph glyph-name="cent" unicode="&#xa2;" horiz-adv-x="595" 
d="M198 0c-56 17.333 -99.668 48.8369 -131.001 94.5039s-47 100.834 -47 165.501v20c0 60.667 15.667 113.167 47 157.5s75 75.166 131 92.499v100h204v-96c30.667 -7.33301 56.834 -18.166 78.501 -32.499s39.5 -31.333 53.5 -51s24.667 -41.334 32 -65.001
s12 -48.834 14 -75.501h-206c-2.66699 21.333 -9 36.166 -19 44.499s-23.333 12.5 -40 12.5c-22.667 0 -39.834 -7.5 -51.501 -22.5s-17.5 -36.5 -17.5 -64.5v-20c0 -64.667 23 -97 69 -97c15.333 0 28.333 4.16699 39 12.5s17.334 23.166 20.001 44.499h206
c-4 -58.667 -19.833 -107.334 -47.5 -146.001s-71.167 -64.667 -130.5 -78v-116h-204v120z" />
    <glyph glyph-name="sterling" unicode="&#xa3;" horiz-adv-x="670" 
d="M20 202l80.0029 0.00292969v67h-70v142h70v69c0 34 5.33301 65.333 16 94s27.5 53.5 50.5 74.5s52.333 37.333 88 49s78.5 17.5 128.5 17.5c46.667 0 86.667 -5.83301 120 -17.5s60.666 -27.834 81.999 -48.501s37.166 -45.334 47.499 -74.001
s16.166 -60.334 17.499 -95.001h-244c0 20.667 -8.66699 31 -26 31s-26 -10.333 -26 -31v-69h151v-142h-151v-67h296v-202h-630v202z" />
    <glyph glyph-name="currency" unicode="&#xa4;" 
d="M35 204l57 57c-14.667 29.333 -22 62.333 -22 99s7.33301 69.667 22 99l-57 57l109 109l57 -57c31.333 14.667 64.333 22 99 22s67.667 -7.33301 99 -22l57 57l109 -109l-57 -57c14.667 -31.333 22 -64.333 22 -99s-7.33301 -67.667 -22 -99l57 -57l-109 -109l-57 57
c-29.333 -14.667 -62.333 -22 -99 -22s-69.667 7.33301 -99 22l-57 -57zM300 292c18 0 33.5 6.5 46.5 19.5s19.5 29.167 19.5 48.5s-6.5 35.5 -19.5 48.5s-28.5 19.5 -46.5 19.5s-33.5 -6.5 -46.5 -19.5s-19.5 -29.167 -19.5 -48.5s6.5 -35.5 19.5 -48.5
s28.5 -19.5 46.5 -19.5z" />
    <glyph glyph-name="yen" unicode="&#xa5;" horiz-adv-x="750" 
d="M243 109h-173v142h173v38h-173v142h80l-135 269h302l67 -185l79 185h272l-135 -269h90v-142h-183v-38h183v-142h-183v-109h-264v109z" />
    <glyph glyph-name="brokenbar" unicode="&#xa6;" horiz-adv-x="340" 
d="M80 170h180v-370h-180v370zM80 700h180v-370h-180v370z" />
    <glyph glyph-name="section" unicode="&#xa7;" horiz-adv-x="660" 
d="M330 -215c-48.667 0 -89.834 4.50293 -123.501 13.5029s-61 22 -82 39s-36.167 37.5 -45.5 61.5s-14 51 -14 81h240c0 -16.667 2 -27.667 6 -33s10.333 -8 19 -8c16.667 0 25 7 25 21c0 6.66699 -1.83301 12.667 -5.5 18s-10.667 10.833 -21 16.5
s-24.666 11.667 -42.999 18s-42.166 13.833 -71.499 22.5c-60.667 18 -106.5 46.333 -137.5 85s-46.5 82 -46.5 130c0 35.333 8.33301 68.666 25 99.999s42 57.666 76 78.999c-22.667 15.333 -39.334 33.5 -50.001 54.5s-16 43.167 -16 66.5c0 22.667 4.66699 44 14 64
s24.5 37.5 45.5 52.5s48.333 26.833 82 35.5s74.834 13 123.501 13s89.834 -4.5 123.501 -13.5s61 -22 82 -39s36.167 -37.5 45.5 -61.5s14 -51 14 -81h-240c0 16 -2 26.833 -6 32.5s-10.333 8.5 -19 8.5c-16.667 0 -25 -7 -25 -21c0 -6.66699 1.83301 -12.667 5.5 -18
s10.5 -10.666 20.5 -15.999s24.167 -11.333 42.5 -18s42.5 -14.334 72.5 -23.001c30 -9.33301 56.5 -21.333 79.5 -36s42.167 -31.334 57.5 -50.001s27 -39 35 -61s12 -44.667 12 -68c0 -35.333 -8.33301 -68.5 -25 -99.5s-41.334 -57.167 -74.001 -78.5
c22.667 -16 39 -34.5 49 -55.5s15 -43.167 15 -66.5c0 -22.667 -4.66699 -44 -14 -64s-24.5 -37.5 -45.5 -52.5s-48.333 -26.833 -82 -35.5s-74.834 -13 -123.501 -13zM330 194.003c17.333 0 31.666 5.5 42.999 16.5s17 24.167 17 39.5s-5.66699 28.5 -17 39.5
s-25.666 16.5 -42.999 16.5s-31.666 -5.5 -42.999 -16.5s-17 -24.167 -17 -39.5s5.66699 -28.5 17 -39.5s25.666 -16.5 42.999 -16.5z" />
    <glyph glyph-name="dieresis" unicode="&#xa8;" horiz-adv-x="470" 
d="M120 580c-28 0 -51.667 6.83301 -71 20.5s-29 33.5 -29 59.5s9.66699 45.833 29 59.5s43 20.5 71 20.5s51.667 -6.83301 71 -20.5s29 -33.5 29 -59.5s-9.66699 -45.833 -29 -59.5s-43 -20.5 -71 -20.5zM350 580c-28 0 -51.667 6.83301 -71 20.5s-29 33.5 -29 59.5
s9.66699 45.833 29 59.5s43 20.5 71 20.5s51.667 -6.83301 71 -20.5s29 -33.5 29 -59.5s-9.83301 -45.833 -29.5 -59.5s-43.167 -20.5 -70.5 -20.5z" />
    <glyph glyph-name="copyright" unicode="&#xa9;" horiz-adv-x="870" 
d="M435 -45c-56.667 0 -109.667 10.333 -159 31s-92.166 48.667 -128.499 84s-65 77 -86 125s-31.5 99.667 -31.5 155s10.5 107 31.5 155s49.667 89.833 86 125.5s79.166 63.667 128.499 84s102.333 30.5 159 30.5c56 0 108.667 -10.167 158 -30.5s92.333 -48.333 129 -84
s65.5 -77.5 86.5 -125.5s31.5 -99.667 31.5 -155s-10.5 -107 -31.5 -155s-49.833 -89.667 -86.5 -125s-79.667 -63.333 -129 -84s-102 -31 -158 -31zM435 75c40 0 76.833 7 110.5 21s62.834 33.333 87.501 58s44 53.667 58 87s21 69.666 21 108.999
c0 38.667 -7 74.834 -21 108.501s-33.333 62.834 -58 87.501s-53.834 44 -87.501 58s-70.5 21 -110.5 21s-76.833 -7 -110.5 -21s-62.834 -33.333 -87.501 -58s-44 -53.834 -58 -87.501s-21 -69.834 -21 -108.501c0 -39.333 7 -75.666 21 -108.999s33.333 -62.333 58 -87
s53.834 -44 87.501 -58s70.5 -21 110.5 -21zM435 115c-32 0 -61.9941 4.16797 -89.9941 12.501s-52.333 21.666 -73 39.999s-36.834 42.333 -48.501 72s-17.5 65.5 -17.5 107.5v13c0 40 6 74.167 18 102.5s28.5 51.5 49.5 69.5s45.333 31.333 73 40s57.167 13 88.5 13
c28 0 54.833 -3.33301 80.5 -10s48.334 -17.5 68.001 -32.5s35.5 -34.667 47.5 -59s18.333 -53.833 19 -88.5h-167c-2 20.667 -7.83301 34.5 -17.5 41.5s-19.834 10.5 -30.501 10.5c-14.667 0 -27.5 -6.33301 -38.5 -19s-16.5 -35.334 -16.5 -68.001v-13
c0 -32.667 5 -56.5 15 -71.5s23.333 -22.5 40 -22.5c11.333 0 21.666 3.33301 30.999 10s15 20.667 17 42h167c-0.666992 -35.333 -6.83398 -65.166 -18.501 -89.499s-27.334 -44 -47.001 -59s-42.334 -25.667 -68.001 -32s-52.834 -9.5 -81.501 -9.5z" />
    <glyph glyph-name="ordfeminine" unicode="&#xaa;" horiz-adv-x="430" 
d="M145 365c-25.333 0 -46.667 2.50098 -64 7.50098s-31.333 12.333 -42 22s-18.167 21 -22.5 34s-6.5 27.5 -6.5 43.5s3.16699 30.667 9.5 44s16.333 24.833 30 34.5s31.667 17.334 54 23.001s49.5 8.5 81.5 8.5h55v7c0 14 -1.5 23.5 -4.5 28.5s-8.16699 7.5 -15.5 7.5
c-6.66699 0 -11.334 -2.33301 -14.001 -7s-4.66699 -14 -6 -28h-170c1.33301 20.667 5.66602 38.834 12.999 54.501s18.5 28.667 33.5 39s34.167 18.166 57.5 23.499s52 8 86 8c70 0 119.167 -10.833 147.5 -32.5s42.5 -54.167 42.5 -97.5v-125
c0 -17.333 0.833008 -32.5 2.5 -45.5s3.83398 -24.5 6.50098 -34.5h-166c-1.33301 5.33301 -2.5 10.666 -3.5 15.999s-1.5 11.666 -1.5 18.999c-8.66699 -14 -21.667 -25.833 -39 -35.5s-38.666 -14.5 -63.999 -14.5zM203.999 455.001
c10.667 0 19.332 3.66797 25.999 11.001s10 18.666 10 33.999v8h-30c-9.33301 0 -16.666 -2.5 -21.999 -7.5s-8 -12.167 -8 -21.5c0 -16 8 -24 24 -24z" />
    <glyph glyph-name="guillemotleft" unicode="&#xab;" horiz-adv-x="525" 
d="M15 177v176l220 177v-206l-75 -54l75 -54v-216zM270 177v176l220 177v-206l-75 -54l75 -54v-216z" />
    <glyph glyph-name="logicalnot" unicode="&#xac;" 
d="M345 254h-320v212h550v-356h-230v144z" />
    <glyph glyph-name="uni00AD" unicode="&#xad;" horiz-adv-x="380" 
d="M20 386h340v-212h-340v212z" />
    <glyph glyph-name="registered" unicode="&#xae;" horiz-adv-x="610" 
d="M305 136c-39.333 0 -76.333 7.5 -111 22.5s-64.834 35.5 -90.501 61.5s-46 56.5 -61 91.5s-22.5 72.833 -22.5 113.5s7.5 78.667 22.5 114s35.333 66 61 92s55.834 46.5 90.501 61.5s71.667 22.5 111 22.5s76.333 -7.5 111 -22.5s64.834 -35.5 90.501 -61.5
s46 -56.667 61 -92s22.5 -73.333 22.5 -114s-7.5 -78.5 -22.5 -113.5s-35.333 -65.5 -61 -91.5s-55.834 -46.5 -90.501 -61.5s-71.667 -22.5 -111 -22.5zM305 219c28 0 54.167 5.16699 78.5 15.5s45.333 24.666 63 42.999s31.667 40 42 65s15.5 52.5 15.5 82.5
s-5.16699 57.5 -15.5 82.5s-24.333 46.667 -42 65s-38.667 32.666 -63 42.999s-50.5 15.5 -78.5 15.5s-54.167 -5.16699 -78.5 -15.5s-45.333 -24.666 -63 -42.999s-31.667 -40 -42 -65s-15.5 -52.5 -15.5 -82.5s5.16699 -57.5 15.5 -82.5s24.333 -46.667 42 -65
s38.667 -32.666 63 -42.999s50.5 -15.5 78.5 -15.5zM185 575h120c52 0 88.167 -8.66699 108.5 -26s30.5 -42.333 30.5 -75c0 -23.333 -4.66699 -41.833 -14 -55.5s-23 -24.167 -41 -31.5l41 -112h-108l-26 100h-8v-100h-103v300zM301 453
c16.667 0 27.667 1.83105 33 5.49805s8 8.83398 8 15.501s-2.66699 11.834 -8 15.501s-16.333 5.5 -33 5.5h-13v-42h13z" />
    <glyph glyph-name="macron" unicode="&#xaf;" horiz-adv-x="380" 
d="M20 723h340v-126h-340v126z" />
    <glyph glyph-name="degree" unicode="&#xb0;" horiz-adv-x="390" 
d="M195 355c-24.667 0 -48 4.66699 -70 14s-41.167 22.166 -57.5 38.499s-29.166 35.5 -38.499 57.5s-14 45.333 -14 70s4.66699 48 14 70s22.166 41.167 38.499 57.5s35.5 29.166 57.5 38.499s45.333 14 70 14s48 -4.66699 70 -14s41.167 -22.166 57.5 -38.499
s29.166 -35.5 38.499 -57.5s14 -45.333 14 -70s-4.66699 -48 -14 -70s-22.166 -41.167 -38.499 -57.5s-35.5 -29.166 -57.5 -38.499s-45.333 -14 -70 -14zM195 485c14 0 25.833 4.83301 35.5 14.5s14.5 21.5 14.5 35.5s-4.83301 25.833 -14.5 35.5s-21.5 14.5 -35.5 14.5
s-25.833 -4.83301 -35.5 -14.5s-14.5 -21.5 -14.5 -35.5s4.83301 -25.833 14.5 -35.5s21.5 -14.5 35.5 -14.5z" />
    <glyph glyph-name="plusminus" unicode="&#xb1;" 
d="M25 212h550v-212h-550v212zM185 319h-160v212h160v169h230v-169h160v-212h-160v-54h-230v54z" />
    <glyph glyph-name="uni00B2" unicode="&#xb2;" horiz-adv-x="420" 
d="M10 471l173.999 120.999c12 8 21.333 14.833 28 20.5s11.834 10.334 15.501 14.001s5.83398 7 6.50098 10s1 6.16699 1 9.5c0 12.667 -6.66699 19 -20 19c-10 0 -17.5 -2.83301 -22.5 -8.5s-7.5 -16.167 -7.5 -31.5h-170c0 113.333 65 170 195 170
c65.333 0 114.166 -12.167 146.499 -36.5s48.5 -55.5 48.5 -93.5c0 -12 -1.33301 -23.333 -4 -34s-7.83398 -21.5 -15.501 -32.5s-18.667 -22.5 -33 -34.5s-33.166 -25.667 -56.499 -41l-23 -15h137v-128h-400v91z" />
    <glyph glyph-name="uni00B3" unicode="&#xb3;" horiz-adv-x="430" 
d="M215 367c-37.333 0 -69.002 3.5 -95.002 10.5s-47.167 17.5 -63.5 31.5s-28.166 31.833 -35.499 53.5s-11 47.5 -11 77.5h160c0 -16.667 3.5 -28 10.5 -34s20.167 -9 39.5 -9c15.333 0 25.833 2 31.5 6s8.5 9.33301 8.5 16c0 6 -3 11 -9 15s-18.333 6 -37 6h-24v90h24
c15.333 0 25.166 1.5 29.499 4.5s6.5 7.5 6.5 13.5c0 5.33301 -2.16699 9.5 -6.5 12.5s-13.833 4.5 -28.5 4.5c-30 0 -45 -13.333 -45 -40h-160c0 58.667 16.167 101.667 48.5 129s84.5 41 156.5 41c68.667 0 118.334 -11.333 149.001 -34s46 -51 46 -85
c0 -26 -5.83301 -45.167 -17.5 -57.5s-27.5 -21.833 -47.5 -28.5c20 -6.66699 37.5 -17.667 52.5 -33s22.5 -37 22.5 -65c0 -18 -3.66699 -34.667 -11 -50s-19.166 -28.5 -35.499 -39.5s-37.5 -19.667 -63.5 -26s-57.667 -9.5 -95 -9.5z" />
    <glyph glyph-name="acute" unicode="&#xb4;" horiz-adv-x="360" 
d="M130 740h210l-170 -160h-150z" />
    <glyph glyph-name="mu" unicode="&#xb5;" horiz-adv-x="610" 
d="M35 530l220.001 0.000976562v-310c0 -17.333 3.66699 -31.166 11 -41.499s19.666 -15.5 36.999 -15.5s30.333 5.16699 39 15.5s13 24.166 13 41.499v310h220v-530h-204v60c-8 -12.667 -16.833 -23.5 -26.5 -32.5s-19.5 -16.333 -29.5 -22s-19.833 -9.83398 -29.5 -12.501
s-18.167 -4 -25.5 -4h-5v-189h-220v730z" />
    <glyph glyph-name="paragraph" unicode="&#xb6;" horiz-adv-x="665" 
d="M170 306c-21.333 5.33301 -41.167 14.168 -59.5 26.501s-34.166 27 -47.499 44s-23.833 36 -31.5 57s-11.5 43.167 -11.5 66.5c0 27.333 5.33301 53.166 16 77.499s25 45.5 43 63.5s39.167 32.333 63.5 43s50.166 16 77.499 16h400v-900h-180v724h-90v-724h-180v506z" />
    <glyph glyph-name="periodcentered" unicode="&#xb7;" horiz-adv-x="340" 
d="M170 155c-16.667 0 -32.334 3.16699 -47.001 9.5s-27.334 14.833 -38.001 25.5s-19.167 23.334 -25.5 38.001s-9.5 30.334 -9.5 47.001c0 17.333 3.16699 33.333 9.5 48s14.833 27.334 25.5 38.001s23.334 19 38.001 25s30.334 9 47.001 9s32.334 -3 47.001 -9
s27.334 -14.333 38.001 -25s19.167 -23.334 25.5 -38.001s9.5 -30.667 9.5 -48c0 -16.667 -3.16699 -32.334 -9.5 -47.001s-14.833 -27.334 -25.5 -38.001s-23.334 -19.167 -38.001 -25.5s-30.334 -9.5 -47.001 -9.5z" />
    <glyph glyph-name="cedilla" unicode="&#xb8;" horiz-adv-x="270" 
d="M105 -215c-15.333 0 -28.1689 0.500977 -38.502 1.50098s-19.166 2.16699 -26.499 3.5c-8 1.33301 -14.667 3 -20 5v90c4 -1.33301 8.66699 -2.66602 14 -3.99902c8.66699 -2 20.667 -3 36 -3c17.333 0 29 1.66699 35 5s9 8.33301 9 15
c0 5.33301 -2.5 10.166 -7.5 14.499s-15.167 6.5 -30.5 6.5l17 91h88l-6 -44c24.667 -4 43.334 -13.333 56.001 -28s19 -32.334 19 -53.001c0 -30.667 -10.833 -55 -32.5 -73s-59.167 -27 -112.5 -27z" />
    <glyph glyph-name="uni00B9" unicode="&#xb9;" horiz-adv-x="300" 
d="M110 606l-100 -71v167l110 78h160v-400h-170v226z" />
    <glyph glyph-name="ordmasculine" unicode="&#xba;" horiz-adv-x="390" 
d="M195 365c-59.333 0 -105 15.333 -137 46s-48 72 -48 124v10c0 52 16 93.333 48 124s77.667 46 137 46s105 -15.333 137 -46s48 -72 48 -124v-10c0 -52 -16 -93.333 -48 -124s-77.667 -46 -137 -46zM195 495c7.33301 0 13.333 2.83301 18 8.5s7 16.167 7 31.5v10
c0 15.333 -2.33301 25.833 -7 31.5s-10.667 8.5 -18 8.5s-13.333 -2.83301 -18 -8.5s-7 -16.167 -7 -31.5v-10c0 -15.333 2.33301 -25.833 7 -31.5s10.667 -8.5 18 -8.5z" />
    <glyph glyph-name="guillemotright" unicode="&#xbb;" horiz-adv-x="525" 
d="M255 353v-176l-220 -177v206l75 54l-75 54v216zM510 353v-176l-220 -177v206l75 54l-75 54v216z" />
    <glyph glyph-name="onequarter" unicode="&#xbc;" horiz-adv-x="900" 
d="M580 700h200l-480 -700h-200zM106 527l-100 -71v167l110 78h160v-400h-170v226zM685 57h-220v102l184 242h196v-216h40v-128h-40v-56h-160v56zM685 185v94l-62 -94h62z" />
    <glyph glyph-name="onehalf" unicode="&#xbd;" horiz-adv-x="945" 
d="M580 700h200l-480 -700h-200zM106 527l-100 -71v167l110 78h160v-400h-170v226zM535 92l173.999 120.999c12 8 21.333 14.833 28 20.5s11.834 10.334 15.501 14.001s5.83398 7 6.50098 10s1 6.16699 1 9.5c0 12.667 -6.66699 19 -20 19c-10 0 -17.5 -2.83301 -22.5 -8.5
s-7.5 -16.167 -7.5 -31.5h-170c0 113.333 65 170 195 170c65.333 0 114.166 -12.167 146.499 -36.5s48.5 -55.5 48.5 -93.5c0 -12 -1.33301 -23.333 -4 -34s-7.83398 -21.5 -15.501 -32.5s-18.667 -22.5 -33 -34.5s-33.166 -25.667 -56.499 -41l-23 -15h137v-128h-400v91z
" />
    <glyph glyph-name="threequarters" unicode="&#xbe;" horiz-adv-x="1005" 
d="M685 700h200l-480 -700h-200zM215 268c-37.333 0 -69.002 3.5 -95.002 10.5s-47.167 17.5 -63.5 31.5s-28.166 31.833 -35.499 53.5s-11 47.5 -11 77.5h160c0 -16.667 3.5 -28 10.5 -34s20.167 -9 39.5 -9c15.333 0 25.833 2 31.5 6s8.5 9.33301 8.5 16c0 6 -3 11 -9 15
s-18.333 6 -37 6h-24v90h24c15.333 0 25.166 1.5 29.499 4.5s6.5 7.5 6.5 13.5c0 5.33301 -2.16699 9.5 -6.5 12.5s-13.833 4.5 -28.5 4.5c-30 0 -45 -13.333 -45 -40h-160c0 58.667 16.167 101.667 48.5 129s84.5 41 156.5 41c68.667 0 118.334 -11.333 149.001 -34
s46 -51 46 -85c0 -26 -5.83301 -45.167 -17.5 -57.5s-27.5 -21.833 -47.5 -28.5c20 -6.66699 37.5 -17.667 52.5 -33s22.5 -37 22.5 -65c0 -18 -3.66699 -34.667 -11 -50s-19.166 -28.5 -35.499 -39.5s-37.5 -19.667 -63.5 -26s-57.667 -9.5 -95 -9.5zM789.998 57h-220v102
l184 242h196v-216h40v-128h-40v-56h-160v56zM789.998 185v94l-62 -94h62z" />
    <glyph glyph-name="questiondown" unicode="&#xbf;" horiz-adv-x="560" 
d="M280 -215c-43.333 0 -81.332 5.00098 -113.999 15.001s-59.834 23.833 -81.501 41.5s-37.834 38.334 -48.501 62.001s-16 49.167 -16 76.5c0 22 2.5 41.833 7.5 59.5s11.667 33.5 20 47.5s17.666 26.5 27.999 37.5s20.833 20.5 31.5 28.5
c17.333 14 32.166 27.167 44.499 39.5s18.5 26.5 18.5 42.5v35h220v-70c0 -15.333 -3.16699 -29.833 -9.5 -43.5s-14.166 -26.334 -23.499 -38.001s-19.666 -22.334 -30.999 -32.001s-22.333 -18.5 -33 -26.5c-13.333 -9.33301 -24.5 -18.666 -33.5 -27.999
s-13.5 -20 -13.5 -32c0 -24.667 11.333 -37 34 -37s34 14 34 42h226c0 -31.333 -5.83301 -60.333 -17.5 -87s-28.667 -49.834 -51 -69.501s-49.666 -35.167 -81.999 -46.5s-68.833 -17 -109.5 -17zM280.001 305.001c-16.667 0 -32.334 3.16699 -47.001 9.5
s-27.334 14.833 -38.001 25.5s-19.167 23.334 -25.5 38.001s-9.5 30.334 -9.5 47.001c0 17.333 3.16699 33.333 9.5 48s14.833 27.334 25.5 38.001s23.334 19 38.001 25s30.334 9 47.001 9s32.334 -3 47.001 -9s27.334 -14.333 38.001 -25s19.167 -23.334 25.5 -38.001
s9.5 -30.667 9.5 -48c0 -16.667 -3.16699 -32.334 -9.5 -47.001s-14.833 -27.334 -25.5 -38.001s-23.334 -19.167 -38.001 -25.5s-30.334 -9.5 -47.001 -9.5z" />
    <glyph glyph-name="Agrave" unicode="&#xc0;" horiz-adv-x="764" 
d="M453 94h-182l-25 -94h-244l248 700h264l248 -700h-284zM322 286h79l-39 174zM127 900h230l110 -150h-170z" />
    <glyph glyph-name="Aacute" unicode="&#xc1;" horiz-adv-x="764" 
d="M453 94h-182l-25 -94h-244l248 700h264l248 -700h-284zM322 286h79l-39 174zM407 900h230l-170 -150h-170z" />
    <glyph glyph-name="Acircumflex" unicode="&#xc2;" horiz-adv-x="764" 
d="M453 94h-182l-25 -94h-244l248 700h264l248 -700h-284zM322 286h79l-39 174zM272 900h220l110 -150h-170l-50 45l-50 -45h-170z" />
    <glyph glyph-name="Atilde" unicode="&#xc3;" horiz-adv-x="764" 
d="M453 94h-182l-25 -94h-244l248 700h264l248 -700h-284zM322 286h79l-39 174zM457 730c-18.667 0 -34.6621 2.33105 -47.9951 6.99805s-25.833 9.83398 -37.5 15.501s-23.334 10.834 -35.001 15.501s-24.834 7 -39.501 7c-9.33301 0 -17.5 -2 -24.5 -6
s-13.167 -8.66699 -18.5 -14c-6.66699 -6 -12.334 -12.667 -17.001 -20l-75 75c8.66699 20 19.667 38.333 33 55c11.333 13.333 26.166 25.833 44.499 37.5s40.833 17.5 67.5 17.5c18.667 0 34.667 -2.16699 48 -6.5s25.833 -9 37.5 -14s23.167 -9.5 34.5 -13.5
s24.666 -6 39.999 -6c8.66699 0 16.667 1.66699 24 5s13.666 7.33301 18.999 12c6.66699 5.33301 12.334 11.333 17.001 18l75 -75c-8.66699 -20.667 -19.667 -39 -33 -55c-11.333 -14 -26.333 -26.667 -45 -38s-41 -17 -67 -17z" />
    <glyph glyph-name="Adieresis" unicode="&#xc4;" horiz-adv-x="764" 
d="M453 94h-182l-25 -94h-244l248 700h264l248 -700h-284zM322 286h79l-39 174zM247 740c-33.333 0 -60 7.83301 -80 23.5s-30 36.167 -30 61.5s10 45.833 30 61.5s46.667 23.5 80 23.5s60 -7.83301 80 -23.5s30 -36.167 30 -61.5s-10 -45.833 -30 -61.5
s-46.667 -23.5 -80 -23.5zM517 740c-33.333 0 -60 7.83301 -80 23.5s-30 36.167 -30 61.5s10 45.833 30 61.5s46.667 23.5 80 23.5s60 -7.83301 80 -23.5s30 -36.167 30 -61.5s-10 -45.833 -30 -61.5s-46.667 -23.5 -80 -23.5z" />
    <glyph glyph-name="Aring" unicode="&#xc5;" horiz-adv-x="764" 
d="M453 94h-182l-25 -94h-244l248 700h264l248 -700h-284zM322 286h79l-39 174zM382 730c-48 0 -85 10.167 -111 30.5s-39 48.5 -39 84.5s13 64.167 39 84.5s63 30.5 111 30.5s85 -10.167 111 -30.5s39 -48.5 39 -84.5s-13 -64.167 -39 -84.5s-63 -30.5 -111 -30.5zM382 820
c14.667 0 25 2.16699 31 6.5s9 10.5 9 18.5s-3 14.167 -9 18.5s-16.333 6.5 -31 6.5s-25 -2.16699 -31 -6.5s-9 -10.5 -9 -18.5s3 -14.167 9 -18.5s16.333 -6.5 31 -6.5z" />
    <glyph glyph-name="AE" unicode="&#xc6;" horiz-adv-x="1057" 
d="M402 700h630v-192h-286v-72h256v-162h-256v-82h286v-192h-550v94h-166l-50 -94h-264zM482 286v124l-65 -124h65z" />
    <glyph glyph-name="Ccedilla" unicode="&#xc7;" horiz-adv-x="725" 
d="M345 -215c-15.333 0 -28.1719 0.500977 -38.5049 1.50098s-19.166 2.16699 -26.499 3.5c-8 1.33301 -14.667 3 -20 5v94c4 -1.33301 8.66699 -2.66602 14 -3.99902c8.66699 -2 20.667 -3 36 -3c16 0 26.667 1.33301 32 4s8 6.66699 8 12c0 4 -2.33301 7.83301 -7 11.5
s-15 5.5 -31 5.5l13 72c-44 4 -84.5 13.5 -121.5 28.5s-69.167 37 -96.5 66s-48.666 65.167 -63.999 108.5s-23 95 -23 155v20c0 62 9.33301 115 28 159s44.167 80.167 76.5 108.5s70 49.166 113 62.499s88.833 20 137.5 20c44 0 85.833 -5.16699 125.5 -15.5
s74.834 -27.333 105.501 -51s55.334 -54.167 74.001 -91.5s28.667 -83 30 -137h-260c-3.33301 32 -12.333 53.5 -27 64.5s-30.667 16.5 -48 16.5c-11.333 0 -22 -2.33301 -32 -7s-19 -12.334 -27 -23.001s-14.333 -24.667 -19 -42s-7 -38.666 -7 -63.999v-20
c0 -50.667 7.83301 -87.667 23.5 -111s36.167 -35 61.5 -35c18 0 34.167 5.33301 48.5 16s23.166 32.334 26.499 65.001h260c-1.33301 -50.667 -9.66602 -93.834 -24.999 -129.501s-36 -65 -62 -88s-56.167 -40.5 -90.5 -52.5s-71.166 -19.667 -110.499 -23l-3 -21
c22.667 -4 40.167 -13.333 52.5 -28s18.5 -32.334 18.5 -53.001c0 -30.667 -10.833 -55 -32.5 -73s-59.167 -27 -112.5 -27z" />
    <glyph glyph-name="Egrave" unicode="&#xc8;" horiz-adv-x="615" 
d="M40 700h550v-192h-286v-72h256v-162h-256v-82h286v-192h-550v700zM60 900h230l110 -150h-170z" />
    <glyph glyph-name="Eacute" unicode="&#xc9;" horiz-adv-x="615" 
d="M40 700h550v-192h-286v-72h256v-162h-256v-82h286v-192h-550v700zM340 900h230l-170 -150h-170z" />
    <glyph glyph-name="Ecircumflex" unicode="&#xca;" horiz-adv-x="615" 
d="M40 700h550v-192h-286v-72h256v-162h-256v-82h286v-192h-550v700zM205 900h220l110 -150h-170l-50 45l-50 -45h-170z" />
    <glyph glyph-name="Edieresis" unicode="&#xcb;" horiz-adv-x="615" 
d="M40 700h550v-192h-286v-72h256v-162h-256v-82h286v-192h-550v700zM180 740c-33.333 0 -60 7.83301 -80 23.5s-30 36.167 -30 61.5s10 45.833 30 61.5s46.667 23.5 80 23.5s60 -7.83301 80 -23.5s30 -36.167 30 -61.5s-10 -45.833 -30 -61.5s-46.667 -23.5 -80 -23.5z
M450 740c-33.333 0 -60 7.83301 -80 23.5s-30 36.167 -30 61.5s10 45.833 30 61.5s46.667 23.5 80 23.5s60 -7.83301 80 -23.5s30 -36.167 30 -61.5s-10 -45.833 -30 -61.5s-46.667 -23.5 -80 -23.5z" />
    <glyph glyph-name="Igrave" unicode="&#xcc;" horiz-adv-x="354" 
d="M45 700h264v-700h-264v700zM-77 900h230l110 -150h-170z" />
    <glyph glyph-name="Iacute" unicode="&#xcd;" horiz-adv-x="354" 
d="M45 700h264v-700h-264v700zM202 900h230l-170 -150h-170z" />
    <glyph glyph-name="Icircumflex" unicode="&#xce;" horiz-adv-x="354" 
d="M45 700h264v-700h-264v700zM68 900h220l110 -150h-170l-50 45l-50 -45h-170z" />
    <glyph glyph-name="Idieresis" unicode="&#xcf;" horiz-adv-x="354" 
d="M45 700h264v-700h-264v700zM43 740c-33.333 0 -60 7.83301 -80 23.5s-30 36.167 -30 61.5s10 45.833 30 61.5s46.667 23.5 80 23.5s60 -7.83301 80 -23.5s30 -36.167 30 -61.5s-10 -45.833 -30 -61.5s-46.667 -23.5 -80 -23.5zM313 740c-33.333 0 -60 7.83301 -80 23.5
s-30 36.167 -30 61.5s10 45.833 30 61.5s46.667 23.5 80 23.5s60 -7.83301 80 -23.5s30 -36.167 30 -61.5s-10 -45.833 -30 -61.5s-46.667 -23.5 -80 -23.5z" />
    <glyph glyph-name="Eth" unicode="&#xd0;" horiz-adv-x="770" 
d="M90 254h-80v192h80v254h315c52.667 0 100.167 -7.16699 142.5 -21.5s78.5 -35.5 108.5 -63.5s53.167 -63 69.5 -105s24.5 -90.333 24.5 -145v-20c0 -56 -8.33301 -105.5 -25 -148.5s-40.5 -79 -71.5 -108s-68.333 -51 -112 -66s-92.5 -22.5 -146.5 -22.5h-305v254z
M395 212c12.667 0 24.167 2.00098 34.5 6.00098s19.333 11 27 21s13.5 23.667 17.5 41s6 39 6 65v20c0 47.333 -7 79.666 -21 96.999s-35.333 26 -64 26h-41v-42h66v-192h-66v-42h41z" />
    <glyph glyph-name="Ntilde" unicode="&#xd1;" horiz-adv-x="760" 
d="M40 700h214l222 -290v290h244v-700h-214l-222 290v-290h-244v700zM455 730c-18.667 0 -34.6621 2.33105 -47.9951 6.99805s-25.833 9.83398 -37.5 15.501s-23.334 10.834 -35.001 15.501s-24.834 7 -39.501 7c-9.33301 0 -17.5 -2 -24.5 -6s-13.167 -8.66699 -18.5 -14
c-6.66699 -6 -12.334 -12.667 -17.001 -20l-75 75c8.66699 20 19.667 38.333 33 55c11.333 13.333 26.166 25.833 44.499 37.5s40.833 17.5 67.5 17.5c18.667 0 34.667 -2.16699 48 -6.5s25.833 -9 37.5 -14s23.167 -9.5 34.5 -13.5s24.666 -6 39.999 -6
c8.66699 0 16.667 1.66699 24 5s13.666 7.33301 18.999 12c6.66699 5.33301 12.334 11.333 17.001 18l75 -75c-8.66699 -20.667 -19.667 -39 -33 -55c-11.333 -14 -26.333 -26.667 -45 -38s-41 -17 -67 -17z" />
    <glyph glyph-name="Ograve" unicode="&#xd2;" horiz-adv-x="760" 
d="M380 -15c-49.333 0 -95.833 7.00098 -139.5 21.001s-81.834 35.5 -114.501 64.5s-58.5 66.167 -77.5 111.5s-28.5 99.666 -28.5 162.999v20c0 60 9.5 111.833 28.5 155.5s44.833 80 77.5 109s70.834 50.5 114.501 64.5s90.167 21 139.5 21s95.833 -7 139.5 -21
s81.834 -35.5 114.501 -64.5s58.5 -65.333 77.5 -109s28.5 -95.5 28.5 -155.5v-20c0 -62 -9.5 -115.667 -28.5 -161s-44.833 -82.833 -77.5 -112.5s-70.834 -51.5 -114.501 -65.5s-90.167 -21 -139.5 -21zM380 199.001c28 0 50 11.167 66 33.5s24 59.833 24 112.5v20
c0 48 -8 82.667 -24 104s-38 32 -66 32s-50 -10.667 -66 -32s-24 -56 -24 -104v-20c0 -52.667 8 -90.167 24 -112.5s38 -33.5 66 -33.5zM125 900.001h230l110 -150h-170z" />
    <glyph glyph-name="Oacute" unicode="&#xd3;" horiz-adv-x="760" 
d="M380 -15c-49.333 0 -95.833 7.00098 -139.5 21.001s-81.834 35.5 -114.501 64.5s-58.5 66.167 -77.5 111.5s-28.5 99.666 -28.5 162.999v20c0 60 9.5 111.833 28.5 155.5s44.833 80 77.5 109s70.834 50.5 114.501 64.5s90.167 21 139.5 21s95.833 -7 139.5 -21
s81.834 -35.5 114.501 -64.5s58.5 -65.333 77.5 -109s28.5 -95.5 28.5 -155.5v-20c0 -62 -9.5 -115.667 -28.5 -161s-44.833 -82.833 -77.5 -112.5s-70.834 -51.5 -114.501 -65.5s-90.167 -21 -139.5 -21zM380 199.001c28 0 50 11.167 66 33.5s24 59.833 24 112.5v20
c0 48 -8 82.667 -24 104s-38 32 -66 32s-50 -10.667 -66 -32s-24 -56 -24 -104v-20c0 -52.667 8 -90.167 24 -112.5s38 -33.5 66 -33.5zM405 900.001h230l-170 -150h-170z" />
    <glyph glyph-name="Ocircumflex" unicode="&#xd4;" horiz-adv-x="760" 
d="M380 -15c-49.333 0 -95.833 7.00098 -139.5 21.001s-81.834 35.5 -114.501 64.5s-58.5 66.167 -77.5 111.5s-28.5 99.666 -28.5 162.999v20c0 60 9.5 111.833 28.5 155.5s44.833 80 77.5 109s70.834 50.5 114.501 64.5s90.167 21 139.5 21s95.833 -7 139.5 -21
s81.834 -35.5 114.501 -64.5s58.5 -65.333 77.5 -109s28.5 -95.5 28.5 -155.5v-20c0 -62 -9.5 -115.667 -28.5 -161s-44.833 -82.833 -77.5 -112.5s-70.834 -51.5 -114.501 -65.5s-90.167 -21 -139.5 -21zM380 199.001c28 0 50 11.167 66 33.5s24 59.833 24 112.5v20
c0 48 -8 82.667 -24 104s-38 32 -66 32s-50 -10.667 -66 -32s-24 -56 -24 -104v-20c0 -52.667 8 -90.167 24 -112.5s38 -33.5 66 -33.5zM270 900.001h220l110 -150h-170l-50 45l-50 -45h-170z" />
    <glyph glyph-name="Otilde" unicode="&#xd5;" horiz-adv-x="760" 
d="M380 -15c-49.333 0 -95.833 7.00098 -139.5 21.001s-81.834 35.5 -114.501 64.5s-58.5 66.167 -77.5 111.5s-28.5 99.666 -28.5 162.999v20c0 60 9.5 111.833 28.5 155.5s44.833 80 77.5 109s70.834 50.5 114.501 64.5s90.167 21 139.5 21s95.833 -7 139.5 -21
s81.834 -35.5 114.501 -64.5s58.5 -65.333 77.5 -109s28.5 -95.5 28.5 -155.5v-20c0 -62 -9.5 -115.667 -28.5 -161s-44.833 -82.833 -77.5 -112.5s-70.834 -51.5 -114.501 -65.5s-90.167 -21 -139.5 -21zM380 199.001c28 0 50 11.167 66 33.5s24 59.833 24 112.5v20
c0 48 -8 82.667 -24 104s-38 32 -66 32s-50 -10.667 -66 -32s-24 -56 -24 -104v-20c0 -52.667 8 -90.167 24 -112.5s38 -33.5 66 -33.5zM455 730.001c-18.667 0 -34.6621 2.33105 -47.9951 6.99805s-25.833 9.83398 -37.5 15.501s-23.334 10.834 -35.001 15.501
s-24.834 7 -39.501 7c-9.33301 0 -17.5 -2 -24.5 -6s-13.167 -8.66699 -18.5 -14c-6.66699 -6 -12.334 -12.667 -17.001 -20l-75 75c8.66699 20 19.667 38.333 33 55c11.333 13.333 26.166 25.833 44.499 37.5s40.833 17.5 67.5 17.5c18.667 0 34.667 -2.16699 48 -6.5
s25.833 -9 37.5 -14s23.167 -9.5 34.5 -13.5s24.666 -6 39.999 -6c8.66699 0 16.667 1.66699 24 5s13.666 7.33301 18.999 12c6.66699 5.33301 12.334 11.333 17.001 18l75 -75c-8.66699 -20.667 -19.667 -39 -33 -55c-11.333 -14 -26.333 -26.667 -45 -38s-41 -17 -67 -17z
" />
    <glyph glyph-name="Odieresis" unicode="&#xd6;" horiz-adv-x="760" 
d="M380 -15c-49.333 0 -95.833 7.00098 -139.5 21.001s-81.834 35.5 -114.501 64.5s-58.5 66.167 -77.5 111.5s-28.5 99.666 -28.5 162.999v20c0 60 9.5 111.833 28.5 155.5s44.833 80 77.5 109s70.834 50.5 114.501 64.5s90.167 21 139.5 21s95.833 -7 139.5 -21
s81.834 -35.5 114.501 -64.5s58.5 -65.333 77.5 -109s28.5 -95.5 28.5 -155.5v-20c0 -62 -9.5 -115.667 -28.5 -161s-44.833 -82.833 -77.5 -112.5s-70.834 -51.5 -114.501 -65.5s-90.167 -21 -139.5 -21zM380 199.001c28 0 50 11.167 66 33.5s24 59.833 24 112.5v20
c0 48 -8 82.667 -24 104s-38 32 -66 32s-50 -10.667 -66 -32s-24 -56 -24 -104v-20c0 -52.667 8 -90.167 24 -112.5s38 -33.5 66 -33.5zM245 740.001c-33.333 0 -60 7.83301 -80 23.5s-30 36.167 -30 61.5s10 45.833 30 61.5s46.667 23.5 80 23.5s60 -7.83301 80 -23.5
s30 -36.167 30 -61.5s-10 -45.833 -30 -61.5s-46.667 -23.5 -80 -23.5zM515 740.001c-33.333 0 -60 7.83301 -80 23.5s-30 36.167 -30 61.5s10 45.833 30 61.5s46.667 23.5 80 23.5s60 -7.83301 80 -23.5s30 -36.167 30 -61.5s-10 -45.833 -30 -61.5
s-46.667 -23.5 -80 -23.5z" />
    <glyph glyph-name="multiply" unicode="&#xd7;" 
d="M30 234l126 126l-126 126l144 144l126 -126l126 126l144 -144l-126 -126l126 -126l-144 -144l-126 126l-126 -126z" />
    <glyph glyph-name="Oslash" unicode="&#xd8;" horiz-adv-x="760" 
d="M380 -15c-35.333 0 -69.499 4 -102.499 12s-64.167 20.667 -93.5 38l-42 -50l-82 71l40 48c-25.333 29.333 -45 64 -59 104s-21 85.667 -21 137v20c0 60 9.5 111.833 28.5 155.5s44.833 80 77.5 109s70.834 50.5 114.501 64.5s90.167 21 139.5 21
c35.333 0 69.5 -4.16699 102.5 -12.5s63.833 -20.833 92.5 -37.5l43 50l82 -70l-41 -49c25.333 -28.667 45.166 -62.167 59.499 -100.5s21.5 -81.833 21.5 -130.5v-20c0 -62 -9.5 -115.667 -28.5 -161s-44.833 -82.833 -77.5 -112.5s-70.834 -51.5 -114.501 -65.5
s-90.167 -21 -139.5 -21zM380.001 189c32 0 56.667 11.832 74 35.499s26 63.834 26 120.501v20v9c0 2.66699 -0.333008 5.66699 -1 9l-153 -180c14 -9.33301 32 -14 54 -14zM380.001 510.999c-32 0 -56.667 -11.332 -74 -33.999s-26 -60 -26 -112v-20v-14
c0 -4.66699 0.333008 -9.33398 1 -14.001l152 180c-15.333 9.33301 -33 14 -53 14z" />
    <glyph glyph-name="Ugrave" unicode="&#xd9;" horiz-adv-x="740" 
d="M370 -15c-50 0 -95.5 5.83301 -136.5 17.5s-76.333 29.5 -106 53.5s-52.5 54.5 -68.5 91.5s-24 81.167 -24 132.5v420h264v-390c0 -17.333 0.666992 -33 2 -47s4.5 -25.667 9.5 -35s12.167 -16.5 21.5 -21.5s22 -7.5 38 -7.5s28.667 2.5 38 7.5s16.5 12.167 21.5 21.5
s8.16699 21 9.5 35s2 29.667 2 47v390h264v-420c0 -51.333 -8 -95.5 -24 -132.5s-38.833 -67.5 -68.5 -91.5s-65 -41.833 -106 -53.5s-86.5 -17.5 -136.5 -17.5zM115 900h230l110 -150h-170z" />
    <glyph glyph-name="Uacute" unicode="&#xda;" horiz-adv-x="740" 
d="M370 -15c-50 0 -95.5 5.83301 -136.5 17.5s-76.333 29.5 -106 53.5s-52.5 54.5 -68.5 91.5s-24 81.167 -24 132.5v420h264v-390c0 -17.333 0.666992 -33 2 -47s4.5 -25.667 9.5 -35s12.167 -16.5 21.5 -21.5s22 -7.5 38 -7.5s28.667 2.5 38 7.5s16.5 12.167 21.5 21.5
s8.16699 21 9.5 35s2 29.667 2 47v390h264v-420c0 -51.333 -8 -95.5 -24 -132.5s-38.833 -67.5 -68.5 -91.5s-65 -41.833 -106 -53.5s-86.5 -17.5 -136.5 -17.5zM395 900h230l-170 -150h-170z" />
    <glyph glyph-name="Ucircumflex" unicode="&#xdb;" horiz-adv-x="740" 
d="M370 -15c-50 0 -95.5 5.83301 -136.5 17.5s-76.333 29.5 -106 53.5s-52.5 54.5 -68.5 91.5s-24 81.167 -24 132.5v420h264v-390c0 -17.333 0.666992 -33 2 -47s4.5 -25.667 9.5 -35s12.167 -16.5 21.5 -21.5s22 -7.5 38 -7.5s28.667 2.5 38 7.5s16.5 12.167 21.5 21.5
s8.16699 21 9.5 35s2 29.667 2 47v390h264v-420c0 -51.333 -8 -95.5 -24 -132.5s-38.833 -67.5 -68.5 -91.5s-65 -41.833 -106 -53.5s-86.5 -17.5 -136.5 -17.5zM260 900h220l110 -150h-170l-50 45l-50 -45h-170z" />
    <glyph glyph-name="Udieresis" unicode="&#xdc;" horiz-adv-x="740" 
d="M370 -15c-50 0 -95.5 5.83301 -136.5 17.5s-76.333 29.5 -106 53.5s-52.5 54.5 -68.5 91.5s-24 81.167 -24 132.5v420h264v-390c0 -17.333 0.666992 -33 2 -47s4.5 -25.667 9.5 -35s12.167 -16.5 21.5 -21.5s22 -7.5 38 -7.5s28.667 2.5 38 7.5s16.5 12.167 21.5 21.5
s8.16699 21 9.5 35s2 29.667 2 47v390h264v-420c0 -51.333 -8 -95.5 -24 -132.5s-38.833 -67.5 -68.5 -91.5s-65 -41.833 -106 -53.5s-86.5 -17.5 -136.5 -17.5zM235 740c-33.333 0 -60 7.83301 -80 23.5s-30 36.167 -30 61.5s10 45.833 30 61.5s46.667 23.5 80 23.5
s60 -7.83301 80 -23.5s30 -36.167 30 -61.5s-10 -45.833 -30 -61.5s-46.667 -23.5 -80 -23.5zM505 740c-33.333 0 -60 7.83301 -80 23.5s-30 36.167 -30 61.5s10 45.833 30 61.5s46.667 23.5 80 23.5s60 -7.83301 80 -23.5s30 -36.167 30 -61.5s-10 -45.833 -30 -61.5
s-46.667 -23.5 -80 -23.5z" />
    <glyph glyph-name="Yacute" unicode="&#xdd;" horiz-adv-x="744" 
d="M250 245l-248 455h302l87 -185l79 185h272l-228 -455v-245h-264v245zM412 900h230l-170 -150h-170z" />
    <glyph glyph-name="Thorn" unicode="&#xde;" horiz-adv-x="685" 
d="M40 700h264v-87h61c107.333 0 185 -21.833 233 -65.5s72 -106.167 72 -187.5s-24 -143.833 -72 -187.5s-125.667 -65.5 -233 -65.5h-61v-107h-264v700zM334 299c27.333 0 46.168 6 56.501 18s15.5 26.333 15.5 43s-5.33301 31 -16 43s-29.334 18 -56.001 18h-30v-122h30z
" />
    <glyph glyph-name="germandbls" unicode="&#xdf;" horiz-adv-x="655" 
d="M40 460c0 38.667 5.66895 73.667 17.002 105s28.666 58.166 51.999 80.499s52.5 39.5 87.5 51.5s76.167 18 123.5 18c50 0 92.333 -4.66699 127 -14s62.5 -22.5 83.5 -39.5s36.167 -37.167 45.5 -60.5s14 -48.666 14 -75.999c0 -74.667 -33.333 -121.667 -100 -141
c25.333 -4 47 -11.667 65 -23s32.5 -24.833 43.5 -40.5s19 -32.667 24 -51s7.5 -36.5 7.5 -54.5v-10c0 -31.333 -4.5 -59.833 -13.5 -85.5s-24.333 -48 -46 -67s-50.334 -33.667 -86.001 -44s-80.5 -15.5 -134.5 -15.5c-7.33301 0 -15.666 0.166992 -24.999 0.5
s-17.666 1.16602 -24.999 2.49902v178c7.33301 -1.33301 15.666 -2.16602 24.999 -2.49902s17.666 -0.5 24.999 -0.5c19.333 0 34.166 5 44.499 15s15.5 24.333 15.5 43v10c0 17.333 -5.5 31.333 -16.5 42s-27.167 16 -48.5 16h-40v156h15c14.667 0 25.667 3.83301 33 11.5
s11 17.834 11 30.501c0 13.333 -3.66699 23.666 -11 30.999s-18.333 11 -33 11c-21.333 0 -36.666 -5.83301 -45.999 -17.5s-14 -31.5 -14 -59.5v-460h-220v460z" />
    <glyph glyph-name="agrave" unicode="&#xe0;" horiz-adv-x="580" 
d="M190 -15c-28.667 0 -54.1641 4.33301 -76.4971 13s-41.166 20.667 -56.499 36s-27 33.333 -35 54s-12 43 -12 67c0 52.667 16.333 94.334 49 125.001s84.667 46 156 46h115v14c0 17.333 -3.66699 29.5 -11 36.5s-17 10.5 -29 10.5
c-12.667 0 -21.834 -1.83301 -27.501 -5.5s-9.83398 -9.16699 -12.501 -16.5h-210c1.33301 26 7.33301 50 18 72s26.5 41 47.5 57s47.167 28.5 78.5 37.5s68.333 13.5 111 13.5c37.333 0 71.666 -4 102.999 -12s58.166 -20.833 80.499 -38.5s39.833 -40.834 52.5 -69.501
s19 -63.667 19 -105v-185c0 -28 0.833008 -52.5 2.5 -73.5s4.16699 -41.5 7.5 -61.5h-210c-2.66699 7.33301 -5 15.333 -7 24s-3 20.667 -3 36c-6 -10 -13 -19.5 -21 -28.5s-17.833 -17 -29.5 -24s-25.5 -12.5 -41.5 -16.5s-35.333 -6 -58 -6zM275.003 143
c36.667 0 55 19 55 57v10h-55c-26 0 -39 -11 -39 -33c0 -22.667 13 -34 39 -34zM50.0029 740h210l110 -160h-150z" />
    <glyph glyph-name="aacute" unicode="&#xe1;" horiz-adv-x="580" 
d="M190 -15c-28.667 0 -54.1641 4.33301 -76.4971 13s-41.166 20.667 -56.499 36s-27 33.333 -35 54s-12 43 -12 67c0 52.667 16.333 94.334 49 125.001s84.667 46 156 46h115v14c0 17.333 -3.66699 29.5 -11 36.5s-17 10.5 -29 10.5
c-12.667 0 -21.834 -1.83301 -27.501 -5.5s-9.83398 -9.16699 -12.501 -16.5h-210c1.33301 26 7.33301 50 18 72s26.5 41 47.5 57s47.167 28.5 78.5 37.5s68.333 13.5 111 13.5c37.333 0 71.666 -4 102.999 -12s58.166 -20.833 80.499 -38.5s39.833 -40.834 52.5 -69.501
s19 -63.667 19 -105v-185c0 -28 0.833008 -52.5 2.5 -73.5s4.16699 -41.5 7.5 -61.5h-210c-2.66699 7.33301 -5 15.333 -7 24s-3 20.667 -3 36c-6 -10 -13 -19.5 -21 -28.5s-17.833 -17 -29.5 -24s-25.5 -12.5 -41.5 -16.5s-35.333 -6 -58 -6zM275.003 143
c36.667 0 55 19 55 57v10h-55c-26 0 -39 -11 -39 -33c0 -22.667 13 -34 39 -34zM330.003 740h210l-170 -160h-150z" />
    <glyph glyph-name="acircumflex" unicode="&#xe2;" horiz-adv-x="580" 
d="M190 -15c-28.667 0 -54.1641 4.33301 -76.4971 13s-41.166 20.667 -56.499 36s-27 33.333 -35 54s-12 43 -12 67c0 52.667 16.333 94.334 49 125.001s84.667 46 156 46h115v14c0 17.333 -3.66699 29.5 -11 36.5s-17 10.5 -29 10.5
c-12.667 0 -21.834 -1.83301 -27.501 -5.5s-9.83398 -9.16699 -12.501 -16.5h-210c1.33301 26 7.33301 50 18 72s26.5 41 47.5 57s47.167 28.5 78.5 37.5s68.333 13.5 111 13.5c37.333 0 71.666 -4 102.999 -12s58.166 -20.833 80.499 -38.5s39.833 -40.834 52.5 -69.501
s19 -63.667 19 -105v-185c0 -28 0.833008 -52.5 2.5 -73.5s4.16699 -41.5 7.5 -61.5h-210c-2.66699 7.33301 -5 15.333 -7 24s-3 20.667 -3 36c-6 -10 -13 -19.5 -21 -28.5s-17.833 -17 -29.5 -24s-25.5 -12.5 -41.5 -16.5s-35.333 -6 -58 -6zM275.003 143
c36.667 0 55 19 55 57v10h-55c-26 0 -39 -11 -39 -33c0 -22.667 13 -34 39 -34zM195.003 740h200l110 -160h-150l-60 57l-60 -57h-150z" />
    <glyph glyph-name="atilde" unicode="&#xe3;" horiz-adv-x="580" 
d="M190 -15c-28.667 0 -54.1641 4.33301 -76.4971 13s-41.166 20.667 -56.499 36s-27 33.333 -35 54s-12 43 -12 67c0 52.667 16.333 94.334 49 125.001s84.667 46 156 46h115v14c0 17.333 -3.66699 29.5 -11 36.5s-17 10.5 -29 10.5
c-12.667 0 -21.834 -1.83301 -27.501 -5.5s-9.83398 -9.16699 -12.501 -16.5h-210c1.33301 26 7.33301 50 18 72s26.5 41 47.5 57s47.167 28.5 78.5 37.5s68.333 13.5 111 13.5c37.333 0 71.666 -4 102.999 -12s58.166 -20.833 80.499 -38.5s39.833 -40.834 52.5 -69.501
s19 -63.667 19 -105v-185c0 -28 0.833008 -52.5 2.5 -73.5s4.16699 -41.5 7.5 -61.5h-210c-2.66699 7.33301 -5 15.333 -7 24s-3 20.667 -3 36c-6 -10 -13 -19.5 -21 -28.5s-17.833 -17 -29.5 -24s-25.5 -12.5 -41.5 -16.5s-35.333 -6 -58 -6zM275.003 143
c36.667 0 55 19 55 57v10h-55c-26 0 -39 -11 -39 -33c0 -22.667 13 -34 39 -34zM360.003 575c-16 0 -30 2.33301 -42 7s-23.167 9.83398 -33.5 15.501s-20.5 10.834 -30.5 15.501s-21.333 7 -34 7c-9.33301 0 -17 -2 -23 -6s-11 -8.66699 -15 -14
c-4.66699 -6 -8.66699 -12.667 -12 -20l-75 65c8.66699 18.667 19.334 35.334 32.001 50.001c11.333 12.667 25.333 24.167 42 34.5s37 15.5 61 15.5c16 0 30 -2.33301 42 -7s23.167 -9.83398 33.5 -15.501s20.5 -10.834 30.5 -15.501s21.333 -7 34 -7
c8.66699 0 16.167 2 22.5 6s11.5 8.66699 15.5 14c4.66699 6 8.66699 12.667 12 20l75 -65c-8.66699 -18.667 -19.334 -35.334 -32.001 -50.001c-11.333 -12.667 -25.5 -24.167 -42.5 -34.5s-37.167 -15.5 -60.5 -15.5z" />
    <glyph glyph-name="adieresis" unicode="&#xe4;" horiz-adv-x="580" 
d="M190 -15c-28.667 0 -54.1641 4.33301 -76.4971 13s-41.166 20.667 -56.499 36s-27 33.333 -35 54s-12 43 -12 67c0 52.667 16.333 94.334 49 125.001s84.667 46 156 46h115v14c0 17.333 -3.66699 29.5 -11 36.5s-17 10.5 -29 10.5
c-12.667 0 -21.834 -1.83301 -27.501 -5.5s-9.83398 -9.16699 -12.501 -16.5h-210c1.33301 26 7.33301 50 18 72s26.5 41 47.5 57s47.167 28.5 78.5 37.5s68.333 13.5 111 13.5c37.333 0 71.666 -4 102.999 -12s58.166 -20.833 80.499 -38.5s39.833 -40.834 52.5 -69.501
s19 -63.667 19 -105v-185c0 -28 0.833008 -52.5 2.5 -73.5s4.16699 -41.5 7.5 -61.5h-210c-2.66699 7.33301 -5 15.333 -7 24s-3 20.667 -3 36c-6 -10 -13 -19.5 -21 -28.5s-17.833 -17 -29.5 -24s-25.5 -12.5 -41.5 -16.5s-35.333 -6 -58 -6zM275.003 143
c36.667 0 55 19 55 57v10h-55c-26 0 -39 -11 -39 -33c0 -22.667 13 -34 39 -34zM180.003 580c-28 0 -51.667 6.83301 -71 20.5s-29 33.5 -29 59.5s9.66699 45.833 29 59.5s43 20.5 71 20.5s51.667 -6.83301 71 -20.5s29 -33.5 29 -59.5s-9.66699 -45.833 -29 -59.5
s-43 -20.5 -71 -20.5zM410.003 580c-28 0 -51.667 6.83301 -71 20.5s-29 33.5 -29 59.5s9.66699 45.833 29 59.5s43 20.5 71 20.5s51.667 -6.83301 71 -20.5s29 -33.5 29 -59.5s-9.83301 -45.833 -29.5 -59.5s-43.167 -20.5 -70.5 -20.5z" />
    <glyph glyph-name="aring" unicode="&#xe5;" horiz-adv-x="580" 
d="M190 -15c-28.667 0 -54.1641 4.33301 -76.4971 13s-41.166 20.667 -56.499 36s-27 33.333 -35 54s-12 43 -12 67c0 52.667 16.333 94.334 49 125.001s84.667 46 156 46h115v14c0 17.333 -3.66699 29.5 -11 36.5s-17 10.5 -29 10.5
c-12.667 0 -21.834 -1.83301 -27.501 -5.5s-9.83398 -9.16699 -12.501 -16.5h-210c1.33301 26 7.33301 50 18 72s26.5 41 47.5 57s47.167 28.5 78.5 37.5s68.333 13.5 111 13.5c37.333 0 71.666 -4 102.999 -12s58.166 -20.833 80.499 -38.5s39.833 -40.834 52.5 -69.501
s19 -63.667 19 -105v-185c0 -28 0.833008 -52.5 2.5 -73.5s4.16699 -41.5 7.5 -61.5h-210c-2.66699 7.33301 -5 15.333 -7 24s-3 20.667 -3 36c-6 -10 -13 -19.5 -21 -28.5s-17.833 -17 -29.5 -24s-25.5 -12.5 -41.5 -16.5s-35.333 -6 -58 -6zM275.003 143
c36.667 0 55 19 55 57v10h-55c-26 0 -39 -11 -39 -33c0 -22.667 13 -34 39 -34zM295.003 565c-45.333 0 -80.833 10.167 -106.5 30.5s-38.5 48.5 -38.5 84.5s12.833 64.167 38.5 84.5s61.167 30.5 106.5 30.5s80.833 -10.167 106.5 -30.5s38.5 -48.5 38.5 -84.5
s-12.833 -64.167 -38.5 -84.5s-61.167 -30.5 -106.5 -30.5zM295.003 653c24.667 0 37 9 37 27s-12.333 27 -37 27s-37 -9 -37 -27s12.333 -27 37 -27z" />
    <glyph glyph-name="ae" unicode="&#xe6;" horiz-adv-x="915" 
d="M210 -15c-31.333 0 -59.334 4.33301 -84.001 13s-45.667 20.667 -63 36s-30.5 33.333 -39.5 54s-13.5 43 -13.5 67c0 52.667 16.333 94.334 49 125.001s84.667 46 156 46h115v12c0 18.667 -3.66699 31.5 -11 38.5s-17 10.5 -29 10.5
c-12.667 0 -21.834 -1.83301 -27.501 -5.5s-9.83398 -9.16699 -12.501 -16.5h-210c1.33301 26 7.33301 50 18 72s26.167 41 46.5 57s45.5 28.5 75.5 37.5s65 13.5 105 13.5c42.667 0 77.334 -4.5 104.001 -13.5s48.667 -21.167 66 -36.5c23.333 17.333 49 30 77 38
s59 12 93 12c92.667 0 161.667 -23.167 207 -69.5s68 -114.5 68 -204.5v-61h-347c2.66699 -22.667 9.16699 -39.5 19.5 -50.5s27.833 -16.5 52.5 -16.5c18.667 0 32.334 3.16699 41.001 9.5s15 13.833 19 22.5h210c-10 -65.333 -37.5 -113.333 -82.5 -144
s-104.167 -46 -177.5 -46c-19.333 0 -38.666 1.83301 -57.999 5.5s-38 8.66699 -56 15s-34.333 14.333 -49 24s-27 20.5 -37 32.5c-12.667 -12 -26.167 -22.667 -40.5 -32s-30.5 -17.333 -48.5 -24s-38.167 -11.834 -60.5 -15.501s-47.5 -5.5 -75.5 -5.5zM274.999 143
c36.667 0 55 19 55 57v10h-55c-26 0 -39 -11 -39 -33c0 -22.667 13 -34 39 -34zM619.999 387c-22.667 0 -38.5 -5.5 -47.5 -16.5s-15.167 -25.833 -18.5 -44.5h128c-2 17.333 -7.5 31.833 -16.5 43.5s-24.167 17.5 -45.5 17.5z" />
    <glyph glyph-name="ccedilla" unicode="&#xe7;" horiz-adv-x="590" 
d="M265 -215c-15.333 0 -28.1689 0.50293 -38.502 1.50293s-19.166 2.16699 -26.499 3.5c-8 1.33301 -14.667 3 -20 5v90c4 -1.33301 8.66699 -2.66602 14 -3.99902c8.66699 -2 20.667 -3 36 -3c17.333 0 29 1.66699 35 5s9 8.33301 9 15c0 5.33301 -2.5 10.166 -7.5 14.499
s-15.167 6.5 -30.5 6.5l13 69c-36 4.66699 -68.5 14.334 -97.5 29.001s-53.5 33.834 -73.5 57.501s-35.5 51.167 -46.5 82.5s-16.5 65.666 -16.5 102.999v20c0 38.667 6.66699 74.167 20 106.5s32.166 60.333 56.499 84s53.666 42 87.999 55s72.833 19.5 115.5 19.5
c50.667 0 93.334 -6 128.001 -18s62.834 -28.667 84.501 -50s37.667 -46.333 48 -75s16.833 -59.334 19.5 -92.001h-206c-2.66699 21.333 -9 36.166 -19 44.499s-23.333 12.5 -40 12.5c-22.667 0 -39.834 -7.5 -51.501 -22.5s-17.5 -36.5 -17.5 -64.5v-20
c0 -64.667 23 -97 69 -97c15.333 0 28.333 4.16699 39 12.5s17.334 23.166 20.001 44.499h206c-2 -34 -8 -64.667 -18 -92s-24.5 -51 -43.5 -71s-43 -36 -72 -48s-63.5 -19.333 -103.5 -22l-3 -21c24.667 -4 43.334 -13.333 56.001 -28s19 -32.334 19 -53.001
c0 -30.667 -10.833 -55 -32.5 -73s-59.167 -27 -112.5 -27z" />
    <glyph glyph-name="egrave" unicode="&#xe8;" 
d="M310 -15c-44 0 -83.999 5.66895 -119.999 17.002s-67 28.166 -93 50.499s-46.167 50.333 -60.5 84s-21.5 73.167 -21.5 118.5v20c0 44.667 6.83301 84 20.5 118s33 62.167 58 84.5s55 39.166 90 50.499s73.833 17 116.5 17c97.333 0 169.166 -23.167 215.499 -69.5
s69.5 -114.833 69.5 -205.5v-60h-347c2.66699 -22.667 9.16699 -39.5 19.5 -50.5s27.833 -16.5 52.5 -16.5c18.667 0 32.334 3.16699 41.001 9.5s15 13.833 19 22.5h210c-10 -65.333 -37.833 -113.333 -83.5 -144s-107.834 -46 -186.501 -46zM305.001 387.002
c-22.667 0 -38.833 -5.83301 -48.5 -17.5s-15.5 -26.167 -17.5 -43.5h128c-2 17.333 -7.66699 31.833 -17 43.5s-24.333 17.5 -45 17.5zM55.002 740.002h210l110 -160h-150z" />
    <glyph glyph-name="eacute" unicode="&#xe9;" 
d="M310 -15c-44 0 -83.999 5.66895 -119.999 17.002s-67 28.166 -93 50.499s-46.167 50.333 -60.5 84s-21.5 73.167 -21.5 118.5v20c0 44.667 6.83301 84 20.5 118s33 62.167 58 84.5s55 39.166 90 50.499s73.833 17 116.5 17c97.333 0 169.166 -23.167 215.499 -69.5
s69.5 -114.833 69.5 -205.5v-60h-347c2.66699 -22.667 9.16699 -39.5 19.5 -50.5s27.833 -16.5 52.5 -16.5c18.667 0 32.334 3.16699 41.001 9.5s15 13.833 19 22.5h210c-10 -65.333 -37.833 -113.333 -83.5 -144s-107.834 -46 -186.501 -46zM305.001 387.002
c-22.667 0 -38.833 -5.83301 -48.5 -17.5s-15.5 -26.167 -17.5 -43.5h128c-2 17.333 -7.66699 31.833 -17 43.5s-24.333 17.5 -45 17.5zM335.002 740.002h210l-170 -160h-150z" />
    <glyph glyph-name="ecircumflex" unicode="&#xea;" 
d="M310 -15c-44 0 -83.999 5.66895 -119.999 17.002s-67 28.166 -93 50.499s-46.167 50.333 -60.5 84s-21.5 73.167 -21.5 118.5v20c0 44.667 6.83301 84 20.5 118s33 62.167 58 84.5s55 39.166 90 50.499s73.833 17 116.5 17c97.333 0 169.166 -23.167 215.499 -69.5
s69.5 -114.833 69.5 -205.5v-60h-347c2.66699 -22.667 9.16699 -39.5 19.5 -50.5s27.833 -16.5 52.5 -16.5c18.667 0 32.334 3.16699 41.001 9.5s15 13.833 19 22.5h210c-10 -65.333 -37.833 -113.333 -83.5 -144s-107.834 -46 -186.501 -46zM305.001 387.002
c-22.667 0 -38.833 -5.83301 -48.5 -17.5s-15.5 -26.167 -17.5 -43.5h128c-2 17.333 -7.66699 31.833 -17 43.5s-24.333 17.5 -45 17.5zM200.002 740.002h200l110 -160h-150l-60 57l-60 -57h-150z" />
    <glyph glyph-name="edieresis" unicode="&#xeb;" 
d="M310 -15c-44 0 -83.999 5.66895 -119.999 17.002s-67 28.166 -93 50.499s-46.167 50.333 -60.5 84s-21.5 73.167 -21.5 118.5v20c0 44.667 6.83301 84 20.5 118s33 62.167 58 84.5s55 39.166 90 50.499s73.833 17 116.5 17c97.333 0 169.166 -23.167 215.499 -69.5
s69.5 -114.833 69.5 -205.5v-60h-347c2.66699 -22.667 9.16699 -39.5 19.5 -50.5s27.833 -16.5 52.5 -16.5c18.667 0 32.334 3.16699 41.001 9.5s15 13.833 19 22.5h210c-10 -65.333 -37.833 -113.333 -83.5 -144s-107.834 -46 -186.501 -46zM305.001 387.002
c-22.667 0 -38.833 -5.83301 -48.5 -17.5s-15.5 -26.167 -17.5 -43.5h128c-2 17.333 -7.66699 31.833 -17 43.5s-24.333 17.5 -45 17.5zM185.002 580.002c-28 0 -51.667 6.83301 -71 20.5s-29 33.5 -29 59.5s9.66699 45.833 29 59.5s43 20.5 71 20.5
s51.667 -6.83301 71 -20.5s29 -33.5 29 -59.5s-9.66699 -45.833 -29 -59.5s-43 -20.5 -71 -20.5zM415.002 580.002c-28 0 -51.667 6.83301 -71 20.5s-29 33.5 -29 59.5s9.66699 45.833 29 59.5s43 20.5 71 20.5s51.667 -6.83301 71 -20.5s29 -33.5 29 -59.5
s-9.83301 -45.833 -29.5 -59.5s-43.167 -20.5 -70.5 -20.5z" />
    <glyph glyph-name="igrave" unicode="&#xec;" horiz-adv-x="300" 
d="M40 530h220v-530h-220v530zM-94 740h210l110 -160h-150z" />
    <glyph glyph-name="iacute" unicode="&#xed;" horiz-adv-x="300" 
d="M40 530h220v-530h-220v530zM185 740h210l-170 -160h-150z" />
    <glyph glyph-name="icircumflex" unicode="&#xee;" horiz-adv-x="300" 
d="M40 530h220v-530h-220v530zM51 740h200l110 -160h-150l-60 57l-60 -57h-150z" />
    <glyph glyph-name="idieresis" unicode="&#xef;" horiz-adv-x="300" 
d="M40 530h220v-530h-220v530zM36 580c-28 0 -51.667 6.83301 -71 20.5s-29 33.5 -29 59.5s9.66699 45.833 29 59.5s43 20.5 71 20.5s51.667 -6.83301 71 -20.5s29 -33.5 29 -59.5s-9.66699 -45.833 -29 -59.5s-43 -20.5 -71 -20.5zM266 580c-28 0 -51.667 6.83301 -71 20.5
s-29 33.5 -29 59.5s9.66699 45.833 29 59.5s43 20.5 71 20.5s51.667 -6.83301 71 -20.5s29 -33.5 29 -59.5s-9.83301 -45.833 -29.5 -59.5s-43.167 -20.5 -70.5 -20.5z" />
    <glyph glyph-name="eth" unicode="&#xf0;" horiz-adv-x="625" 
d="M310 -15c-42.667 0 -82 5.66602 -118 16.999s-67.167 28.333 -93.5 51s-46.833 50.334 -61.5 83.001s-22 70.667 -22 114v20c0 40.667 7.33301 76.834 22 108.501s34.5 58.334 59.5 80.001s54.167 38.167 87.5 49.5s68.666 17 105.999 17
c26.667 0 51.334 -3.33301 74.001 -10c-21.333 25.333 -49 46.666 -83 63.999l-22 -43l-81 39l20 38c-14 5.33301 -28.667 10.166 -44 14.499l-49 13.5l52 129c39.333 -9.33301 75 -19.333 107 -30l25 48l81 -39l-23 -43c48 -23.333 88.5 -49.5 121.5 -78.5
s59.667 -60.667 80 -95s34.833 -71 43.5 -110s13 -79.833 13 -122.5v-20c0 -50.667 -7.33301 -94.5 -22 -131.5s-35.167 -67.667 -61.5 -92s-57.5 -42.333 -93.5 -54s-75.333 -17.5 -118 -17.5zM310 162.999c19.333 0 35.667 7 49 21s20 34.333 20 61v20
c0 26.667 -6.5 47 -19.5 61s-29.5 21 -49.5 21s-36.5 -7 -49.5 -21s-19.5 -34.333 -19.5 -61v-20c0 -26.667 6.5 -47 19.5 -61s29.5 -21 49.5 -21z" />
    <glyph glyph-name="ntilde" unicode="&#xf1;" horiz-adv-x="605" 
d="M35 530l203.999 -0.000976562v-60c12 20.667 30.833 38.334 56.5 53.001s60.5 22 104.5 22c56.667 0 100 -16 130 -48s45 -79.333 45 -142v-355h-220v310c0 17.333 -3.66699 31.166 -11 41.499s-18.666 15.5 -33.999 15.5c-19.333 0 -33.333 -5.16699 -42 -15.5
s-13 -24.166 -13 -41.499v-310h-220v530zM369.999 574.999c-16 0 -30 2.33301 -42 7s-23.167 9.83398 -33.5 15.501s-20.5 10.834 -30.5 15.501s-21.333 7 -34 7c-9.33301 0 -17 -2 -23 -6s-11 -8.66699 -15 -14c-4.66699 -6 -8.66699 -12.667 -12 -20l-75 65
c8.66699 18.667 19.334 35.334 32.001 50.001c11.333 12.667 25.333 24.167 42 34.5s37 15.5 61 15.5c16 0 30 -2.33301 42 -7s23.167 -9.83398 33.5 -15.501s20.5 -10.834 30.5 -15.501s21.333 -7 34 -7c8.66699 0 16.167 2 22.5 6s11.5 8.66699 15.5 14
c4.66699 6 8.66699 12.667 12 20l75 -65c-8.66699 -18.667 -19.334 -35.334 -32.001 -50.001c-11.333 -12.667 -25.5 -24.167 -42.5 -34.5s-37.167 -15.5 -60.5 -15.5z" />
    <glyph glyph-name="ograve" unicode="&#xf2;" horiz-adv-x="610" 
d="M305 -15c-40.667 0 -78.667 5.49707 -114 16.4971s-66 27.833 -92 50.5s-46.5 51.334 -61.5 86.001s-22.5 75.334 -22.5 122.001v20c0 43.333 7.5 81.5 22.5 114.5s35.5 60.667 61.5 83s56.667 39.166 92 50.499s73.333 17 114 17s78.667 -5.66699 114 -17
s66 -28.166 92 -50.499s46.5 -50 61.5 -83s22.5 -71.167 22.5 -114.5v-20c0 -45.333 -7.5 -85.166 -22.5 -119.499s-35.5 -63 -61.5 -86s-56.667 -40.333 -92 -52s-73.333 -17.5 -114 -17.5zM305 162.997c20 0 35.667 7.33301 47 22s17 39.667 17 75v20
c0 30.667 -5.66699 52.834 -17 66.501s-27 20.5 -47 20.5s-35.667 -6.83301 -47 -20.5s-17 -35.834 -17 -66.501v-20c0 -35.333 5.66699 -60.333 17 -75s27 -22 47 -22zM60 739.997h210l110 -160h-150z" />
    <glyph glyph-name="oacute" unicode="&#xf3;" horiz-adv-x="610" 
d="M305 -15c-40.667 0 -78.667 5.49707 -114 16.4971s-66 27.833 -92 50.5s-46.5 51.334 -61.5 86.001s-22.5 75.334 -22.5 122.001v20c0 43.333 7.5 81.5 22.5 114.5s35.5 60.667 61.5 83s56.667 39.166 92 50.499s73.333 17 114 17s78.667 -5.66699 114 -17
s66 -28.166 92 -50.499s46.5 -50 61.5 -83s22.5 -71.167 22.5 -114.5v-20c0 -45.333 -7.5 -85.166 -22.5 -119.499s-35.5 -63 -61.5 -86s-56.667 -40.333 -92 -52s-73.333 -17.5 -114 -17.5zM305 162.997c20 0 35.667 7.33301 47 22s17 39.667 17 75v20
c0 30.667 -5.66699 52.834 -17 66.501s-27 20.5 -47 20.5s-35.667 -6.83301 -47 -20.5s-17 -35.834 -17 -66.501v-20c0 -35.333 5.66699 -60.333 17 -75s27 -22 47 -22zM340 739.997h210l-170 -160h-150z" />
    <glyph glyph-name="ocircumflex" unicode="&#xf4;" horiz-adv-x="610" 
d="M305 -15c-40.667 0 -78.667 5.49707 -114 16.4971s-66 27.833 -92 50.5s-46.5 51.334 -61.5 86.001s-22.5 75.334 -22.5 122.001v20c0 43.333 7.5 81.5 22.5 114.5s35.5 60.667 61.5 83s56.667 39.166 92 50.499s73.333 17 114 17s78.667 -5.66699 114 -17
s66 -28.166 92 -50.499s46.5 -50 61.5 -83s22.5 -71.167 22.5 -114.5v-20c0 -45.333 -7.5 -85.166 -22.5 -119.499s-35.5 -63 -61.5 -86s-56.667 -40.333 -92 -52s-73.333 -17.5 -114 -17.5zM305 162.997c20 0 35.667 7.33301 47 22s17 39.667 17 75v20
c0 30.667 -5.66699 52.834 -17 66.501s-27 20.5 -47 20.5s-35.667 -6.83301 -47 -20.5s-17 -35.834 -17 -66.501v-20c0 -35.333 5.66699 -60.333 17 -75s27 -22 47 -22zM205 739.997h200l110 -160h-150l-60 57l-60 -57h-150z" />
    <glyph glyph-name="otilde" unicode="&#xf5;" horiz-adv-x="610" 
d="M305 -15c-40.667 0 -78.667 5.49707 -114 16.4971s-66 27.833 -92 50.5s-46.5 51.334 -61.5 86.001s-22.5 75.334 -22.5 122.001v20c0 43.333 7.5 81.5 22.5 114.5s35.5 60.667 61.5 83s56.667 39.166 92 50.499s73.333 17 114 17s78.667 -5.66699 114 -17
s66 -28.166 92 -50.499s46.5 -50 61.5 -83s22.5 -71.167 22.5 -114.5v-20c0 -45.333 -7.5 -85.166 -22.5 -119.499s-35.5 -63 -61.5 -86s-56.667 -40.333 -92 -52s-73.333 -17.5 -114 -17.5zM305 162.997c20 0 35.667 7.33301 47 22s17 39.667 17 75v20
c0 30.667 -5.66699 52.834 -17 66.501s-27 20.5 -47 20.5s-35.667 -6.83301 -47 -20.5s-17 -35.834 -17 -66.501v-20c0 -35.333 5.66699 -60.333 17 -75s27 -22 47 -22zM370 574.997c-16 0 -30 2.33301 -42 7s-23.167 9.83398 -33.5 15.501s-20.5 10.834 -30.5 15.501
s-21.333 7 -34 7c-9.33301 0 -17 -2 -23 -6s-11 -8.66699 -15 -14c-4.66699 -6 -8.66699 -12.667 -12 -20l-75 65c8.66699 18.667 19.334 35.334 32.001 50.001c11.333 12.667 25.333 24.167 42 34.5s37 15.5 61 15.5c16 0 30 -2.33301 42 -7s23.167 -9.83398 33.5 -15.501
s20.5 -10.834 30.5 -15.501s21.333 -7 34 -7c8.66699 0 16.167 2 22.5 6s11.5 8.66699 15.5 14c4.66699 6 8.66699 12.667 12 20l75 -65c-8.66699 -18.667 -19.334 -35.334 -32.001 -50.001c-11.333 -12.667 -25.5 -24.167 -42.5 -34.5s-37.167 -15.5 -60.5 -15.5z" />
    <glyph glyph-name="odieresis" unicode="&#xf6;" horiz-adv-x="610" 
d="M305 -15c-40.667 0 -78.667 5.49707 -114 16.4971s-66 27.833 -92 50.5s-46.5 51.334 -61.5 86.001s-22.5 75.334 -22.5 122.001v20c0 43.333 7.5 81.5 22.5 114.5s35.5 60.667 61.5 83s56.667 39.166 92 50.499s73.333 17 114 17s78.667 -5.66699 114 -17
s66 -28.166 92 -50.499s46.5 -50 61.5 -83s22.5 -71.167 22.5 -114.5v-20c0 -45.333 -7.5 -85.166 -22.5 -119.499s-35.5 -63 -61.5 -86s-56.667 -40.333 -92 -52s-73.333 -17.5 -114 -17.5zM305 162.997c20 0 35.667 7.33301 47 22s17 39.667 17 75v20
c0 30.667 -5.66699 52.834 -17 66.501s-27 20.5 -47 20.5s-35.667 -6.83301 -47 -20.5s-17 -35.834 -17 -66.501v-20c0 -35.333 5.66699 -60.333 17 -75s27 -22 47 -22zM190 579.997c-28 0 -51.667 6.83301 -71 20.5s-29 33.5 -29 59.5s9.66699 45.833 29 59.5
s43 20.5 71 20.5s51.667 -6.83301 71 -20.5s29 -33.5 29 -59.5s-9.66699 -45.833 -29 -59.5s-43 -20.5 -71 -20.5zM420 579.997c-28 0 -51.667 6.83301 -71 20.5s-29 33.5 -29 59.5s9.66699 45.833 29 59.5s43 20.5 71 20.5s51.667 -6.83301 71 -20.5s29 -33.5 29 -59.5
s-9.83301 -45.833 -29.5 -59.5s-43.167 -20.5 -70.5 -20.5z" />
    <glyph glyph-name="divide" unicode="&#xf7;" 
d="M25 466h550v-212h-550v212zM300 -5c-16.667 0 -32.334 3.16699 -47.001 9.5s-27.334 14.833 -38.001 25.5s-19.167 23.334 -25.5 38.001s-9.5 30.334 -9.5 47.001c0 17.333 3.16699 33.333 9.5 48s14.833 27.334 25.5 38.001s23.334 19 38.001 25s30.334 9 47.001 9
s32.334 -3 47.001 -9s27.334 -14.333 38.001 -25s19.167 -23.334 25.5 -38.001s9.5 -30.667 9.5 -48c0 -16.667 -3.16699 -32.334 -9.5 -47.001s-14.833 -27.334 -25.5 -38.001s-23.334 -19.167 -38.001 -25.5s-30.334 -9.5 -47.001 -9.5zM300 485
c-16.667 0 -32.334 3.16699 -47.001 9.5s-27.334 14.833 -38.001 25.5s-19.167 23.334 -25.5 38.001s-9.5 30.334 -9.5 47.001c0 17.333 3.16699 33.333 9.5 48s14.833 27.334 25.5 38.001s23.334 19 38.001 25s30.334 9 47.001 9s32.334 -3 47.001 -9
s27.334 -14.333 38.001 -25s19.167 -23.334 25.5 -38.001s9.5 -30.667 9.5 -48c0 -16.667 -3.16699 -32.334 -9.5 -47.001s-14.833 -27.334 -25.5 -38.001s-23.334 -19.167 -38.001 -25.5s-30.334 -9.5 -47.001 -9.5z" />
    <glyph glyph-name="oslash" unicode="&#xf8;" horiz-adv-x="610" 
d="M305 -15c-58 0 -110.333 11.332 -157 33.999l-30 -34l-68 60l26 30c-19.333 22 -34.333 48.333 -45 79s-16 66 -16 106v20c0 43.333 7.5 81.5 22.5 114.5s35.5 60.667 61.5 83s56.667 39.166 92 50.499s73.333 17 114 17c58.667 0 110.667 -11.667 156 -35l31 35l68 -60
l-26 -30c19.333 -21.333 34.333 -46.666 45 -75.999s16 -62.333 16 -99v-20c0 -45.333 -7.5 -85.166 -22.5 -119.499s-35.5 -63 -61.5 -86s-56.667 -40.333 -92 -52s-73.333 -17.5 -114 -17.5zM305 152.999c23.333 0 41.5 8 54.5 24s19.5 42 19.5 78v20v5l-107 -121
c8.66699 -4 19.667 -6 33 -6zM305 376.999c-23.333 0 -41.5 -7.83203 -54.5 -23.499s-19.5 -41.834 -19.5 -78.501v-20v-5l107 121c-10 4 -21 6 -33 6z" />
    <glyph glyph-name="ugrave" unicode="&#xf9;" horiz-adv-x="605" 
d="M205 -15c-56.667 0 -99.999 16.001 -129.999 48.001s-45 79.333 -45 142v355h220v-310c0 -17.333 3.66699 -31.166 11 -41.499s19.666 -15.5 36.999 -15.5s30.333 5.16699 39 15.5s13 24.166 13 41.499v310h220v-530h-204v60c-12 -20.667 -30.833 -38.334 -56.5 -53.001
s-60.5 -22 -104.5 -22zM55.001 740.001h210l110 -160h-150z" />
    <glyph glyph-name="uacute" unicode="&#xfa;" horiz-adv-x="605" 
d="M205 -15c-56.667 0 -99.999 16.001 -129.999 48.001s-45 79.333 -45 142v355h220v-310c0 -17.333 3.66699 -31.166 11 -41.499s19.666 -15.5 36.999 -15.5s30.333 5.16699 39 15.5s13 24.166 13 41.499v310h220v-530h-204v60c-12 -20.667 -30.833 -38.334 -56.5 -53.001
s-60.5 -22 -104.5 -22zM335.001 740.001h210l-170 -160h-150z" />
    <glyph glyph-name="ucircumflex" unicode="&#xfb;" horiz-adv-x="605" 
d="M205 -15c-56.667 0 -99.999 16.001 -129.999 48.001s-45 79.333 -45 142v355h220v-310c0 -17.333 3.66699 -31.166 11 -41.499s19.666 -15.5 36.999 -15.5s30.333 5.16699 39 15.5s13 24.166 13 41.499v310h220v-530h-204v60c-12 -20.667 -30.833 -38.334 -56.5 -53.001
s-60.5 -22 -104.5 -22zM200.001 740.001h200l110 -160h-150l-60 57l-60 -57h-150z" />
    <glyph glyph-name="udieresis" unicode="&#xfc;" horiz-adv-x="605" 
d="M205 -15c-56.667 0 -99.999 16.001 -129.999 48.001s-45 79.333 -45 142v355h220v-310c0 -17.333 3.66699 -31.166 11 -41.499s19.666 -15.5 36.999 -15.5s30.333 5.16699 39 15.5s13 24.166 13 41.499v310h220v-530h-204v60c-12 -20.667 -30.833 -38.334 -56.5 -53.001
s-60.5 -22 -104.5 -22zM185.001 580.001c-28 0 -51.667 6.83301 -71 20.5s-29 33.5 -29 59.5s9.66699 45.833 29 59.5s43 20.5 71 20.5s51.667 -6.83301 71 -20.5s29 -33.5 29 -59.5s-9.66699 -45.833 -29 -59.5s-43 -20.5 -71 -20.5zM415.001 580.001
c-28 0 -51.667 6.83301 -71 20.5s-29 33.5 -29 59.5s9.66699 45.833 29 59.5s43 20.5 71 20.5s51.667 -6.83301 71 -20.5s29 -33.5 29 -59.5s-9.83301 -45.833 -29.5 -59.5s-43.167 -20.5 -70.5 -20.5z" />
    <glyph glyph-name="yacute" unicode="&#xfd;" horiz-adv-x="624" 
d="M152 -215c-10 0 -20 0.99707 -30 2.99707v178c10 -2 20 -3 30 -3c18 0 31 2.5 39 7.5s15 14.833 21 29.5l-210 530h235l94 -280l86 280h205l-190 -530c-13.333 -37.333 -28 -69.666 -44 -96.999s-35 -49.666 -57 -66.999s-47.5 -30.166 -76.5 -38.499
s-63.167 -12.5 -102.5 -12.5zM362 739.997h210l-170 -160h-150z" />
    <glyph glyph-name="thorn" unicode="&#xfe;" horiz-adv-x="625" 
d="M35 700l220 -0.000976562v-225c16.667 23.333 37.5 40.833 62.5 52.5s52.5 17.5 82.5 17.5c31.333 0 60 -5.66699 86 -17s48.167 -28.166 66.5 -50.499s32.5 -50.5 42.5 -84.5s15 -73.333 15 -118v-20c0 -46.667 -5.66699 -87 -17 -121s-26.5 -62 -45.5 -84
s-41.167 -38.333 -66.5 -49s-52.333 -16 -81 -16c-30 0 -57.5 5.83301 -82.5 17.5s-45.833 29.167 -62.5 52.5v-255h-220v900zM322 162.999c14 0 27.833 6.83301 41.5 20.5s20.5 37.5 20.5 71.5v20c0 33.333 -6.33301 57 -19 71s-27.334 21 -44.001 21
c-17.333 0 -32.666 -6.83301 -45.999 -20.5s-20 -35.834 -20 -66.501v-30c0 -31.333 7 -53.666 21 -66.999s29.333 -20 46 -20z" />
    <glyph glyph-name="ydieresis" unicode="&#xff;" horiz-adv-x="624" 
d="M152 -215c-10 0 -20 0.99707 -30 2.99707v178c10 -2 20 -3 30 -3c18 0 31 2.5 39 7.5s15 14.833 21 29.5l-210 530h235l94 -280l86 280h205l-190 -530c-13.333 -37.333 -28 -69.666 -44 -96.999s-35 -49.666 -57 -66.999s-47.5 -30.166 -76.5 -38.499
s-63.167 -12.5 -102.5 -12.5zM212 579.997c-28 0 -51.667 6.83301 -71 20.5s-29 33.5 -29 59.5s9.66699 45.833 29 59.5s43 20.5 71 20.5s51.667 -6.83301 71 -20.5s29 -33.5 29 -59.5s-9.66699 -45.833 -29 -59.5s-43 -20.5 -71 -20.5zM442 579.997
c-28 0 -51.667 6.83301 -71 20.5s-29 33.5 -29 59.5s9.66699 45.833 29 59.5s43 20.5 71 20.5s51.667 -6.83301 71 -20.5s29 -33.5 29 -59.5s-9.83301 -45.833 -29.5 -59.5s-43.167 -20.5 -70.5 -20.5z" />
    <glyph glyph-name="dotlessi" unicode="&#x131;" horiz-adv-x="300" 
d="M40 530h220v-530h-220v530z" />
    <glyph glyph-name="Lslash" unicode="&#x141;" horiz-adv-x="630" 
d="M90 142l-80 -46v212l80 47v345h264v-193l126 73v-212l-126 -73v-83h256v-212h-520v142z" />
    <glyph glyph-name="lslash" unicode="&#x142;" horiz-adv-x="410" 
d="M295 -8c-27.333 0 -53.3291 1.83203 -77.9961 5.49902s-46.5 12.167 -65.5 25.5s-34 33.333 -45 60s-16.5 63 -16.5 109v4l-80 -46v176l80 46v328h220v-201l80 46v-176l-80 -46v-65c0 -16 0.666992 -29.667 2 -41s4.16602 -20.5 8.49902 -27.5s10.666 -12 18.999 -15
s19.5 -4.5 33.5 -4.5h8.5c2.33301 0 5.16602 0.333008 8.49902 1v-175c-6.66699 -0.666992 -15 -1.16699 -25 -1.5l-29 -1c-9.33301 -0.333008 -17.833 -0.666016 -25.5 -0.999023s-12.834 -0.5 -15.501 -0.5z" />
    <glyph glyph-name="OE" unicode="&#x152;" horiz-adv-x="1075" 
d="M355 -15c-43.333 0 -85 7.00195 -125 21.002s-75.667 35.5 -107 64.5s-56.333 66.167 -75 111.5s-28 99.666 -28 162.999v20c0 60 9.33301 111.833 28 155.5s43.667 80 75 109s67 50.5 107 64.5s81.667 21 125 21c26 0 51.833 -2.33301 77.5 -7
s48.167 -11.334 67.5 -20.001v12h550v-192h-286v-72h256v-162h-256v-82h286v-192h-550v13c-19.333 -9.33301 -41.833 -16.333 -67.5 -21s-51.5 -7 -77.5 -7zM380 199.002c28 0 50 11.167 66 33.5s24 59.833 24 112.5v20c0 48 -8 82.667 -24 104s-38 32 -66 32
s-50 -10.667 -66 -32s-24 -56 -24 -104v-20c0 -52.667 8 -90.167 24 -112.5s38 -33.5 66 -33.5z" />
    <glyph glyph-name="oe" unicode="&#x153;" horiz-adv-x="970" 
d="M310 -15c-40.667 0 -78.999 5.50098 -114.999 16.501s-67.333 27.833 -94 50.5s-47.667 51.334 -63 86.001s-23 75.334 -23 122.001v20c0 43.333 7.66699 81.5 23 114.5s36.333 60.667 63 83s58 39.166 94 50.499s74.333 17 115 17c34.667 0 67.5 -5.33301 98.5 -16
s58.5 -26.334 82.5 -47.001c22 21.333 48.167 37.166 78.5 47.499s63.833 15.5 100.5 15.5c97.333 0 169.166 -23.167 215.499 -69.5s69.5 -114.833 69.5 -205.5v-60h-347c2.66699 -22.667 9.16699 -39.5 19.5 -50.5s27.833 -16.5 52.5 -16.5
c18.667 0 32.334 3.16699 41.001 9.5s15 13.833 19 22.5h210c-10 -65.333 -37.833 -113.333 -83.5 -144s-107.834 -46 -186.501 -46s-141.667 21.667 -189 65c-24 -21.333 -51.5 -37.5 -82.5 -48.5s-63.833 -16.5 -98.5 -16.5zM310.001 163.001
c14.667 0 26.667 3.16699 36 9.5s16.333 14.333 21 24s7.83398 20.167 9.50098 31.5s2.5 22 2.5 32v20c0 8 -0.833008 17 -2.5 27s-4.83398 19.5 -9.50098 28.5s-11.667 16.5 -21 22.5s-21.333 9 -36 9c-15.333 0 -27.5 -3 -36.5 -9s-15.833 -13.5 -20.5 -22.5
s-7.83398 -18.5 -9.50098 -28.5s-2.5 -19 -2.5 -27v-20c0 -10 0.833008 -20.667 2.5 -32s4.83398 -21.833 9.50098 -31.5s11.5 -17.667 20.5 -24s21.167 -9.5 36.5 -9.5zM675.001 387.001c-22.667 0 -38.833 -5.83301 -48.5 -17.5s-15.5 -26.167 -17.5 -43.5h128
c-2 17.333 -7.66699 31.833 -17 43.5s-24.333 17.5 -45 17.5z" />
    <glyph glyph-name="Scaron" unicode="&#x160;" horiz-adv-x="670" 
d="M335 -15c-100 0 -176.667 17.833 -230 53.5s-85 92.834 -95 171.501h264c2 -14 7.33301 -24.333 16 -31s23.667 -10 45 -10c23.333 0 39.333 2.5 48 7.5s13 12.833 13 23.5c0 6 -1.66699 11 -5 15s-9.83301 8 -19.5 12s-23.334 8.16699 -41.001 12.5
s-41.167 9.5 -70.5 15.5c-33.333 6.66699 -64 15.5 -92 26.5s-52.333 25.5 -73 43.5s-36.667 40.167 -48 66.5s-17 57.5 -17 93.5c0 38.667 7.33301 72.5 22 101.5s35.5 53 62.5 72s59.167 33.167 96.5 42.5s78.666 14 123.999 14c95.333 0 168.333 -19.333 219 -58
s81 -91 91 -157h-264c-1.33301 9.33301 -5.5 16.833 -12.5 22.5s-18.167 8.5 -33.5 8.5c-27.333 0 -41 -10.333 -41 -31c0 -6 1.83301 -11.333 5.5 -16s9.83398 -8.83398 18.501 -12.501s20.5 -7.16699 35.5 -10.5s33.833 -7 56.5 -11
c29.333 -5.33301 58.833 -12.5 88.5 -21.5s56.5 -21.833 80.5 -38.5s43.5 -38.167 58.5 -64.5s22.5 -59.5 22.5 -99.5c0 -41.333 -7.66699 -77.166 -23 -107.499s-37.166 -55.333 -65.499 -75s-62.5 -34.334 -102.5 -44.001s-84.667 -14.5 -134 -14.5zM115 900h170l50 -45
l50 45h170l-110 -150h-220z" />
    <glyph glyph-name="scaron" unicode="&#x161;" horiz-adv-x="560" 
d="M280 -15c-49.333 0 -90.501 5.32812 -123.501 15.9951s-59.667 24.834 -80 42.501s-35.5 37.5 -45.5 59.5s-17 44.333 -21 67h220c1.33301 -7.33301 5.16602 -13.666 11.499 -18.999s19.166 -8 38.499 -8c21.333 0 35 1.83301 41 5.5s9 9.5 9 17.5
c0 2.66699 -1.16699 5.33398 -3.5 8.00098s-7 5.16699 -14 7.5s-17.333 5 -31 8s-31.5 6.5 -53.5 10.5c-23.333 4 -47.166 9.16699 -71.499 15.5s-46.166 15.666 -65.499 27.999s-35.166 28.166 -47.499 47.499s-18.5 44 -18.5 74c0 56.667 22.5 100.834 67.5 132.501
s107.5 47.5 187.5 47.5c44.667 0 82.5 -5.5 113.5 -16.5s56.333 -25.167 76 -42.5s34.167 -37.166 43.5 -59.499s15 -44.5 17 -66.5h-220c-1.33301 10.667 -4.83301 17.834 -10.5 21.501s-13.834 5.5 -24.501 5.5c-11.333 0 -19.166 -1.66699 -23.499 -5
s-6.5 -7.33301 -6.5 -12c0 -4 1 -7.5 3 -10.5s5.66699 -5.66699 11 -8s12.833 -4.66602 22.5 -6.99902s22.167 -4.5 37.5 -6.5c22.667 -3.33301 47.334 -8.5 74.001 -15.5s51.667 -17 75 -30s42.833 -29.833 58.5 -50.5s23.5 -46 23.5 -76
c0 -59.333 -23.833 -104.333 -71.5 -135s-113.834 -46 -198.501 -46zM69.999 739.995h150l60 -57l60 57h150l-110 -160h-200z" />
    <glyph glyph-name="Ydieresis" unicode="&#x178;" horiz-adv-x="744" 
d="M250 245l-248 455h302l87 -185l79 185h272l-228 -455v-245h-264v245zM252 740c-33.333 0 -60 7.83301 -80 23.5s-30 36.167 -30 61.5s10 45.833 30 61.5s46.667 23.5 80 23.5s60 -7.83301 80 -23.5s30 -36.167 30 -61.5s-10 -45.833 -30 -61.5s-46.667 -23.5 -80 -23.5z
M522 740c-33.333 0 -60 7.83301 -80 23.5s-30 36.167 -30 61.5s10 45.833 30 61.5s46.667 23.5 80 23.5s60 -7.83301 80 -23.5s30 -36.167 30 -61.5s-10 -45.833 -30 -61.5s-46.667 -23.5 -80 -23.5z" />
    <glyph glyph-name="Zcaron" unicode="&#x17d;" horiz-adv-x="650" 
d="M20 182l270 306h-260v212h590v-182l-270 -306h280v-212h-610v182zM105 900h170l50 -45l50 45h170l-110 -150h-220z" />
    <glyph glyph-name="zcaron" unicode="&#x17e;" horiz-adv-x="520" 
d="M20 146l184 208h-174v176h460v-146l-184 -208h194v-176h-480v146zM50 740h150l60 -57l60 57h150l-110 -160h-200z" />
    <glyph glyph-name="florin" unicode="&#x192;" horiz-adv-x="390" 
d="M65 -215c-10 0 -20.834 0.166016 -32.501 0.499023s-22.5 1.16602 -32.5 2.49902v138c6 -1.33301 10.833 -2.16602 14.5 -2.49902s7.83398 -0.5 12.501 -0.5c16.667 0 28 2.5 34 7.5s9 12.167 9 21.5v402h-60v176h60v35c0 22 3.5 41.667 10.5 59s19.5 32.166 37.5 44.499
s42.167 21.833 72.5 28.5s68.5 10 114.5 10c10 0 22.833 -0.166992 38.5 -0.5s31.167 -1.16602 46.5 -2.49902v-138c-22 2 -37.667 3 -47 3c-21.333 0 -35.5 -2.5 -42.5 -7.5s-10.5 -12.167 -10.5 -21.5v-10h90v-176h-90v-427c0 -22 -3.5 -41.667 -10.5 -59
s-19.167 -32.166 -36.5 -44.499s-40.333 -21.833 -69 -28.5s-65 -10 -109 -10z" />
    <glyph glyph-name="uni0237" unicode="&#x237;" horiz-adv-x="300" 
d="M24 -215c-7.33301 0 -15.5 0.167969 -24.5 0.500977s-17.167 1.16602 -24.5 2.49902v178c10 -2 19.667 -3 29 -3c11.333 0 20.166 4 26.499 12s9.5 24.667 9.5 50v505h220v-530c0 -42.667 -5.33301 -77.834 -16 -105.501s-26.167 -49.667 -46.5 -66
s-45.166 -27.666 -74.499 -33.999s-62.333 -9.5 -99 -9.5z" />
    <glyph glyph-name="afii57929" unicode="&#x2bc;" horiz-adv-x="315" 
d="M65 500v200h210v-200l-140 -175h-110z" />
    <glyph glyph-name="circumflex" unicode="&#x2c6;" horiz-adv-x="460" 
d="M130 740h200l110 -160h-150l-60 57l-60 -57h-150z" />
    <glyph glyph-name="caron" unicode="&#x2c7;" horiz-adv-x="460" 
d="M20 740h150l60 -57l60 57h150l-110 -160h-200z" />
    <glyph glyph-name="dotaccent" unicode="&#x2d9;" horiz-adv-x="280" 
d="M140 580c-40 0 -70 7.16699 -90 21.5s-30 33.833 -30 58.5s10 44.167 30 58.5s50 21.5 90 21.5s70 -7.16699 90 -21.5s30 -33.833 30 -58.5s-10 -44.167 -30 -58.5s-50 -21.5 -90 -21.5z" />
    <glyph glyph-name="ring" unicode="&#x2da;" horiz-adv-x="330" 
d="M165 565c-45.333 0 -80.833 10.167 -106.5 30.5s-38.5 48.5 -38.5 84.5s12.833 64.167 38.5 84.5s61.167 30.5 106.5 30.5s80.833 -10.167 106.5 -30.5s38.5 -48.5 38.5 -84.5s-12.833 -64.167 -38.5 -84.5s-61.167 -30.5 -106.5 -30.5zM165 653c24.667 0 37 9 37 27
s-12.333 27 -37 27s-37 -9 -37 -27s12.333 -27 37 -27z" />
    <glyph glyph-name="tilde" unicode="&#x2dc;" horiz-adv-x="440" 
d="M285 575c-16 0 -30 2.33301 -42 7s-23.167 9.83398 -33.5 15.501s-20.5 10.834 -30.5 15.501s-21.333 7 -34 7c-9.33301 0 -17 -2 -23 -6s-11 -8.66699 -15 -14c-4.66699 -6 -8.66699 -12.667 -12 -20l-75 65c8.66699 18.667 19.334 35.334 32.001 50.001
c11.333 12.667 25.333 24.167 42 34.5s37 15.5 61 15.5c16 0 30 -2.33301 42 -7s23.167 -9.83398 33.5 -15.501s20.5 -10.834 30.5 -15.501s21.333 -7 34 -7c8.66699 0 16.167 2 22.5 6s11.5 8.66699 15.5 14c4.66699 6 8.66699 12.667 12 20l75 -65
c-8.66699 -18.667 -19.334 -35.334 -32.001 -50.001c-11.333 -12.667 -25.5 -24.167 -42.5 -34.5s-37.167 -15.5 -60.5 -15.5z" />
    <glyph glyph-name="afii10023" unicode="&#x401;" horiz-adv-x="615" 
d="M40 700h550v-192h-286v-72h256v-162h-256v-82h286v-192h-550v700zM180 740c-33.333 0 -60 7.83301 -80 23.5s-30 36.167 -30 61.5s10 45.833 30 61.5s46.667 23.5 80 23.5s60 -7.83301 80 -23.5s30 -36.167 30 -61.5s-10 -45.833 -30 -61.5s-46.667 -23.5 -80 -23.5z
M450 740c-33.333 0 -60 7.83301 -80 23.5s-30 36.167 -30 61.5s10 45.833 30 61.5s46.667 23.5 80 23.5s60 -7.83301 80 -23.5s30 -36.167 30 -61.5s-10 -45.833 -30 -61.5s-46.667 -23.5 -80 -23.5z" />
    <glyph glyph-name="afii10051" unicode="&#x402;" horiz-adv-x="855" 
d="M203 488h-183.001v212h630v-212h-183v-92c17.333 11.333 38.5 21 63.5 29s56.167 12 93.5 12c66 0 117.667 -18.667 155 -56s56 -89.333 56 -156v-20c0 -66.667 -20.833 -118.667 -62.5 -156s-104.167 -56 -187.5 -56c-11.333 0 -25.5 0.333008 -42.5 1
s-31.167 1.66699 -42.5 3v183c8 -2 16.333 -3 25 -3c26 0 39 11 39 33v10c0 21.333 -13 32 -39 32c-14.667 0 -26.167 -1.83301 -34.5 -5.5s-16.166 -8.16699 -23.499 -13.5v-233h-264v488z" />
    <glyph glyph-name="afii10052" unicode="&#x403;" horiz-adv-x="570" 
d="M40 700h510v-212h-246v-488h-264v700zM318 900h230l-170 -150h-170z" />
    <glyph glyph-name="afii10053" unicode="&#x404;" horiz-adv-x="725" 
d="M375 -15c-50 0 -96.6709 6.5 -140.004 19.5s-80.833 33.833 -112.5 62.5s-56.667 65.834 -75 111.501s-27.5 101.167 -27.5 166.5v20c0 62 9.33301 115 28 159s44.167 80.167 76.5 108.5s70 49.166 113 62.499s88.833 20 137.5 20c44 0 85.833 -5.16699 125.5 -15.5
s74.834 -27.333 105.501 -51s55.334 -54.167 74.001 -91.5s28.667 -83 30 -137h-240c-3.33301 26.667 -13.666 46.834 -30.999 60.501s-38.666 20.5 -63.999 20.5c-26 0 -46.833 -5 -62.5 -15s-27.167 -27 -34.5 -51h154v-172h-151c14.667 -42.667 46 -64 94 -64
c25.333 0 46.666 6.66699 63.999 20s27.666 33.666 30.999 60.999h240c-1.33301 -55.333 -11.166 -101.833 -29.499 -139.5s-42.666 -68 -72.999 -91s-65.5 -39.5 -105.5 -49.5s-82.333 -15 -127 -15z" />
    <glyph glyph-name="afii10054" unicode="&#x405;" horiz-adv-x="670" 
d="M335 -15c-100 0 -176.667 17.833 -230 53.5s-85 92.834 -95 171.501h264c2 -14 7.33301 -24.333 16 -31s23.667 -10 45 -10c23.333 0 39.333 2.5 48 7.5s13 12.833 13 23.5c0 6 -1.66699 11 -5 15s-9.83301 8 -19.5 12s-23.334 8.16699 -41.001 12.5
s-41.167 9.5 -70.5 15.5c-33.333 6.66699 -64 15.5 -92 26.5s-52.333 25.5 -73 43.5s-36.667 40.167 -48 66.5s-17 57.5 -17 93.5c0 38.667 7.33301 72.5 22 101.5s35.5 53 62.5 72s59.167 33.167 96.5 42.5s78.666 14 123.999 14c95.333 0 168.333 -19.333 219 -58
s81 -91 91 -157h-264c-1.33301 9.33301 -5.5 16.833 -12.5 22.5s-18.167 8.5 -33.5 8.5c-27.333 0 -41 -10.333 -41 -31c0 -6 1.83301 -11.333 5.5 -16s9.83398 -8.83398 18.501 -12.501s20.5 -7.16699 35.5 -10.5s33.833 -7 56.5 -11
c29.333 -5.33301 58.833 -12.5 88.5 -21.5s56.5 -21.833 80.5 -38.5s43.5 -38.167 58.5 -64.5s22.5 -59.5 22.5 -99.5c0 -41.333 -7.66699 -77.166 -23 -107.499s-37.166 -55.333 -65.499 -75s-62.5 -34.334 -102.5 -44.001s-84.667 -14.5 -134 -14.5z" />
    <glyph glyph-name="afii10055" unicode="&#x406;" horiz-adv-x="354" 
d="M45 700h264v-700h-264v700z" />
    <glyph glyph-name="afii10056" unicode="&#x407;" horiz-adv-x="354" 
d="M45 700h264v-700h-264v700zM43 740c-33.333 0 -60 7.83301 -80 23.5s-30 36.167 -30 61.5s10 45.833 30 61.5s46.667 23.5 80 23.5s60 -7.83301 80 -23.5s30 -36.167 30 -61.5s-10 -45.833 -30 -61.5s-46.667 -23.5 -80 -23.5zM313 740c-33.333 0 -60 7.83301 -80 23.5
s-30 36.167 -30 61.5s10 45.833 30 61.5s46.667 23.5 80 23.5s60 -7.83301 80 -23.5s30 -36.167 30 -61.5s-10 -45.833 -30 -61.5s-46.667 -23.5 -80 -23.5z" />
    <glyph glyph-name="afii10057" unicode="&#x408;" horiz-adv-x="610" 
d="M285 -15c-42 0 -80.1689 5.83105 -114.502 17.498s-63.666 29.5 -87.999 53.5s-43.333 54.5 -57 91.5s-20.5 81.167 -20.5 132.5h224c0 -29.333 3.16699 -50.166 9.5 -62.499s16.833 -18.5 31.5 -18.5c18 0 29.333 5.5 34 16.5s7 29.167 7 54.5v430h264v-430
c0 -55.333 -7.33301 -101.166 -22 -137.499s-35 -65.5 -61 -87.5s-56.667 -37.5 -92 -46.5s-73.666 -13.5 -114.999 -13.5z" />
    <glyph glyph-name="afii10058" unicode="&#x409;" horiz-adv-x="1055" 
d="M65 -15c-5.33301 0 -14.499 0.167969 -27.499 0.500977s-22.167 1.16602 -27.5 2.49902v212c3.33301 -0.666992 8.33301 -1 15 -1c14 0 26 3 36 9s18.167 18.333 24.5 37s11.166 45.167 14.499 79.5s5 79.5 5 135.5v240h570v-204h60c107.333 0 185 -21.333 233 -64
s72 -102.334 72 -179.001c0 -81.333 -24 -143.833 -72 -187.5s-125.667 -65.5 -233 -65.5h-324v488h-62v-48c0 -69.333 -3.33301 -128.666 -10 -177.999s-16 -90.833 -28 -124.5s-26.667 -60.5 -44 -80.5s-36.5 -35.333 -57.5 -46s-43.667 -17.667 -68 -21
s-49.833 -5 -76.5 -5zM704.001 192.001c26.667 0 45.332 6 55.999 18s16 26.333 16 43s-5.16699 31 -15.5 43s-29.166 18 -56.499 18h-29v-122h29z" />
    <glyph glyph-name="afii10059" unicode="&#x40a;" horiz-adv-x="1100" 
d="M40 700l264 -0.000976562v-224h152v224h264v-224h60c107.333 0 185 -20.333 233 -61s72 -98 72 -172c0 -79.333 -24 -139.666 -72 -180.999s-125.667 -62 -233 -62h-324v264h-152v-264h-264v700zM749 191.999c26.667 0 45.332 4.33105 55.999 12.998s16 21.334 16 38.001
s-5.16699 29.334 -15.5 38.001s-29.166 13 -56.499 13h-29v-102h29z" />
    <glyph glyph-name="afii10060" unicode="&#x40b;" horiz-adv-x="855" 
d="M203 488h-182.999v212h630v-212h-183v-92c17.333 11.333 38.5 21 63.5 29s56.167 12 93.5 12c72 0 125.167 -18.167 159.5 -54.5s51.5 -94.833 51.5 -175.5v-207h-264v155c0 27.333 -3.83301 45.5 -11.5 54.5s-20.834 13.5 -39.501 13.5c-20 0 -37.667 -4.66699 -53 -14
v-209h-264v488z" />
    <glyph glyph-name="afii10061" unicode="&#x40c;" horiz-adv-x="765" 
d="M40 700h264v-257h30l136 257h280l-195 -325l205 -375h-296l-130 267h-30v-267h-264v700zM412 900h230l-170 -150h-170z" />
    <glyph glyph-name="afii10062" unicode="&#x40e;" horiz-adv-x="744" 
d="M220 -15c-7.33301 0 -15.667 0.833984 -25 2.50098s-17 3.5 -23 5.5v194c9.33301 -2 20 -3.66699 32 -5s22.667 -2 32 -2c12.667 0 23.667 1.33301 33 4s15.333 6.66699 18 12l-285 504h294l104 -220l78 220h264l-206 -515c-16 -40.667 -33 -73.834 -51 -99.501
s-39 -46 -63 -61s-52.167 -25.333 -84.5 -31s-71.5 -8.5 -117.5 -8.5zM386.999 740.001c-42.667 0 -78.667 3.33301 -108 10s-53 17 -71 31s-31 31.667 -39 53s-12 46.666 -12 75.999h190c0 -22.667 3.33301 -38 10 -46s16.667 -12 30 -12s23.333 4 30 12s10 23.333 10 46
h190c0 -29.333 -4 -54.666 -12 -75.999s-21 -39 -39 -53s-41.667 -24.333 -71 -31s-65.333 -10 -108 -10z" />
    <glyph glyph-name="afii10145" unicode="&#x40f;" horiz-adv-x="740" 
d="M253 0h-213v700h264v-488h132v488h264v-700h-223v-130h-224v130z" />
    <glyph glyph-name="afii10017" unicode="&#x410;" horiz-adv-x="764" 
d="M453 94h-182l-25 -94h-244l248 700h264l248 -700h-284zM322 286h79l-39 174z" />
    <glyph glyph-name="afii10018" unicode="&#x411;" horiz-adv-x="700" 
d="M40 700l575 0.000976562v-182h-311v-64h66c54.667 0 101.667 -5.16699 141 -15.5s71.5 -25 96.5 -44s43.333 -42.333 55 -70s17.5 -58.5 17.5 -92.5c0 -36.667 -5.83301 -69.334 -17.5 -98.001s-30 -53 -55 -73s-57.167 -35.167 -96.5 -45.5s-86.333 -15.5 -141 -15.5
h-330v700zM345 182.001c22 0 38.333 3.66699 49 11s16 20.333 16 39s-5.33301 31.667 -16 39s-27 11 -49 11h-41v-100h41z" />
    <glyph glyph-name="afii10019" unicode="&#x412;" horiz-adv-x="730" 
d="M40 700l405 -0.000976562c79.333 0 138.333 -15 177 -45s58 -77.333 58 -142c0 -36 -8.83301 -66.833 -26.5 -92.5s-42.167 -44.167 -73.5 -55.5c86.667 -20 130 -75.667 130 -167c0 -65.333 -20.667 -114.666 -62 -147.999s-109.333 -50 -204 -50h-404v700zM364 171.999
c31.333 0 52.833 4 64.5 12s17.5 22 17.5 42c0 19.333 -6 33 -18 41s-34 12 -66 12h-58v-107h60zM351 430.999c22.667 0 39.166 3.83398 49.499 11.501s15.5 20.167 15.5 37.5s-5.16699 29.666 -15.5 36.999s-26.166 11 -47.499 11h-49v-97h47z" />
    <glyph glyph-name="afii10020" unicode="&#x413;" horiz-adv-x="570" 
d="M40 700h510v-212h-246v-488h-264v700z" />
    <glyph glyph-name="afii10021" unicode="&#x414;" horiz-adv-x="775" 
d="M10 212h60c17.333 40 30.833 83 40.5 129s14.5 99 14.5 159v200h565v-488h70v-342h-224v130h-302v-130h-224v342zM426 212v276h-77v-73c0 -36 -2.33301 -71.833 -7 -107.5s-11.667 -67.5 -21 -95.5h105z" />
    <glyph glyph-name="afii10022" unicode="&#x415;" horiz-adv-x="615" 
d="M40 700h550v-192h-286v-72h256v-162h-256v-82h286v-192h-550v700z" />
    <glyph glyph-name="afii10024" unicode="&#x416;" horiz-adv-x="1090" 
d="M175 353l-160 347h272l106 -257h20v257h264v-257h20l114 257h264l-160 -322l170 -378h-280l-108 267h-20v-267h-264v267h-20l-116 -267h-272z" />
    <glyph glyph-name="afii10025" unicode="&#x417;" horiz-adv-x="720" 
d="M360 -15c-61.333 0 -113.5 7.50195 -156.5 22.502s-78 35.833 -105 62.5s-46.833 58.667 -59.5 96s-19 78.666 -19 123.999h240c0 -13.333 0.666992 -27.166 2 -41.499s5.16602 -27.333 11.499 -39s16.333 -21.334 30 -29.001s32.5 -11.5 56.5 -11.5
c21.333 0 38.333 4.16699 51 12.5s19 22.166 19 41.499c0 9.33301 -1.33301 17.333 -4 24s-7.5 12 -14.5 16s-16.667 6.83301 -29 8.5s-28.166 2.5 -47.499 2.5h-40v162h40c27.333 0 46.666 3.83301 57.999 11.5s17 20.167 17 37.5c0 30.667 -18.333 46 -55 46
c-20 0 -36 -3 -48 -9s-21.167 -14 -27.5 -24s-10.333 -21.333 -12 -34s-2.5 -25.667 -2.5 -39h-240c0 98.667 28.333 171.667 85 219s138.334 71 245.001 71c50.667 0 96.167 -4 136.5 -12s74.5 -20.333 102.5 -37s49.333 -37.667 64 -63s22 -55.333 22 -90
c0 -36 -9.66699 -66.833 -29 -92.5s-46 -44.167 -80 -55.5c86 -20 129 -75.667 129 -167c0 -66 -29.167 -118 -87.5 -156s-142.5 -57 -252.5 -57z" />
    <glyph glyph-name="afii10026" unicode="&#x418;" horiz-adv-x="760" 
d="M40 700h264v-300l172 300h244v-700h-264v300l-172 -300h-244v700z" />
    <glyph glyph-name="afii10027" unicode="&#x419;" horiz-adv-x="760" 
d="M40 700h264v-300l172 300h244v-700h-264v300l-172 -300h-244v700zM380 740c-42.667 0 -78.667 3.33301 -108 10s-53 17 -71 31s-31 31.667 -39 53s-12 46.666 -12 75.999h190c0 -22.667 3.33301 -38 10 -46s16.667 -12 30 -12s23.333 4 30 12s10 23.333 10 46h190
c0 -29.333 -4 -54.666 -12 -75.999s-21 -39 -39 -53s-41.667 -24.333 -71 -31s-65.333 -10 -108 -10z" />
    <glyph glyph-name="afii10028" unicode="&#x41a;" horiz-adv-x="765" 
d="M40 700h264v-257h30l136 257h280l-195 -325l205 -375h-296l-130 267h-30v-267h-264v700z" />
    <glyph glyph-name="afii10029" unicode="&#x41b;" horiz-adv-x="715" 
d="M65 -15c-5.33301 0 -14.499 0.166992 -27.499 0.5s-22.167 1.16602 -27.5 2.49902v212c3.33301 -0.666992 8.33301 -1 15 -1c14 0 26 3 36 9s18.167 18.333 24.5 37s11.166 45.167 14.499 79.5s5 79.5 5 135.5v240h570v-700h-264v488h-62v-48
c0 -69.333 -3.33301 -128.666 -10 -177.999s-16 -90.833 -28 -124.5s-26.667 -60.5 -44 -80.5s-36.5 -35.333 -57.5 -46s-43.667 -17.667 -68 -21s-49.833 -5 -76.5 -5z" />
    <glyph glyph-name="afii10030" unicode="&#x41c;" horiz-adv-x="910" 
d="M40 700h265l153 -295l153 295h259v-700h-264v280l-81 -155h-140l-81 155v-280h-264v700z" />
    <glyph glyph-name="afii10031" unicode="&#x41d;" horiz-adv-x="760" 
d="M40 700h264v-239h152v239h264v-700h-264v249h-152v-249h-264v700z" />
    <glyph glyph-name="afii10032" unicode="&#x41e;" horiz-adv-x="760" 
d="M380 -15c-49.333 0 -95.833 7.00098 -139.5 21.001s-81.834 35.5 -114.501 64.5s-58.5 66.167 -77.5 111.5s-28.5 99.666 -28.5 162.999v20c0 60 9.5 111.833 28.5 155.5s44.833 80 77.5 109s70.834 50.5 114.501 64.5s90.167 21 139.5 21s95.833 -7 139.5 -21
s81.834 -35.5 114.501 -64.5s58.5 -65.333 77.5 -109s28.5 -95.5 28.5 -155.5v-20c0 -62 -9.5 -115.667 -28.5 -161s-44.833 -82.833 -77.5 -112.5s-70.834 -51.5 -114.501 -65.5s-90.167 -21 -139.5 -21zM380 199.001c28 0 50 11.167 66 33.5s24 59.833 24 112.5v20
c0 48 -8 82.667 -24 104s-38 32 -66 32s-50 -10.667 -66 -32s-24 -56 -24 -104v-20c0 -52.667 8 -90.167 24 -112.5s38 -33.5 66 -33.5z" />
    <glyph glyph-name="afii10033" unicode="&#x41f;" horiz-adv-x="750" 
d="M40 700h670v-700h-264v488h-142v-488h-264v700z" />
    <glyph glyph-name="afii10034" unicode="&#x420;" horiz-adv-x="685" 
d="M40 700l325 0.000976562c107.333 0 185 -21.833 233 -65.5s72 -106.167 72 -187.5c0 -76.667 -24 -136.334 -72 -179.001s-125.667 -64 -233 -64h-61v-204h-264v700zM334 386.001c27.333 0 46.168 6 56.501 18s15.5 26.333 15.5 43s-5.33301 31 -16 43
s-29.334 18 -56.001 18h-30v-122h30z" />
    <glyph glyph-name="afii10035" unicode="&#x421;" horiz-adv-x="725" 
d="M375 -15c-50 0 -96.6699 6.49902 -140.003 19.499s-80.833 33.833 -112.5 62.5s-56.667 65.834 -75 111.501s-27.5 101.167 -27.5 166.5v20c0 62 9.33301 115 28 159s44.167 80.167 76.5 108.5s70 49.166 113 62.499s88.833 20 137.5 20
c44 0 85.833 -5.16699 125.5 -15.5s74.834 -27.333 105.501 -51s55.334 -54.167 74.001 -91.5s28.667 -83 30 -137h-260c-3.33301 32 -12.333 53.5 -27 64.5s-30.667 16.5 -48 16.5c-11.333 0 -22 -2.33301 -32 -7s-19 -12.334 -27 -23.001s-14.333 -24.667 -19 -42
s-7 -38.666 -7 -63.999v-20c0 -50.667 7.83301 -87.667 23.5 -111s36.167 -35 61.5 -35c18 0 34.167 5.33301 48.5 16s23.166 32.334 26.499 65.001h260c-1.33301 -55.333 -11.166 -101.833 -29.499 -139.5s-42.666 -68 -72.999 -91s-65.5 -39.5 -105.5 -49.5
s-82.333 -15 -127 -15z" />
    <glyph glyph-name="afii10036" unicode="&#x422;" horiz-adv-x="670" 
d="M203 488h-183v212h630v-212h-183v-488h-264v488z" />
    <glyph glyph-name="afii10037" unicode="&#x423;" horiz-adv-x="744" 
d="M220 -15c-7.33301 0 -15.667 0.833984 -25 2.50098s-17 3.5 -23 5.5v194c9.33301 -2 20 -3.66699 32 -5s22.667 -2 32 -2c12.667 0 23.667 1.33301 33 4s15.333 6.66699 18 12l-285 504h294l104 -220l78 220h264l-206 -515c-16 -40.667 -33 -73.834 -51 -99.501
s-39 -46 -63 -61s-52.167 -25.333 -84.5 -31s-71.5 -8.5 -117.5 -8.5z" />
    <glyph glyph-name="afii10038" unicode="&#x424;" horiz-adv-x="970" 
d="M353 33c-50.667 0 -96.667 7 -138 21s-76.833 34.333 -106.5 61s-52.667 59 -69 97s-24.5 80.667 -24.5 128v20c0 47.333 8.16699 90 24.5 128s39.333 70.167 69 96.5s65.167 46.666 106.5 60.999s87.333 21.5 138 21.5v53h264v-53c50.667 0 96.667 -7.16699 138 -21.5
s76.833 -34.666 106.5 -60.999s52.667 -58.5 69 -96.5s24.5 -80.667 24.5 -128v-20c0 -47.333 -8.16699 -90 -24.5 -128s-39.333 -70.333 -69 -97s-65.167 -47 -106.5 -61s-87.333 -21 -138 -21v-53h-264v53zM685 360c0 22.667 -2.16895 40.832 -6.50195 54.499
s-10 24 -17 31s-15.167 11.667 -24.5 14s-19.333 3.5 -30 3.5v-226c12.667 0 23.834 1.16699 33.501 3.5s17.834 7 24.501 14s11.667 17.333 15 31s5 31.834 5 54.501v20zM284.998 339.998c0 -22.667 1.66797 -40.832 5.00098 -54.499s8.16602 -24 14.499 -31
s14.333 -11.667 24 -14s21.167 -3.5 34.5 -3.5v226c-12 0 -22.667 -1.16699 -32 -3.5s-17.5 -7 -24.5 -14s-12.333 -17.333 -16 -31s-5.5 -31.834 -5.5 -54.501v-20z" />
    <glyph glyph-name="afii10039" unicode="&#x425;" horiz-adv-x="790" 
d="M214 362l-199 338h294l88 -164l88 164h290l-198 -335l208 -365h-296l-96 191l-96 -191h-292z" />
    <glyph glyph-name="afii10040" unicode="&#x426;" horiz-adv-x="785" 
d="M546 0h-506v700h264v-488h132v488h264v-488h70v-342h-224v130z" />
    <glyph glyph-name="afii10041" unicode="&#x427;" horiz-adv-x="690" 
d="M386 254c-17.333 -11.333 -38.167 -21 -62.5 -29s-55.166 -12 -92.499 -12c-72 0 -125.167 18.167 -159.5 54.5s-51.5 94.833 -51.5 175.5v257h264v-205c0 -27.333 3.66699 -45.5 11 -54.5s20.666 -13.5 39.999 -13.5c18.667 0 35.667 4.66699 51 14v259h264v-700h-264
v254z" />
    <glyph glyph-name="afii10042" unicode="&#x428;" horiz-adv-x="1060" 
d="M40 700h264v-488h94v488h264v-488h94v488h264v-700h-980v700z" />
    <glyph glyph-name="afii10043" unicode="&#x429;" horiz-adv-x="1105" 
d="M40 700h264v-488h94v488h264v-488h94v488h264v-488h70v-342h-224v130h-826v700z" />
    <glyph glyph-name="afii10044" unicode="&#x42a;" horiz-adv-x="775" 
d="M130 508l-110 0.000976562v192h374v-204h61c107.333 0 185 -21.333 233 -64s72 -102.334 72 -179.001c0 -81.333 -24 -143.833 -72 -187.5s-125.667 -65.5 -233 -65.5h-325v508zM424 192.001c26.667 0 45.332 6 55.999 18s16 26.333 16 43s-5.16699 31 -15.5 43
s-29.166 18 -56.499 18h-30v-122h30z" />
    <glyph glyph-name="afii10045" unicode="&#x42b;" horiz-adv-x="995" 
d="M40 700l264 0.000976562v-204h51c102.667 0 177.5 -21.333 224.5 -64s70.5 -102.334 70.5 -179.001c0 -81.333 -23.5 -143.833 -70.5 -187.5s-121.833 -65.5 -224.5 -65.5h-315v700zM324 192.001c13.333 0 24 1.66797 32 5.00098s14.333 7.66602 19 12.999
s7.66699 11.833 9 19.5s2 15.5 2 23.5c0 16.667 -4.83301 31 -14.5 43s-25.5 18 -47.5 18h-20v-122h20zM691 700.002h264v-700h-264v700z" />
    <glyph glyph-name="afii10046" unicode="&#x42c;" horiz-adv-x="685" 
d="M40 700l264 0.000976562v-204h61c107.333 0 185 -21.333 233 -64s72 -102.334 72 -179.001c0 -81.333 -24 -143.833 -72 -187.5s-125.667 -65.5 -233 -65.5h-325v700zM334 192.001c26.667 0 45.332 6 55.999 18s16 26.333 16 43s-5.16699 31 -15.5 43
s-29.166 18 -56.499 18h-30v-122h30z" />
    <glyph glyph-name="afii10047" unicode="&#x42d;" horiz-adv-x="725" 
d="M350 -15c-44.667 0 -87.0039 5 -127.004 15s-75.167 26.5 -105.5 49.5s-54.666 53.333 -72.999 91s-28.166 84.167 -29.499 139.5h240c3.33301 -27.333 13.666 -47.666 30.999 -60.999s38.666 -20 63.999 -20c48 0 79.333 21.333 94 64h-151v172h154
c-7.33301 24 -19 41 -35 51s-36.667 15 -62 15s-46.666 -6.83301 -63.999 -20.5s-27.666 -33.834 -30.999 -60.501h-240c1.33301 54 11.333 99.667 30 137s43.334 67.833 74.001 91.5s65.834 40.667 105.501 51s81.5 15.5 125.5 15.5c48.667 0 94.5 -6.66699 137.5 -20
s80.667 -34.166 113 -62.499s57.833 -64.5 76.5 -108.5s28 -97 28 -159v-20c0 -65.333 -9.16699 -120.833 -27.5 -166.5s-43.333 -82.834 -75 -111.501s-69.167 -49.5 -112.5 -62.5s-90 -19.5 -140 -19.5z" />
    <glyph glyph-name="afii10048" unicode="&#x42e;" horiz-adv-x="1010" 
d="M40 700h263.998v-234h32c8.66699 42 22.667 78.667 42 110s42.833 57.333 70.5 78s58.667 36 93 46s70.5 15 108.5 15c49.333 0 94.833 -7 136.5 -21s77.5 -35.5 107.5 -64.5s53.5 -65.333 70.5 -109s25.5 -95.5 25.5 -155.5v-20c0 -62 -8.5 -115.667 -25.5 -161
s-40.5 -82.833 -70.5 -112.5s-65.833 -51.5 -107.5 -65.5s-87.167 -21 -136.5 -21c-39.333 0 -76.666 5.16699 -111.999 15.5s-66.833 26.5 -94.5 48.5s-51.167 49.833 -70.5 83.5s-32.666 74.167 -39.999 121.5h-29v-254h-264v700zM649.998 199c22.667 0 40 11.167 52 33.5
s18 59.833 18 112.5v20c0 48 -6 82.667 -18 104s-29.333 32 -52 32s-40 -10.667 -52 -32s-18 -56 -18 -104v-20c0 -52.667 6 -90.167 18 -112.5s29.333 -33.5 52 -33.5z" />
    <glyph glyph-name="afii10049" unicode="&#x42f;" horiz-adv-x="715" 
d="M161 247c-40 21.333 -69.333 49 -88 83s-28 73 -28 117c0 40.667 6 76.667 18 108s30.667 57.833 56 79.5s57.833 38 97.5 49s87.5 16.5 143.5 16.5h315v-700h-264v206h-20l-106 -206h-270zM315 447c0 -16.667 4.99902 -31 14.999 -43s27 -18 51 -18h30v122h-30
c-23.333 0 -40.166 -6 -50.499 -18s-15.5 -26.333 -15.5 -43z" />
    <glyph glyph-name="afii10065" unicode="&#x430;" horiz-adv-x="580" 
d="M190 -15c-28.667 0 -54.1641 4.33301 -76.4971 13s-41.166 20.667 -56.499 36s-27 33.333 -35 54s-12 43 -12 67c0 52.667 16.333 94.334 49 125.001s84.667 46 156 46h115v14c0 17.333 -3.66699 29.5 -11 36.5s-17 10.5 -29 10.5
c-12.667 0 -21.834 -1.83301 -27.501 -5.5s-9.83398 -9.16699 -12.501 -16.5h-210c1.33301 26 7.33301 50 18 72s26.5 41 47.5 57s47.167 28.5 78.5 37.5s68.333 13.5 111 13.5c37.333 0 71.666 -4 102.999 -12s58.166 -20.833 80.499 -38.5s39.833 -40.834 52.5 -69.501
s19 -63.667 19 -105v-185c0 -28 0.833008 -52.5 2.5 -73.5s4.16699 -41.5 7.5 -61.5h-210c-2.66699 7.33301 -5 15.333 -7 24s-3 20.667 -3 36c-6 -10 -13 -19.5 -21 -28.5s-17.833 -17 -29.5 -24s-25.5 -12.5 -41.5 -16.5s-35.333 -6 -58 -6zM275.003 143
c36.667 0 55 19 55 57v10h-55c-26 0 -39 -11 -39 -33c0 -22.667 13 -34 39 -34z" />
    <glyph glyph-name="afii10066" unicode="&#x431;" horiz-adv-x="615" 
d="M310 -15c-40.667 0 -78.6699 5.83398 -114.003 17.501s-66 30.167 -92 55.5s-46.5 57.833 -61.5 97.5s-22.5 87.834 -22.5 144.501v20c0 59.333 5.16699 112.166 15.5 158.499s27 85.5 50 117.5s53.333 57 91 75s83.5 28.333 137.5 31
c20.667 0.666992 42.834 1.33398 66.501 2.00098s46.334 1.66699 68.001 3s41.667 3.33301 60 6s33.166 6.66699 44.499 12v-180c-5.33301 -3.33301 -12.666 -6.33301 -21.999 -9s-22.5 -5.33398 -39.5 -8.00098s-38.5 -4.66699 -64.5 -6s-58.333 -2 -97 -2
c-26.667 0 -48.5 -2.33301 -65.5 -7s-31 -11.834 -42 -21.501s-19.667 -21.834 -26 -36.501s-11.5 -32 -15.5 -52c6.66699 8.66699 15 17.834 25 27.501s22.667 18.5 38 26.5s33.833 14.667 55.5 20s47.834 8 78.501 8c32 0 61.5 -4.5 88.5 -13.5s50.5 -22.833 70.5 -41.5
s35.5 -42.5 46.5 -71.5s16.5 -63.5 16.5 -103.5v-20c0 -41.333 -7.5 -77.5 -22.5 -108.5s-35.5 -57 -61.5 -78s-56.667 -36.833 -92 -47.5s-73.333 -16 -114 -16zM309.997 163.001c18.667 0 34 6.33301 46 19s18 30.334 18 53.001v20c0 22.667 -6 40.334 -18 53.001
s-27.333 19 -46 19s-34 -6.33301 -46 -19s-18 -30.334 -18 -53.001v-20c0 -22.667 6 -40.334 18 -53.001s27.333 -19 46 -19z" />
    <glyph glyph-name="afii10067" unicode="&#x432;" horiz-adv-x="610" 
d="M35 530l348.998 0.000976562c37.333 0 68.833 -3.5 94.5 -10.5s46.334 -16.667 62.001 -29s27 -26.833 34 -43.5s10.5 -34.334 10.5 -53.001c0 -28 -7.16699 -52.833 -21.5 -74.5s-36.833 -36.167 -67.5 -43.5c32.667 -8 57.334 -23.333 74.001 -46s25 -49 25 -79
c0 -46 -15.5 -82.667 -46.5 -110s-79.167 -41 -144.5 -41h-369v530zM330.998 142.001c13.333 0 24 3.16895 32 9.50195s12 14.166 12 23.499s-3.33301 17.166 -10 23.499s-17.667 9.5 -33 9.5h-77v-66h76zM321.998 322.003c17.333 0 28.833 3.83105 34.5 11.498
s8.5 14.834 8.5 21.501s-2.83301 13.834 -8.5 21.501s-17.167 11.5 -34.5 11.5h-67v-66h67z" />
    <glyph glyph-name="afii10068" unicode="&#x433;" horiz-adv-x="465" 
d="M35 530h410v-176h-190v-354h-220v530z" />
    <glyph glyph-name="afii10069" unicode="&#x434;" horiz-adv-x="640" 
d="M14 176l50.001 0.000976562c13.333 21.333 22.666 47.166 27.999 77.499s8 59.5 8 87.5v189h475v-354h50v-301h-180v125h-251v-125h-180v301zM355.001 176.001v177.999h-65v-34c0 -37.333 -2.33301 -67.666 -7 -90.999s-9.66699 -41 -15 -53h87z" />
    <glyph glyph-name="afii10070" unicode="&#x435;" 
d="M310 -15c-44 0 -83.999 5.66895 -119.999 17.002s-67 28.166 -93 50.499s-46.167 50.333 -60.5 84s-21.5 73.167 -21.5 118.5v20c0 44.667 6.83301 84 20.5 118s33 62.167 58 84.5s55 39.166 90 50.499s73.833 17 116.5 17c97.333 0 169.166 -23.167 215.499 -69.5
s69.5 -114.833 69.5 -205.5v-60h-347c2.66699 -22.667 9.16699 -39.5 19.5 -50.5s27.833 -16.5 52.5 -16.5c18.667 0 32.334 3.16699 41.001 9.5s15 13.833 19 22.5h210c-10 -65.333 -37.833 -113.333 -83.5 -144s-107.834 -46 -186.501 -46zM305.001 387.002
c-22.667 0 -38.833 -5.83301 -48.5 -17.5s-15.5 -26.167 -17.5 -43.5h128c-2 17.333 -7.66699 31.833 -17 43.5s-24.333 17.5 -45 17.5z" />
    <glyph glyph-name="afii10072" unicode="&#x436;" horiz-adv-x="854" 
d="M132 274l-120 256h224l69 -180h10v180h220v-180h10l75 180h222l-120 -235l130 -295h-238l-69 190h-10v-190h-220v190h-10l-75 -190h-228z" />
    <glyph glyph-name="afii10073" unicode="&#x437;" horiz-adv-x="580" 
d="M310 -15c-52.667 0 -97.498 5.33301 -134.498 16s-67.167 26.167 -90.5 46.5s-40.666 45 -51.999 74s-17.333 61.833 -18 98.5h198c0 -19.333 5.83301 -35.666 17.5 -48.999s31.5 -20 59.5 -20c19.333 0 32.333 2.66699 39 8s10 11.666 10 18.999
s-2.83301 13.166 -8.5 17.499s-15.834 6.5 -30.501 6.5h-43v126h33c15.333 0 25.666 2.16699 30.999 6.5s8 10.5 8 18.5c0 7.33301 -2.83301 13.5 -8.5 18.5s-15.834 7.5 -30.501 7.5c-24.667 0 -43.667 -6.16699 -57 -18.5s-20 -29.166 -20 -50.499h-198
c1.33301 40.667 9.33301 75.667 24 105s34.834 53.666 60.501 72.999s56.334 33.666 92.001 42.999s75.167 14 118.5 14c163.333 0 245 -52.333 245 -157c0 -25.333 -7.66699 -48.666 -23 -69.999s-37.333 -35.666 -66 -42.999c37.333 -7.33301 63.166 -21.833 77.499 -43.5
s21.5 -45.5 21.5 -71.5c0 -55.333 -20.333 -98.333 -61 -129s-105.334 -46 -194.001 -46z" />
    <glyph glyph-name="afii10074" unicode="&#x438;" horiz-adv-x="620" 
d="M35 530h220v-220l145 220h185v-530h-220v220l-145 -220h-185v530z" />
    <glyph glyph-name="afii10075" unicode="&#x439;" horiz-adv-x="620" 
d="M35 530h220v-220l145 220h185v-530h-220v220l-145 -220h-185v530zM310 585c-38 0 -70.167 3.5 -96.5 10.5s-48 17 -65 30s-29.333 28.833 -37 47.5s-11.5 39.334 -11.5 62.001h170c0 -19.333 3.33301 -32.833 10 -40.5s16.667 -11.5 30 -11.5s23.333 3.83301 30 11.5
s10 21.167 10 40.5h170c0 -22.667 -3.83301 -43.334 -11.5 -62.001s-20 -34.5 -37 -47.5s-38.667 -23 -65 -30s-58.5 -10.5 -96.5 -10.5z" />
    <glyph glyph-name="afii10076" unicode="&#x43a;" horiz-adv-x="607" 
d="M35 530h220v-180h20l88 180h232l-126 -238l136 -292h-248l-82 190h-20v-190h-220v530z" />
    <glyph glyph-name="afii10077" unicode="&#x43b;" 
d="M65 -15c-5.33301 0 -14.499 0.166992 -27.499 0.5s-22.167 1.16602 -27.5 2.49902v176c3.33301 -0.666992 8.33301 -1 15 -1c8.66699 0 16.667 1.66699 24 5s13.666 9.66602 18.999 18.999s9.5 22.333 12.5 39s4.5 38 4.5 64v240h480v-530h-220v354h-70v-84
c0 -61.333 -4.83301 -110.666 -14.5 -147.999s-23.5 -66.166 -41.5 -86.499s-40 -33.833 -66 -40.5s-55.333 -10 -88 -10z" />
    <glyph glyph-name="afii10078" unicode="&#x43c;" horiz-adv-x="770" 
d="M35 530h282l71 -200l71 200h276v-530h-200v285l-80 -195h-140l-80 195v-285h-200v530z" />
    <glyph glyph-name="afii10079" unicode="&#x43d;" horiz-adv-x="620" 
d="M35 530h220v-172h110v172h220v-530h-220v182h-110v-182h-220v530z" />
    <glyph glyph-name="afii10080" unicode="&#x43e;" horiz-adv-x="610" 
d="M305 -15c-40.667 0 -78.667 5.49707 -114 16.4971s-66 27.833 -92 50.5s-46.5 51.334 -61.5 86.001s-22.5 75.334 -22.5 122.001v20c0 43.333 7.5 81.5 22.5 114.5s35.5 60.667 61.5 83s56.667 39.166 92 50.499s73.333 17 114 17s78.667 -5.66699 114 -17
s66 -28.166 92 -50.499s46.5 -50 61.5 -83s22.5 -71.167 22.5 -114.5v-20c0 -45.333 -7.5 -85.166 -22.5 -119.499s-35.5 -63 -61.5 -86s-56.667 -40.333 -92 -52s-73.333 -17.5 -114 -17.5zM305 162.997c20 0 35.667 7.33301 47 22s17 39.667 17 75v20
c0 30.667 -5.66699 52.834 -17 66.501s-27 20.5 -47 20.5s-35.667 -6.83301 -47 -20.5s-17 -35.834 -17 -66.501v-20c0 -35.333 5.66699 -60.333 17 -75s27 -22 47 -22z" />
    <glyph glyph-name="afii10081" unicode="&#x43f;" horiz-adv-x="610" 
d="M35 530h540v-530h-220v354h-100v-354h-220v530z" />
    <glyph glyph-name="afii10082" unicode="&#x440;" horiz-adv-x="625" 
d="M35 530l203.999 0.000976562v-60c6 11.333 13.333 21.666 22 30.999s19.334 17.166 32.001 23.499s27.667 11.333 45 15s38 5.5 62 5.5c31.333 0 60 -5.66699 86 -17s48.167 -28.166 66.5 -50.499s32.5 -50.5 42.5 -84.5s15 -73.333 15 -118v-20
c0 -46.667 -5.66699 -87 -17 -121s-26.5 -62 -45.5 -84s-41.167 -38.333 -66.5 -49s-52.333 -16 -81 -16c-30 0 -57.5 5.83301 -82.5 17.5s-45.833 29.167 -62.5 52.5v-255h-220v730zM321.999 163.001c14 0 27.833 6.83301 41.5 20.5s20.5 37.5 20.5 71.5v20
c0 33.333 -6.33301 57 -19 71s-27.334 21 -44.001 21c-17.333 0 -32.666 -6.83301 -45.999 -20.5s-20 -35.834 -20 -66.501v-30c0 -31.333 7 -53.666 21 -66.999s29.333 -20 46 -20z" />
    <glyph glyph-name="afii10083" unicode="&#x441;" horiz-adv-x="590" 
d="M295 -15c-42.667 0 -81.1709 6.66992 -115.504 20.0029s-63.666 32 -87.999 56s-43.166 52.833 -56.499 86.5s-20 71.167 -20 112.5v20c0 38.667 6.66699 74.167 20 106.5s32.166 60.333 56.499 84s53.666 42 87.999 55s72.833 19.5 115.5 19.5
c50.667 0 93.334 -6 128.001 -18s62.834 -28.667 84.501 -50s37.667 -46.333 48 -75s16.833 -59.334 19.5 -92.001h-206c-2.66699 21.333 -9 36.166 -19 44.499s-23.333 12.5 -40 12.5c-22.667 0 -39.834 -7.5 -51.501 -22.5s-17.5 -36.5 -17.5 -64.5v-20
c0 -64.667 23 -97 69 -97c15.333 0 28.333 4.16699 39 12.5s17.334 23.166 20.001 44.499h206c-2.66699 -36.667 -9.66699 -69.5 -21 -98.5s-28.166 -53.667 -50.499 -74s-50.666 -35.833 -84.999 -46.5s-75.5 -16 -123.5 -16z" />
    <glyph glyph-name="afii10084" unicode="&#x442;" horiz-adv-x="540" 
d="M160 354h-140v176h500v-176h-140v-354h-220v354z" />
    <glyph glyph-name="afii10085" unicode="&#x443;" horiz-adv-x="624" 
d="M152 -215c-10 0 -20 0.99707 -30 2.99707v178c10 -2 20 -3 30 -3c18 0 31 2.5 39 7.5s15 14.833 21 29.5l-210 530h235l94 -280l86 280h205l-190 -530c-13.333 -37.333 -28 -69.666 -44 -96.999s-35 -49.666 -57 -66.999s-47.5 -30.166 -76.5 -38.499
s-63.167 -12.5 -102.5 -12.5z" />
    <glyph glyph-name="afii10086" unicode="&#x444;" horiz-adv-x="810" 
d="M295 -15c-87.333 0 -155.833 22.3311 -205.5 66.998s-74.5 112.334 -74.5 203.001v20c0 86.667 24.833 153.334 74.5 200.001s118.167 70 205.5 70v155h220v-155c42.667 0 81.334 -6 116.001 -18s64.167 -29.5 88.5 -52.5s43 -51.167 56 -84.5
s19.5 -71.666 19.5 -114.999v-20c0 -45.333 -6.5 -84.833 -19.5 -118.5s-31.667 -61.834 -56 -84.501s-53.833 -39.5 -88.5 -50.5s-73.334 -16.5 -116.001 -16.5v-185h-220v185zM569 274.998c0 29.333 -5.33301 52 -16 68s-26.667 24 -48 24v-204c21.333 0 37.333 8 48 24
s16 38.667 16 68v20zM241 254.998c0 -29.333 5.33301 -52 16 -68s26.667 -24 48 -24v204c-21.333 0 -37.333 -8 -48 -24s-16 -38.667 -16 -68v-20z" />
    <glyph glyph-name="afii10087" unicode="&#x445;" horiz-adv-x="604" 
d="M142 275l-130 255h238l56 -129l53 129h233l-130 -250l140 -280h-238l-66 153l-62 -153h-234z" />
    <glyph glyph-name="afii10088" unicode="&#x446;" horiz-adv-x="640" 
d="M445 0h-410v530h220v-354h90v354h220v-354h60v-301h-180v125z" />
    <glyph glyph-name="afii10089" unicode="&#x447;" horiz-adv-x="580" 
d="M325 163c-15.333 -8 -32.501 -14.5 -51.501 -19.5s-41.833 -7.5 -68.5 -7.5c-65.333 0 -111.666 15.333 -138.999 46s-41 79 -41 145v203h220v-178c0 -25.333 13.333 -38 40 -38c9.33301 0 17.5 1.33301 24.5 4s12.167 5.66699 15.5 9v203h220v-530h-220v163z" />
    <glyph glyph-name="afii10090" unicode="&#x448;" horiz-adv-x="870" 
d="M35 530h220v-354h75v354h210v-354h75v354h220v-530h-800v530z" />
    <glyph glyph-name="afii10091" unicode="&#x449;" horiz-adv-x="910" 
d="M715 0h-680v530h220v-354h75v354h210v-354h75v354h220v-354h60v-301h-180v125z" />
    <glyph glyph-name="afii10092" unicode="&#x44a;" horiz-adv-x="625" 
d="M100 354h-89.999v176h310v-162h65c70.667 0 125.834 -13.5 165.501 -40.5s59.5 -73.167 59.5 -138.5c0 -26 -3.83301 -50.5 -11.5 -73.5s-20.334 -43 -38.001 -60s-40.834 -30.5 -69.501 -40.5s-64 -15 -106 -15h-285v354zM349.001 156c27.333 0 40.999 11 40.999 33
c0 12 -3.66699 20.5 -11 25.5s-17.666 7.5 -30.999 7.5h-28v-66h29z" />
    <glyph glyph-name="afii10093" unicode="&#x44b;" horiz-adv-x="810" 
d="M35 530h220.001v-162h55c70.667 0 125.834 -13.5 165.501 -40.5s59.5 -73.167 59.5 -138.5c0 -26 -3.83301 -50.5 -11.5 -73.5s-20.334 -43 -38.001 -60s-40.834 -30.5 -69.501 -40.5s-64 -15 -106 -15h-275v530zM274.001 156c27.333 0 40.999 11 40.999 33
c0 12 -3.66699 20.5 -11 25.5s-17.666 7.5 -30.999 7.5h-18v-66h19zM555 530h220v-530h-220v530z" />
    <glyph glyph-name="afii10094" unicode="&#x44c;" horiz-adv-x="565" 
d="M40 530h220.001v-162h65c70.667 0 125.834 -13.5 165.501 -40.5s59.5 -73.167 59.5 -138.5c0 -26 -3.83301 -50.5 -11.5 -73.5s-20.334 -43 -38.001 -60s-40.834 -30.5 -69.501 -40.5s-64 -15 -106 -15h-285v530zM289.001 156c27.333 0 40.999 11 40.999 33
c0 12 -3.66699 20.5 -11 25.5s-17.666 7.5 -30.999 7.5h-28v-66h29z" />
    <glyph glyph-name="afii10095" unicode="&#x44d;" 
d="M305 -15c-50.667 0 -93.834 5.33203 -129.501 15.999s-65 26.167 -88 46.5s-40.167 45 -51.5 74s-18.333 61.833 -21 98.5h186c5.33301 -20 14.333 -34.5 27 -43.5s31.667 -13.5 57 -13.5c36 0 60.333 12.667 73 38h-113v128h115c-6 12.667 -15 22.167 -27 28.5
s-28 9.5 -48 9.5c-22.667 0 -41 -4.5 -55 -13.5s-23.667 -23.5 -29 -43.5h-186c2.66699 32.667 9.66699 63.334 21 92.001s28.5 53.667 51.5 75s52.333 38 88 50s78.834 18 129.501 18c42.667 0 81.167 -6.5 115.5 -19.5s63.666 -31.333 87.999 -55
s43.166 -51.667 56.499 -84s20 -67.833 20 -106.5v-20c0 -41.333 -6.66699 -78.833 -20 -112.5s-32.166 -62.5 -56.499 -86.5s-53.666 -42.667 -87.999 -56s-72.833 -20 -115.5 -20z" />
    <glyph glyph-name="afii10096" unicode="&#x44e;" horiz-adv-x="835" 
d="M35 530l219.999 -0.00195312v-154h39c8.66699 28 21 52.5 37 73.5s34.833 38.5 56.5 52.5s45.334 24.667 71.001 32s52.834 11 81.501 11c40.667 0 78.167 -5.66699 112.5 -17s63.833 -28.166 88.5 -50.499s44 -50 58 -83s21 -71.167 21 -114.5v-20
c0 -45.333 -7 -85.166 -21 -119.499s-33.333 -63 -58 -86s-54.167 -40.333 -88.5 -52s-71.833 -17.5 -112.5 -17.5c-58.667 0 -110.334 14.667 -155.001 44s-75.667 74.333 -93 135h-37v-164h-220v530zM534.999 162.998c17.333 0 31.5 7.33301 42.5 22s16.5 39.667 16.5 75
v20c0 30.667 -5.5 52.834 -16.5 66.501s-25.167 20.5 -42.5 20.5s-31.5 -6.83301 -42.5 -20.5s-16.5 -35.834 -16.5 -66.501v-20c0 -35.333 5.5 -60.333 16.5 -75s25.167 -22 42.5 -22z" />
    <glyph glyph-name="afii10097" unicode="&#x44f;" horiz-adv-x="595" 
d="M114 186c-29.333 16 -50.667 36.832 -64 62.499s-20 55.167 -20 88.5c0 28.667 4.5 54.834 13.5 78.501s22.833 44 41.5 61s42.5 30.167 71.5 39.5s63.5 14 103.5 14h300v-530h-220v154h-21l-71 -154h-238zM249.999 336.999c0 -13.333 4.5 -22.833 13.5 -28.5
s19.5 -8.5 31.5 -8.5h45v74h-45c-12 0 -22.5 -2.66699 -31.5 -8s-13.5 -15 -13.5 -29z" />
    <glyph glyph-name="afii10071" unicode="&#x451;" 
d="M310 -15c-44 0 -83.999 5.66895 -119.999 17.002s-67 28.166 -93 50.499s-46.167 50.333 -60.5 84s-21.5 73.167 -21.5 118.5v20c0 44.667 6.83301 84 20.5 118s33 62.167 58 84.5s55 39.166 90 50.499s73.833 17 116.5 17c97.333 0 169.166 -23.167 215.499 -69.5
s69.5 -114.833 69.5 -205.5v-60h-347c2.66699 -22.667 9.16699 -39.5 19.5 -50.5s27.833 -16.5 52.5 -16.5c18.667 0 32.334 3.16699 41.001 9.5s15 13.833 19 22.5h210c-10 -65.333 -37.833 -113.333 -83.5 -144s-107.834 -46 -186.501 -46zM305.001 387.002
c-22.667 0 -38.833 -5.83301 -48.5 -17.5s-15.5 -26.167 -17.5 -43.5h128c-2 17.333 -7.66699 31.833 -17 43.5s-24.333 17.5 -45 17.5zM185.002 580.002c-28 0 -51.667 6.83301 -71 20.5s-29 33.5 -29 59.5s9.66699 45.833 29 59.5s43 20.5 71 20.5
s51.667 -6.83301 71 -20.5s29 -33.5 29 -59.5s-9.66699 -45.833 -29 -59.5s-43 -20.5 -71 -20.5zM415.002 580.002c-28 0 -51.667 6.83301 -71 20.5s-29 33.5 -29 59.5s9.66699 45.833 29 59.5s43 20.5 71 20.5s51.667 -6.83301 71 -20.5s29 -33.5 29 -59.5
s-9.83301 -45.833 -29.5 -59.5s-43.167 -20.5 -70.5 -20.5z" />
    <glyph glyph-name="afii10099" unicode="&#x452;" horiz-adv-x="655" 
d="M100 394h-90v136h90v170h220v-170h180v-136h-180v-89c12 18.667 29.333 35 52 49s52 21 88 21c55.333 0 97.5 -15.667 126.5 -47s43.5 -79 43.5 -143v-185c0 -42.667 -5.33301 -77.834 -16 -105.501s-26.167 -49.667 -46.5 -66s-45.166 -27.666 -74.499 -33.999
s-62.333 -9.5 -99 -9.5c-7.33301 0 -15.5 0.166992 -24.5 0.5s-17.167 1.16602 -24.5 2.49902v178c10 -2 19.667 -3 29 -3c11.333 0 20.166 4 26.499 12s9.5 24.667 9.5 50v115c0 18.667 -3.33301 32.834 -10 42.501s-17.667 14.5 -33 14.5c-16 0 -27.833 -5 -35.5 -15
s-11.5 -24 -11.5 -42v-140h-220v394z" />
    <glyph glyph-name="afii10100" unicode="&#x453;" horiz-adv-x="465" 
d="M35 530h410v-176h-190v-354h-220v530zM275 740h210l-170 -160h-150z" />
    <glyph glyph-name="afii10101" unicode="&#x454;" 
d="M295 -15c-42.667 0 -81.167 6.66797 -115.5 20.001s-63.666 32 -87.999 56s-43.166 52.833 -56.499 86.5s-20 71.167 -20 112.5v20c0 38.667 6.66699 74.167 20 106.5s32.166 60.333 56.499 84s53.666 42 87.999 55s72.833 19.5 115.5 19.5
c50.667 0 93.834 -6 129.501 -18s65 -28.667 88 -50s40.167 -46.333 51.5 -75s18.333 -59.334 21 -92.001h-186c-5.33301 20 -15 34.5 -29 43.5s-32.333 13.5 -55 13.5c-38.667 0 -63.667 -12.667 -75 -38h115v-128h-114c12 -25.333 36.667 -38 74 -38
c25.333 0 44.333 4.5 57 13.5s21.667 23.5 27 43.5h186c-2.66699 -36.667 -9.66699 -69.5 -21 -98.5s-28.5 -53.667 -51.5 -74s-52.333 -35.833 -88 -46.5s-78.834 -16 -129.501 -16z" />
    <glyph glyph-name="afii10102" unicode="&#x455;" horiz-adv-x="560" 
d="M280 -15c-49.333 0 -90.501 5.32812 -123.501 15.9951s-59.667 24.834 -80 42.501s-35.5 37.5 -45.5 59.5s-17 44.333 -21 67h220c1.33301 -7.33301 5.16602 -13.666 11.499 -18.999s19.166 -8 38.499 -8c21.333 0 35 1.83301 41 5.5s9 9.5 9 17.5
c0 2.66699 -1.16699 5.33398 -3.5 8.00098s-7 5.16699 -14 7.5s-17.333 5 -31 8s-31.5 6.5 -53.5 10.5c-23.333 4 -47.166 9.16699 -71.499 15.5s-46.166 15.666 -65.499 27.999s-35.166 28.166 -47.499 47.499s-18.5 44 -18.5 74c0 56.667 22.5 100.834 67.5 132.501
s107.5 47.5 187.5 47.5c44.667 0 82.5 -5.5 113.5 -16.5s56.333 -25.167 76 -42.5s34.167 -37.166 43.5 -59.499s15 -44.5 17 -66.5h-220c-1.33301 10.667 -4.83301 17.834 -10.5 21.501s-13.834 5.5 -24.501 5.5c-11.333 0 -19.166 -1.66699 -23.499 -5
s-6.5 -7.33301 -6.5 -12c0 -4 1 -7.5 3 -10.5s5.66699 -5.66699 11 -8s12.833 -4.66602 22.5 -6.99902s22.167 -4.5 37.5 -6.5c22.667 -3.33301 47.334 -8.5 74.001 -15.5s51.667 -17 75 -30s42.833 -29.833 58.5 -50.5s23.5 -46 23.5 -76
c0 -59.333 -23.833 -104.333 -71.5 -135s-113.834 -46 -198.501 -46z" />
    <glyph glyph-name="afii10103" unicode="&#x456;" horiz-adv-x="300" 
d="M40 530h220v-530h-220v530zM150 580c-40 0 -70 7.16699 -90 21.5s-30 33.833 -30 58.5s10 44.167 30 58.5s50 21.5 90 21.5s70 -7.16699 90 -21.5s30 -33.833 30 -58.5s-10 -44.167 -30 -58.5s-50 -21.5 -90 -21.5z" />
    <glyph glyph-name="afii10104" unicode="&#x457;" horiz-adv-x="300" 
d="M40 530h220v-530h-220v530zM36 580c-28 0 -51.667 6.83301 -71 20.5s-29 33.5 -29 59.5s9.66699 45.833 29 59.5s43 20.5 71 20.5s51.667 -6.83301 71 -20.5s29 -33.5 29 -59.5s-9.66699 -45.833 -29 -59.5s-43 -20.5 -71 -20.5zM266 580c-28 0 -51.667 6.83301 -71 20.5
s-29 33.5 -29 59.5s9.66699 45.833 29 59.5s43 20.5 71 20.5s51.667 -6.83301 71 -20.5s29 -33.5 29 -59.5s-9.83301 -45.833 -29.5 -59.5s-43.167 -20.5 -70.5 -20.5z" />
    <glyph glyph-name="afii10105" unicode="&#x458;" horiz-adv-x="300" 
d="M24 -215c-7.33301 0 -15.5 0.167969 -24.5 0.500977s-17.167 1.16602 -24.5 2.49902v178c10 -2 19.667 -3 29 -3c11.333 0 20.166 4 26.499 12s9.5 24.667 9.5 50v505h220v-530c0 -42.667 -5.33301 -77.834 -16 -105.501s-26.167 -49.667 -46.5 -66
s-45.166 -27.666 -74.499 -33.999s-62.333 -9.5 -99 -9.5zM150 580.001c-40 0 -70 7.16699 -90 21.5s-30 33.833 -30 58.5s10 44.167 30 58.5s50 21.5 90 21.5s70 -7.16699 90 -21.5s30 -33.833 30 -58.5s-10 -44.167 -30 -58.5s-50 -21.5 -90 -21.5z" />
    <glyph glyph-name="afii10106" unicode="&#x459;" horiz-adv-x="870" 
d="M65 -15c-5.33301 0 -14.498 0.166992 -27.498 0.5s-22.167 1.16602 -27.5 2.49902v176c3.33301 -0.666992 8.33301 -1 15 -1c8.66699 0 16.667 1.66699 24 5s13.666 9.66602 18.999 18.999s9.5 22.333 12.5 39s4.5 38 4.5 64v240h480v-162h65
c70.667 0 125.834 -13.5 165.501 -40.5s59.5 -73.167 59.5 -138.5c0 -26 -3.83301 -50.5 -11.5 -73.5s-20.334 -43 -38.001 -60s-40.834 -30.5 -69.501 -40.5s-64 -15 -106 -15h-285v354h-70v-84c0 -61.333 -4.83301 -110.666 -14.5 -147.999s-23.5 -66.166 -41.5 -86.499
s-40 -33.833 -66 -40.5s-55.333 -10 -88 -10zM594.002 156c27.333 0 40.999 11 40.999 33c0 12 -3.66699 20.5 -11 25.5s-17.666 7.5 -30.999 7.5h-28v-66h29z" />
    <glyph glyph-name="afii10107" unicode="&#x45a;" horiz-adv-x="890" 
d="M35 530h220.001v-162h110v162h220v-162h65c70.667 0 125.834 -13.5 165.501 -40.5s59.5 -73.167 59.5 -138.5c0 -26 -3.83301 -50.5 -11.5 -73.5s-20.334 -43 -38.001 -60s-40.834 -30.5 -69.501 -40.5s-64 -15 -106 -15h-285v192h-110v-192h-220v530zM614.001 156
c27.333 0 40.999 11 40.999 33c0 12 -3.66699 20.5 -11 25.5s-17.666 7.5 -30.999 7.5h-28v-66h29z" />
    <glyph glyph-name="afii10108" unicode="&#x45b;" horiz-adv-x="655" 
d="M100 394l-90 -0.000976562v136h90v170h220v-170h180v-136h-180v-89c12 18.667 29.333 35 52 49s52 21 88 21c55.333 0 97.5 -15.667 126.5 -47s43.5 -79 43.5 -143v-185h-220v140c0 18.667 -3.33301 32.834 -10 42.501s-17.667 14.5 -33 14.5c-16 0 -27.833 -5 -35.5 -15
s-11.5 -24 -11.5 -42v-140h-220v394z" />
    <glyph glyph-name="afii10109" unicode="&#x45c;" horiz-adv-x="607" 
d="M35 530h220v-180h20l88 180h232l-126 -238l136 -292h-248l-82 190h-20v-190h-220v530zM344 740h210l-170 -160h-150z" />
    <glyph glyph-name="afii10110" unicode="&#x45e;" horiz-adv-x="624" 
d="M152 -215c-10 0 -20 0.99707 -30 2.99707v178c10 -2 20 -3 30 -3c18 0 31 2.5 39 7.5s15 14.833 21 29.5l-210 530h235l94 -280l86 280h205l-190 -530c-13.333 -37.333 -28 -69.666 -44 -96.999s-35 -49.666 -57 -66.999s-47.5 -30.166 -76.5 -38.499
s-63.167 -12.5 -102.5 -12.5zM327 584.997c-38 0 -70.167 3.5 -96.5 10.5s-48 17 -65 30s-29.333 28.833 -37 47.5s-11.5 39.334 -11.5 62.001h170c0 -19.333 3.33301 -32.833 10 -40.5s16.667 -11.5 30 -11.5s23.333 3.83301 30 11.5s10 21.167 10 40.5h170
c0 -22.667 -3.83301 -43.334 -11.5 -62.001s-20 -34.5 -37 -47.5s-38.667 -23 -65 -30s-58.5 -10.5 -96.5 -10.5z" />
    <glyph glyph-name="afii10193" unicode="&#x45f;" 
d="M210 0h-175v530h220v-354h90v354h220v-530h-175v-125h-180v125z" />
    <glyph glyph-name="afii10050" unicode="&#x490;" horiz-adv-x="590" 
d="M40 700h306v130h224v-342h-266v-488h-264v700z" />
    <glyph glyph-name="afii10098" unicode="&#x491;" horiz-adv-x="465" 
d="M35 530h230v125h180v-301h-190v-354h-220v530z" />
    <glyph glyph-name="uni2010" unicode="&#x2010;" horiz-adv-x="380" 
d="M20 386h340v-212h-340v212z" />
    <glyph glyph-name="uni2011" unicode="&#x2011;" horiz-adv-x="380" 
d="M20 386h340v-212h-340v212z" />
    <glyph glyph-name="figuredash" unicode="&#x2012;" horiz-adv-x="633" 
d="M53 466h527v-212h-527v212z" />
    <glyph glyph-name="endash" unicode="&#x2013;" horiz-adv-x="540" 
d="M20 386h500v-212h-500v212z" />
    <glyph glyph-name="emdash" unicode="&#x2014;" horiz-adv-x="740" 
d="M20 386h700v-212h-700v212z" />
    <glyph glyph-name="quoteleft" unicode="&#x2018;" horiz-adv-x="320" 
d="M255.008 545v-179.979h-189.977v179.979l124.984 154.981h104.987z" />
    <glyph glyph-name="quoteright" unicode="&#x2019;" horiz-adv-x="320" 
d="M65 520v180h190v-180l-125 -155h-105z" />
    <glyph glyph-name="quotesinglbase" unicode="&#x201a;" horiz-adv-x="320" 
d="M65 0v180h190v-180l-125 -155h-105z" />
    <glyph glyph-name="quotedblleft" unicode="&#x201c;" horiz-adv-x="580" 
d="M255.008 545v-179.979h-189.977v179.979l124.984 154.981h104.987zM515.008 545v-179.979h-189.977v179.979l124.984 154.981h104.987z" />
    <glyph glyph-name="quotedblright" unicode="&#x201d;" horiz-adv-x="580" 
d="M65 521v180h190v-180l-125 -155h-105zM325 521v180h190v-180l-125 -155h-105z" />
    <glyph glyph-name="quotedblbase" unicode="&#x201e;" horiz-adv-x="580" 
d="M65 0v180h190v-180l-125 -155h-105zM325 0v180h190v-180l-125 -155h-105z" />
    <glyph glyph-name="dagger" unicode="&#x2020;" horiz-adv-x="550" 
d="M185 394h-165v136h165v170h180v-170h165v-136h-165v-594h-180v594z" />
    <glyph glyph-name="daggerdbl" unicode="&#x2021;" horiz-adv-x="550" 
d="M185 0h-165v136h165v258h-165v136h165v170h180v-170h165v-136h-165v-258h165v-136h-165v-200h-180v200z" />
    <glyph glyph-name="bullet" unicode="&#x2022;" horiz-adv-x="400" 
d="M200 105c-24 0 -46.333 4.33301 -67 13s-38.667 20.667 -54 36s-27.333 33.333 -36 54s-13 43 -13 67s4.33301 46.333 13 67s20.667 38.667 36 54s33.333 27.333 54 36s43 13 67 13s46.333 -4.33301 67 -13s38.667 -20.667 54 -36s27.333 -33.333 36 -54s13 -43 13 -67
s-4.33301 -46.333 -13 -67s-20.667 -38.667 -36 -54s-33.333 -27.333 -54 -36s-43 -13 -67 -13z" />
    <glyph glyph-name="ellipsis" unicode="&#x2026;" horiz-adv-x="1060" 
d="M170 -15c-16.667 0 -32.334 3.16699 -47.001 9.5s-27.334 14.833 -38.001 25.5s-19.167 23.334 -25.5 38.001s-9.5 30.334 -9.5 47.001c0 17.333 3.16699 33.333 9.5 48s14.833 27.334 25.5 38.001s23.334 19 38.001 25s30.334 9 47.001 9s32.334 -3 47.001 -9
s27.334 -14.333 38.001 -25s19.167 -23.334 25.5 -38.001s9.5 -30.667 9.5 -48c0 -16.667 -3.16699 -32.334 -9.5 -47.001s-14.833 -27.334 -25.5 -38.001s-23.334 -19.167 -38.001 -25.5s-30.334 -9.5 -47.001 -9.5zM530 -15c-16.667 0 -32.334 3.16699 -47.001 9.5
s-27.334 14.833 -38.001 25.5s-19.167 23.334 -25.5 38.001s-9.5 30.334 -9.5 47.001c0 17.333 3.16699 33.333 9.5 48s14.833 27.334 25.5 38.001s23.334 19 38.001 25s30.334 9 47.001 9s32.334 -3 47.001 -9s27.334 -14.333 38.001 -25s19.167 -23.334 25.5 -38.001
s9.5 -30.667 9.5 -48c0 -16.667 -3.16699 -32.334 -9.5 -47.001s-14.833 -27.334 -25.5 -38.001s-23.334 -19.167 -38.001 -25.5s-30.334 -9.5 -47.001 -9.5zM890 -15c-16.667 0 -32.334 3.16699 -47.001 9.5s-27.334 14.833 -38.001 25.5s-19.167 23.334 -25.5 38.001
s-9.5 30.334 -9.5 47.001c0 17.333 3.16699 33.333 9.5 48s14.833 27.334 25.5 38.001s23.334 19 38.001 25s30.334 9 47.001 9s32.334 -3 47.001 -9s27.334 -14.333 38.001 -25s19.167 -23.334 25.5 -38.001s9.5 -30.667 9.5 -48c0 -16.667 -3.16699 -32.334 -9.5 -47.001
s-14.833 -27.334 -25.5 -38.001s-23.334 -19.167 -38.001 -25.5s-30.334 -9.5 -47.001 -9.5z" />
    <glyph glyph-name="perthousand" unicode="&#x2030;" horiz-adv-x="1240" 
d="M565 700h200l-480 -700h-200zM195 365c-59.333 0 -105 15.333 -137 46s-48 72 -48 124v10c0 52 16 93.333 48 124s77.667 46 137 46s105 -15.333 137 -46s48 -72 48 -124v-10c0 -52 -16 -93.333 -48 -124s-77.667 -46 -137 -46zM195 495c7.33301 0 13.333 2.83301 18 8.5
s7 16.167 7 31.5v10c0 15.333 -2.33301 25.833 -7 31.5s-10.667 8.5 -18 8.5s-13.333 -2.83301 -18 -8.5s-7 -16.167 -7 -31.5v-10c0 -15.333 2.33301 -25.833 7 -31.5s10.667 -8.5 18 -8.5zM655 -14c-59.333 0 -105 15.333 -137 46s-48 72 -48 124v10
c0 52 16 93.333 48 124s77.667 46 137 46s105 -15.333 137 -46s48 -72 48 -124v-10c0 -52 -16 -93.333 -48 -124s-77.667 -46 -137 -46zM655 116c7.33301 0 13.333 2.83301 18 8.5s7 16.167 7 31.5v10c0 15.333 -2.33301 25.833 -7 31.5s-10.667 8.5 -18 8.5
s-13.333 -2.83301 -18 -8.5s-7 -16.167 -7 -31.5v-10c0 -15.333 2.33301 -25.833 7 -31.5s10.667 -8.5 18 -8.5zM1045 -14c-59.333 0 -105 15.333 -137 46s-48 72 -48 124v10c0 52 16 93.333 48 124s77.667 46 137 46s105 -15.333 137 -46s48 -72 48 -124v-10
c0 -52 -16 -93.333 -48 -124s-77.667 -46 -137 -46zM1045 116c7.33301 0 13.333 2.83301 18 8.5s7 16.167 7 31.5v10c0 15.333 -2.33301 25.833 -7 31.5s-10.667 8.5 -18 8.5s-13.333 -2.83301 -18 -8.5s-7 -16.167 -7 -31.5v-10c0 -15.333 2.33301 -25.833 7 -31.5
s10.667 -8.5 18 -8.5z" />
    <glyph glyph-name="guilsinglleft" unicode="&#x2039;" horiz-adv-x="270" 
d="M15 177v176l220 177v-206l-75 -54l75 -54v-216z" />
    <glyph glyph-name="guilsinglright" unicode="&#x203a;" horiz-adv-x="270" 
d="M255 353v-176l-220 -177v206l75 54l-75 54v216z" />
    <glyph glyph-name="fraction" unicode="&#x2044;" horiz-adv-x="180" 
d="M230 700h200l-480 -700h-200z" />
    <glyph glyph-name="uni2074" unicode="&#x2074;" horiz-adv-x="445" 
d="M230 436h-220v102l184 242h196v-216h40v-128h-40v-56h-160v56zM230 564v94l-62 -94h62z" />
    <glyph glyph-name="Euro" unicode="&#x20ac;" horiz-adv-x="735" 
d="M405 -15c-34.667 0 -67.834 3.83203 -99.501 11.499s-60.667 19.667 -87 36s-49.5 37.333 -69.5 63s-36 56.834 -48 93.501h-81v142h60v9v20v9h-60v142h82c12 36 28.333 66.833 49 92.5s44.167 46.667 70.5 63s55.166 28.5 86.499 36.5s63.666 12 96.999 12
c38.667 0 76.167 -5.16699 112.5 -15.5s68.5 -27.333 96.5 -51s50.667 -54.167 68 -91.5s26.666 -83 27.999 -137h-230c-1.33301 23.333 -4.5 42.333 -9.5 57s-10.833 26 -17.5 34s-14.167 13.333 -22.5 16s-16.833 4 -25.5 4c-10 0 -19.667 -1.16699 -29 -3.5
s-17.666 -7.83301 -24.999 -16.5h59v-142h-90v-9v-20v-9h90v-142h-57c7.33301 -8.66699 15.5 -14.167 24.5 -16.5s18.167 -3.5 27.5 -3.5c8.66699 0 17.334 1.33301 26.001 4s16.334 8 23.001 16s12.334 19.167 17.001 33.5s7.66699 33.5 9 57.5h230
c-1.33301 -55.333 -10.5 -101.833 -27.5 -139.5s-39.5 -68 -67.5 -91s-60 -39.5 -96 -49.5s-74 -15 -114 -15z" />
    <glyph glyph-name="uni20B4" unicode="&#x20b4;" horiz-adv-x="650" 
d="M20 509l328 0.00292969c2.66699 3.33301 4.5 7.66602 5.5 12.999s1.5 9.66602 1.5 12.999c0 18.667 -9.33301 28 -28 28c-17.333 0 -28 -11 -32 -33h-220c0.666992 30 5.66699 56.5 15 79.5s24 42.333 44 58s45.5 27.5 76.5 35.5s69.167 12 114.5 12
s83.833 -3.83301 115.5 -11.5s57.5 -17.834 77.5 -30.501s34.5 -27.5 43.5 -44.5s13.5 -34.833 13.5 -53.5c0 -14.667 -0.833008 -27 -2.5 -37s-4.16699 -19.667 -7.5 -29h65v-142h-610v142zM325 -14.9971c-48 0 -88.668 3.49902 -122.001 10.499s-60.166 17 -80.499 30
s-35 28.333 -44 46s-13.5 37.167 -13.5 58.5c0 11.333 0.666992 21.333 2 30s4.33301 17.667 9 27h-56v142h610v-142h-338c-4.66699 -5.33301 -7 -12.666 -7 -21.999s2.83301 -16.333 8.5 -21s15.5 -7 29.5 -7c13.333 0 23 2.83301 29 8.5s10.333 13.834 13 24.501h220
c-1.33301 -28.667 -6.33301 -54.334 -15 -77.001s-23 -42 -43 -58s-46.5 -28.333 -79.5 -37s-73.833 -13 -122.5 -13z" />
    <glyph glyph-name="uni20BD" unicode="&#x20bd;" horiz-adv-x="735" 
d="M110 64h-90v142h90v38h-90v162h90v294h315c54 0 99.167 -5.5 135.5 -16.5s65.5 -26.833 87.5 -47.5s37.833 -46.167 47.5 -76.5s14.5 -64.5 14.5 -102.5c0 -30.667 -4.83301 -59 -14.5 -85s-25.5 -48.5 -47.5 -67.5s-51.167 -33.833 -87.5 -44.5s-81.5 -16 -135.5 -16
h-51v-38h186v-142h-186v-64h-264v64zM394 406c34.667 0 52 17 52 51s-17.333 51 -52 51h-20v-102h20z" />
    <glyph glyph-name="afii61352" unicode="&#x2116;" horiz-adv-x="1140" 
d="M50 700h214l222 -290v290h244v-700h-214l-222 290v-290h-244v700zM945 365c-59.333 0 -105 15.333 -137 46s-48 72 -48 124v10c0 52 16 93.333 48 124s77.667 46 137 46s105 -15.333 137 -46s48 -72 48 -124v-10c0 -52 -16 -93.333 -48 -124s-77.667 -46 -137 -46z
M945 495c7.33301 0 13.333 2.83301 18 8.5s7 16.167 7 31.5v10c0 15.333 -2.33301 25.833 -7 31.5s-10.667 8.5 -18 8.5s-13.333 -2.83301 -18 -8.5s-7 -16.167 -7 -31.5v-10c0 -15.333 2.33301 -25.833 7 -31.5s10.667 -8.5 18 -8.5zM770 334h350v-128h-350v128z" />
    <glyph glyph-name="trademark" unicode="&#x2122;" horiz-adv-x="930" 
d="M105 572h-100v128h370v-128h-100v-272h-170v272zM420 700h160l87 -170l87 170h156v-400h-160v161l-48 -91h-75l-47 91v-161h-160v400z" />
    <glyph glyph-name="arrowleft" unicode="&#x2190;" horiz-adv-x="750" 
d="M10 350l300 300h258l-194 -194h351v-212h-351l194 -194h-258z" />
    <glyph glyph-name="arrowup" unicode="&#x2191;" horiz-adv-x="750" 
d="M265 347l-190 -190v258l300 300l300 -300v-258l-190 190v-347h-220v347z" />
    <glyph glyph-name="arrowright" unicode="&#x2192;" horiz-adv-x="750" 
d="M376 244h-351v212h351l-194 194h258l300 -300l-300 -300h-258z" />
    <glyph glyph-name="arrowdown" unicode="&#x2193;" horiz-adv-x="750" 
d="M75 285v258l190 -190v347h220v-347l190 190v-258l-300 -300z" />
    <glyph glyph-name="uni2196" unicode="&#x2196;" horiz-adv-x="750" 
d="M257 312v-262l-182 182v418h418l182 -182h-262l262 -262l-156 -156z" />
    <glyph glyph-name="uni2197" unicode="&#x2197;" horiz-adv-x="750" 
d="M75 200l268 268h-268l182 182h418v-418l-182 -182v268l-268 -268z" />
    <glyph glyph-name="uni2198" unicode="&#x2198;" horiz-adv-x="750" 
d="M75 232h262l-262 262l156 156l262 -262v262l182 -182v-418h-418z" />
    <glyph glyph-name="uni2199" unicode="&#x2199;" horiz-adv-x="750" 
d="M75 468l182 182v-268l268 268l150 -150l-268 -268h268l-182 -182h-418v418z" />
    <glyph glyph-name="Delta" unicode="&#x2206;" horiz-adv-x="744" 
d="M229 700h286l227 -700h-740zM283 192h143l-72 248z" />
    <glyph glyph-name="minus" unicode="&#x2212;" 
d="M25 466h550v-212h-550v212z" />
    <glyph glyph-name="uni2215" unicode="&#x2215;" 
d="M360 700h220l-340 -700h-220z" />
    <glyph glyph-name="radical" unicode="&#x221a;" horiz-adv-x="690" 
d="M10 391h220l80 -193l132 602h238v-212h-66l-157 -688h-264l-129 279h-54v212z" />
    <glyph glyph-name="approxequal" unicode="&#x2248;" 
d="M395 83c-20 0 -38.001 3.16602 -54.001 9.49902s-30.833 13.166 -44.5 20.499l-39 20.5c-12.333 6.33301 -24.833 9.5 -37.5 9.5s-23.5 -3.16699 -32.5 -9.5s-16.167 -13.166 -21.5 -20.499c-6.66699 -8.66699 -12 -18.667 -16 -30l-125 112c8 30 20.333 57 37 81
c6.66699 10 14.667 19.833 24 29.5s19.833 18.334 31.5 26.001s24.834 13.834 39.501 18.501s30.667 7 48 7c20 0 38 -3.16699 54 -9.5s30.833 -13.166 44.5 -20.499l39 -20.5c12.333 -6.33301 24.833 -9.5 37.5 -9.5s23.5 3.16699 32.5 9.5s16.167 13.166 21.5 20.499
c6.66699 8.66699 12 18.667 16 30l125 -112c-9.33301 -30.667 -22 -57.667 -38 -81c-14 -20.667 -32.5 -39.334 -55.5 -56.001s-51.833 -25 -86.5 -25zM394.999 362.999c-20 0 -38.001 3.16602 -54.001 9.49902s-30.833 13.166 -44.5 20.499l-39 20.5
c-12.333 6.33301 -24.833 9.5 -37.5 9.5s-23.5 -3.16699 -32.5 -9.5s-16.167 -13.166 -21.5 -20.499c-6.66699 -8.66699 -12 -18.667 -16 -30l-125 112c8 30 20.333 57 37 81c6.66699 10 14.667 19.833 24 29.5s19.833 18.334 31.5 26.001s24.834 13.834 39.501 18.501
s30.667 7 48 7c20 0 38 -3.16699 54 -9.5s30.833 -13.166 44.5 -20.499l39 -20.5c12.333 -6.33301 24.833 -9.5 37.5 -9.5s23.5 3.16699 32.5 9.5s16.167 13.166 21.5 20.499c6.66699 8.66699 12 18.667 16 30l125 -112c-9.33301 -30.667 -22 -57.667 -38 -81
c-14 -20.667 -32.5 -39.334 -55.5 -56.001s-51.833 -25 -86.5 -25z" />
    <glyph glyph-name="lessequal" unicode="&#x2264;" 
d="M25 0v212h242l-242 100v176l550 227v-220l-255 -92l255 -93v-310h-550z" />
    <glyph glyph-name="greaterequal" unicode="&#x2265;" 
d="M575 488v-176l-243 -100h243v-212h-550v305l255 92l-255 93v225z" />
    <glyph glyph-name="angleleft" unicode="&#x2329;" horiz-adv-x="380" 
d="M15 250l200 450h190l-200 -450l200 -450h-194z" />
    <glyph glyph-name="angleright" unicode="&#x232a;" horiz-adv-x="380" 
d="M365.002 250.03l-199.976 -449.944h-189.977l199.976 449.944l-199.976 449.945h193.976z" />
    <glyph glyph-name="uniF400" unicode="&#xf400;" horiz-adv-x="0" 
d="M-279 740h210l-170 -160h-150z" />
    <glyph glyph-name="uniF401" unicode="&#xf401;" horiz-adv-x="0" 
d="M-955 900h230l-170 -150h-170z" />
    <glyph glyph-name="uniF407" unicode="&#xf407;" horiz-adv-x="270" 
d="M105 -215c-15.333 0 -28.168 0.5 -38.501 1.5s-19.166 2.16699 -26.499 3.5c-8 1.33301 -14.667 3 -20 5v94c4 -1.33301 8.66699 -2.66602 14 -3.99902c8.66699 -2 20.667 -3 36 -3c16 0 26.667 1.33301 32 4s8 6.66699 8 12c0 4 -2.33301 7.83301 -7 11.5
s-15 5.5 -31 5.5l17 95h96l-6 -44c22.667 -4 40.167 -13.333 52.5 -28s18.5 -32.334 18.5 -53.001c0 -30.667 -10.833 -55 -32.5 -73s-59.167 -27 -112.5 -27z" />
    <glyph glyph-name="uniF408" unicode="&#xf408;" horiz-adv-x="480" 
d="M130 900h220l110 -150h-170l-50 45l-50 -45h-170z" />
    <glyph glyph-name="uniF40A" unicode="&#xf40a;" horiz-adv-x="315" 
d="M65 500v200h210v-200l-140 -175h-110z" />
    <glyph glyph-name="uniF40B" unicode="&#xf40b;" horiz-adv-x="300" 
d="M150 740c-45.333 0 -78.333 8 -99 24s-31 36.333 -31 61s10.333 45 31 61s53.667 24 99 24s78.333 -8 99 -24s31 -36.333 31 -61s-10.333 -45 -31 -61s-53.667 -24 -99 -24z" />
    <glyph glyph-name="uniF40C" unicode="&#xf40c;" horiz-adv-x="340" 
d="M170 730c-48 0 -85 10.167 -111 30.5s-39 48.5 -39 84.5s13 64.167 39 84.5s63 30.5 111 30.5s85 -10.167 111 -30.5s39 -48.5 39 -84.5s-13 -64.167 -39 -84.5s-63 -30.5 -111 -30.5zM170 820c14.667 0 25 2.16699 31 6.5s9 10.5 9 18.5s-3 14.167 -9 18.5
s-16.333 6.5 -31 6.5s-25 -2.16699 -31 -6.5s-9 -10.5 -9 -18.5s3 -14.167 9 -18.5s16.333 -6.5 31 -6.5z" />
    <glyph glyph-name="uniF40D" unicode="&#xf40d;" horiz-adv-x="480" 
d="M315 730c-18.667 0 -34.6621 2.33105 -47.9951 6.99805s-25.833 9.83398 -37.5 15.501s-23.334 10.834 -35.001 15.501s-24.834 7 -39.501 7c-9.33301 0 -17.5 -2 -24.5 -6s-13.167 -8.66699 -18.5 -14c-6.66699 -6 -12.334 -12.667 -17.001 -20l-75 75
c8.66699 20 19.667 38.333 33 55c11.333 13.333 26.166 25.833 44.499 37.5s40.833 17.5 67.5 17.5c18.667 0 34.667 -2.16699 48 -6.5s25.833 -9 37.5 -14s23.167 -9.5 34.5 -13.5s24.666 -6 39.999 -6c8.66699 0 16.667 1.66699 24 5s13.666 7.33301 18.999 12
c6.66699 5.33301 12.334 11.333 17.001 18l75 -75c-8.66699 -20.667 -19.667 -39 -33 -55c-11.333 -14 -26.333 -26.667 -45 -38s-41 -17 -67 -17z" />
    <glyph glyph-name="uniF6BA" unicode="&#xf6ba;" horiz-adv-x="380" 
d="M20 456h340v-212h-340v212z" />
    <glyph glyph-name="uniF6BB" unicode="&#xf6bb;" horiz-adv-x="540" 
d="M20 456h500v-212h-500v212z" />
    <glyph glyph-name="uniF6BC" unicode="&#xf6bc;" horiz-adv-x="740" 
d="M20 456h700v-212h-700v212z" />
    <glyph glyph-name="uniF6C9" unicode="&#xf6c9;" horiz-adv-x="380" 
d="M130 900h230l-170 -150h-170z" />
    <glyph glyph-name="uniF6CA" unicode="&#xf6ca;" horiz-adv-x="480" 
d="M20 900h170l50 -45l50 45h170l-110 -150h-220z" />
    <glyph glyph-name="uniF6CB" unicode="&#xf6cb;" horiz-adv-x="530" 
d="M130 740c-33.333 0 -60 7.83301 -80 23.5s-30 36.167 -30 61.5s10 45.833 30 61.5s46.667 23.5 80 23.5s60 -7.83301 80 -23.5s30 -36.167 30 -61.5s-10 -45.833 -30 -61.5s-46.667 -23.5 -80 -23.5zM400 740c-33.333 0 -60 7.83301 -80 23.5s-30 36.167 -30 61.5
s10 45.833 30 61.5s46.667 23.5 80 23.5s60 -7.83301 80 -23.5s30 -36.167 30 -61.5s-10 -45.833 -30 -61.5s-46.667 -23.5 -80 -23.5z" />
    <glyph glyph-name="uniF6CE" unicode="&#xf6ce;" horiz-adv-x="380" 
d="M20 900h230l110 -150h-170z" />
    <glyph glyph-name="uniF6D0" unicode="&#xf6d0;" horiz-adv-x="390" 
d="M15 891h360v-132h-360v132z" />
    <glyph glyph-name="uniF6D1" unicode="&#xf6d1;" horiz-adv-x="500" 
d="M250 740c-42.667 0 -78.667 3.33301 -108 10s-53 17 -71 31s-31 31.667 -39 53s-12 46.666 -12 75.999h190c0 -22.667 3.33301 -38 10 -46s16.667 -12 30 -12s23.333 4 30 12s10 23.333 10 46h190c0 -29.333 -4 -54.666 -12 -75.999s-21 -39 -39 -53
s-41.667 -24.333 -71 -31s-65.333 -10 -108 -10z" />
    <glyph glyph-name="uniF6D4" unicode="&#xf6d4;" horiz-adv-x="460" 
d="M230 585c-38 0 -70.167 3.5 -96.5 10.5s-48 17 -65 30s-29.333 28.833 -37 47.5s-11.5 39.334 -11.5 62.001h170c0 -19.333 3.33301 -32.833 10 -40.5s16.667 -11.5 30 -11.5s23.333 3.83301 30 11.5s10 21.167 10 40.5h170c0 -22.667 -3.83301 -43.334 -11.5 -62.001
s-20 -34.5 -37 -47.5s-38.667 -23 -65 -30s-58.5 -10.5 -96.5 -10.5z" />
    <glyph glyph-name="uniF730" unicode="&#xf730;" horiz-adv-x="660" 
d="M330 -15c-102.667 0 -179.167 23.667 -229.5 71s-75.5 113.666 -75.5 198.999v20c0 84.667 25.167 150.834 75.5 198.501s126.833 71.5 229.5 71.5s179.167 -23.833 229.5 -71.5s75.5 -113.834 75.5 -198.501v-20c0 -85.333 -25.167 -151.666 -75.5 -198.999
s-126.833 -71 -229.5 -71zM330 197c12 0 21.833 4.33301 29.5 13s11.5 23.667 11.5 45v20c0 21.333 -3.83301 36.333 -11.5 45s-17.5 13 -29.5 13s-21.833 -4.33301 -29.5 -13s-11.5 -23.667 -11.5 -45v-20c0 -21.333 3.83301 -36.333 11.5 -45s17.5 -13 29.5 -13z" />
    <glyph glyph-name="uniF731" unicode="&#xf731;" horiz-adv-x="467" 
d="M153 275l-133 -95v239l156 111h241v-530h-264v275z" />
    <glyph glyph-name="uniF732" unicode="&#xf732;" horiz-adv-x="650" 
d="M30 130l266.003 145.999c18 10 32.5 20.333 43.5 31s16.5 21.667 16.5 33c0 10 -2 18 -6 24s-10.667 9 -20 9c-12.667 0 -21.834 -4.66699 -27.501 -14s-8.5 -25.666 -8.5 -48.999h-254c0 36.667 5.66699 69.5 17 98.5s28.833 53.667 52.5 74s54.167 35.833 91.5 46.5
s82 16 134 16c49.333 0 91.333 -4.33301 126 -13s63 -21.167 85 -37.5s38.167 -35.833 48.5 -58.5s15.5 -48 15.5 -76c0 -18.667 -2.5 -35.667 -7.5 -51s-13.333 -30 -25 -44s-26.834 -27.667 -45.501 -41s-41.334 -27.333 -68.001 -42l-37 -20h183v-162h-580v130z" />
    <glyph glyph-name="uniF733" unicode="&#xf733;" horiz-adv-x="660" 
d="M320 -215c-54 0 -100 7.49805 -138 22.498s-69 36 -93 63s-41.5 59.667 -52.5 98s-16.5 80.5 -16.5 126.5h224c0 -36.667 5 -65.167 15 -85.5s30.333 -30.5 61 -30.5c16 0 29.333 5 40 15s16 23 16 39c0 17.333 -5 31 -15 41s-25.333 15 -46 15h-40v162h40
c11.333 0 21 4.66699 29 14s12 21 12 35s-3.66699 25.833 -11 35.5s-17.333 14.5 -30 14.5c-20 0 -35.167 -8 -45.5 -24s-15.5 -46.333 -15.5 -91h-224c0 106 23.5 184 70.5 234s120.167 75 219.5 75c96 0 168.333 -17.167 217 -51.5s73 -88.166 73 -161.499
c0 -36 -9.66699 -68.167 -29 -96.5s-46 -48.166 -80 -59.499c42.667 -10 73.167 -29.667 91.5 -59s27.5 -62.333 27.5 -99c0 -40.667 -6.83301 -75.5 -20.5 -104.5s-33.5 -53 -59.5 -72s-57.5 -33 -94.5 -42s-78.833 -13.5 -125.5 -13.5z" />
    <glyph glyph-name="uniF734" unicode="&#xf734;" horiz-adv-x="625" 
d="M290 0h-280v182l250 348h274v-318h66v-212h-66v-200h-244v200zM290 212v105l-58 -105h58z" />
    <glyph glyph-name="uniF735" unicode="&#xf735;" horiz-adv-x="630" 
d="M326 -215c-55.333 0 -101.671 6.66504 -139.004 19.998s-67.166 31.666 -89.499 54.999s-38.333 50.833 -48 82.5s-14.5 65.834 -14.5 102.501h244c0 -15.333 0.833008 -27.5 2.5 -36.5s3.83398 -15.833 6.50098 -20.5s6 -7.66699 10 -9s8.66699 -2 14 -2
c11.333 0 19 5.33301 23 16s6 30.667 6 60c0 28 -3 46.667 -9 56s-14 14 -24 14c-16 0 -27.333 -9.33301 -34 -28h-224v435h516v-212h-292v-71c11.333 9.33301 25.333 18 42 26s38.667 12 66 12c30 0 58.333 -3.66699 85 -11s50.334 -19.666 71.001 -36.999
s37 -40.666 49 -69.999s18 -66 18 -110c0 -85.333 -24.167 -152 -72.5 -200s-117.166 -72 -206.499 -72z" />
    <glyph glyph-name="uniF736" unicode="&#xf736;" horiz-adv-x="665" 
d="M347 -15c-52 0 -97.667 6.5 -137 19.5s-72.333 33.333 -99 61s-46.834 63.334 -60.501 107.001s-20.5 96.167 -20.5 157.5v20c0 64.667 7.33301 120.167 22 166.5s35.834 84.166 63.501 113.499s61.667 50.833 102 64.5s86.166 20.5 137.499 20.5
c39.333 0 75.166 -3.5 107.499 -10.5s60 -19.167 83 -36.5s41.333 -40.5 55 -69.5s21.834 -65.167 24.501 -108.5h-224c-3.33301 10 -8.5 18 -15.5 24s-18.833 9 -35.5 9c-10 0 -19 -1.66699 -27 -5s-14.5 -9 -19.5 -17s-8.83301 -19 -11.5 -33s-4 -31.667 -4 -53
c12.667 15.333 30.834 27.5 54.501 36.5s54.167 13.5 91.5 13.5c34.667 0 65 -5.83301 91 -17.5s47.5 -27.5 64.5 -47.5s29.667 -43.333 38 -70s12.5 -55 12.5 -85v-10c0 -77.333 -25.333 -138.333 -76 -183s-123 -67 -217 -67zM335 177c15.333 0 26 5.66699 32 17
s9 25 9 41v10c0 16 -3 29.667 -9 41s-16.667 17 -32 17s-26 -5.66699 -32 -17s-9 -25 -9 -41v-10c0 -16 3 -29.667 9 -41s16.667 -17 32 -17z" />
    <glyph glyph-name="uniF737" unicode="&#xf737;" horiz-adv-x="530" 
d="M240 318h-230v212h500v-182l-180 -548h-280z" />
    <glyph glyph-name="uniF738" unicode="&#xf738;" horiz-adv-x="670" 
d="M335 -15c-44 0 -84.832 4.5 -122.499 13.5s-70.5 22.667 -98.5 41s-49.833 41.166 -65.5 68.499s-23.5 59.333 -23.5 96c0 18.667 2.66699 36.5 8 53.5s13.333 32.667 24 47s24 26.666 40 36.999s34.667 18.166 56 23.499c-34 11.333 -60.5 29.833 -79.5 55.5
s-28.5 56.5 -28.5 92.5c0 32 6.66699 60.5 20 85.5s32.5 46.167 57.5 63.5s55.333 30.5 91 39.5s76.167 13.5 121.5 13.5s85.833 -4.5 121.5 -13.5s66 -22.167 91 -39.5s44.167 -38.5 57.5 -63.5s20 -53.5 20 -85.5c0 -36 -9.66699 -66.833 -29 -92.5s-46 -44.167 -80 -55.5
c21.333 -5.33301 40.166 -13.166 56.499 -23.499s29.833 -22.666 40.5 -36.999s18.667 -30 24 -47s8 -34.833 8 -53.5c0 -36.667 -7.83301 -68.667 -23.5 -96s-37.5 -50.166 -65.5 -68.499s-60.833 -32 -98.5 -41s-78.5 -13.5 -122.5 -13.5zM335.001 179
c19.333 0 35.5 4 48.5 12s19.5 21.333 19.5 40s-6.5 32.334 -19.5 41.001s-29.167 13 -48.5 13s-35.5 -4.33301 -48.5 -13s-19.5 -22.334 -19.5 -41.001s6.5 -32 19.5 -40s29.167 -12 48.5 -12zM335.001 435c13.333 0 24.667 3.83301 34 11.5s14 18.5 14 32.5
s-4.5 24.5 -13.5 31.5s-20.5 10.5 -34.5 10.5s-25.5 -3.5 -34.5 -10.5s-13.5 -17.5 -13.5 -31.5s4.5 -24.833 13.5 -32.5s20.5 -11.5 34.5 -11.5z" />
    <glyph glyph-name="uniF739" unicode="&#xf739;" horiz-adv-x="665" 
d="M315 -215c-40.667 0 -77.4961 3.49902 -110.496 10.499s-61.167 19.167 -84.5 36.5s-41.833 40.5 -55.5 69.5s-21.834 65.167 -24.501 108.5h224c3.33301 -10 8.66602 -18 15.999 -24s20.666 -9 39.999 -9c8.66699 0 16.667 1.66699 24 5s13.333 9.33301 18 18
s8.33398 20.667 11.001 36s4 35 4 59c-12.667 -15.333 -30.834 -27.5 -54.501 -36.5s-54.167 -13.5 -91.5 -13.5c-35.333 0 -65.833 5.83301 -91.5 17.5s-47 27.834 -64 48.501s-29.667 45 -38 73s-12.5 58.333 -12.5 91v10c0 82.667 25.333 146.667 76 192s123 68 217 68
c103.333 0 182 -28.833 236 -86.5s81 -150.5 81 -278.5v-20c0 -67.333 -7.16699 -124.833 -21.5 -172.5s-35.333 -86.5 -63 -116.5s-61.334 -51.833 -101.001 -65.5s-84.5 -20.5 -134.5 -20.5zM330.004 206.999c15.333 0 26 6 32 18s9 28.667 9 50v10c0 21.333 -3 38 -9 50
s-16.667 18 -32 18s-26 -6 -32 -18s-9 -28.667 -9 -50v-10c0 -21.333 3 -38 9 -50s16.667 -18 32 -18z" />
    <glyph glyph-name="uniFEFF" unicode="&#xfeff;" horiz-adv-x="0" 
 />
    <glyph glyph-name="nineoldstyle" horiz-adv-x="500" 
d="M442 8v496h-384v-496h384zM50 512h400v-512h-400v512z" />
    </font>
</defs>
</svg>
